G04 EAGLE Gerber RS-274X export*
G75*
%MOMM*%
%FSLAX34Y34*%
%LPD*%
%INBottom Copper*%
%IPPOS*%
%AMOC8*
5,1,8,0,0,1.08239X$1,22.5*%
G01*
%ADD10R,1.100000X1.000000*%
%ADD11R,1.428000X1.428000*%
%ADD12C,1.428000*%
%ADD13C,3.316000*%
%ADD14C,4.445000*%
%ADD15C,1.508000*%
%ADD16R,1.031241X0.949959*%
%ADD17R,0.949959X1.031241*%
%ADD18C,2.100000*%
%ADD19R,1.524000X1.524000*%
%ADD20P,1.649562X8X202.500000*%
%ADD21R,1.676400X1.676400*%
%ADD22C,1.676400*%
%ADD23C,4.016000*%
%ADD24C,0.254000*%
%ADD25C,0.381000*%
%ADD26C,0.756400*%


D10*
X376800Y660400D03*
X359800Y660400D03*
D11*
X508000Y673100D03*
D12*
X533000Y673100D03*
X553000Y673100D03*
X578000Y673100D03*
D13*
X477300Y700200D03*
X608700Y700200D03*
D14*
X50800Y749300D03*
X1028700Y749300D03*
X1028700Y50800D03*
X50800Y50800D03*
D15*
X800500Y50800D03*
X825500Y50800D03*
X850500Y50800D03*
X229000Y50800D03*
X254000Y50800D03*
X279000Y50800D03*
D16*
X850900Y516001D03*
X850900Y499999D03*
X850900Y550799D03*
X850900Y566801D03*
D17*
X427101Y660400D03*
X411099Y660400D03*
D18*
X507000Y139300D03*
X507000Y89300D03*
X382000Y89300D03*
X382000Y139300D03*
X697500Y139300D03*
X697500Y89300D03*
X572500Y89300D03*
X572500Y139300D03*
D19*
X753700Y289300D03*
D20*
X753700Y314700D03*
X728300Y289300D03*
X728300Y314700D03*
X702900Y289300D03*
X702900Y314700D03*
X677500Y289300D03*
X677500Y314700D03*
X652100Y289300D03*
X652100Y314700D03*
X626700Y289300D03*
X626700Y314700D03*
X601300Y289300D03*
X601300Y314700D03*
X575900Y289300D03*
X575900Y314700D03*
X550500Y289300D03*
X550500Y314700D03*
X525100Y289300D03*
X525100Y314700D03*
X499700Y289300D03*
X499700Y314700D03*
X474300Y289300D03*
X474300Y314700D03*
X448900Y289300D03*
X448900Y314700D03*
X423500Y289300D03*
X423500Y314700D03*
X398100Y289300D03*
X398100Y314700D03*
X372700Y289300D03*
X372700Y314700D03*
X347300Y289300D03*
X347300Y314700D03*
X321900Y289300D03*
X321900Y314700D03*
D19*
X753700Y543300D03*
D20*
X753700Y568700D03*
X728300Y543300D03*
X728300Y568700D03*
X702900Y543300D03*
X702900Y568700D03*
X677500Y543300D03*
X677500Y568700D03*
X652100Y543300D03*
X652100Y568700D03*
X626700Y543300D03*
X626700Y568700D03*
X601300Y543300D03*
X601300Y568700D03*
X575900Y543300D03*
X575900Y568700D03*
X550500Y543300D03*
X550500Y568700D03*
X525100Y543300D03*
X525100Y568700D03*
X499700Y543300D03*
X499700Y568700D03*
X474300Y543300D03*
X474300Y568700D03*
X448900Y543300D03*
X448900Y568700D03*
X423500Y543300D03*
X423500Y568700D03*
X398100Y543300D03*
X398100Y568700D03*
X372700Y543300D03*
X372700Y568700D03*
X347300Y543300D03*
X347300Y568700D03*
X321900Y543300D03*
X321900Y568700D03*
D21*
X920750Y222250D03*
D22*
X920750Y247650D03*
X920750Y273050D03*
X920750Y298450D03*
X920750Y323850D03*
X920750Y349250D03*
X920750Y374650D03*
X920750Y400050D03*
X920750Y425450D03*
X920750Y450850D03*
X920750Y476250D03*
X920750Y501650D03*
X920750Y527050D03*
X920750Y552450D03*
X920750Y577850D03*
X920750Y603250D03*
X920750Y628650D03*
X920750Y654050D03*
X920750Y679450D03*
X920750Y704850D03*
D21*
X158750Y222250D03*
D22*
X158750Y247650D03*
X158750Y273050D03*
X158750Y298450D03*
X158750Y323850D03*
X158750Y349250D03*
X158750Y374650D03*
X158750Y400050D03*
X158750Y425450D03*
X158750Y450850D03*
X158750Y476250D03*
X158750Y501650D03*
X158750Y527050D03*
X158750Y552450D03*
X158750Y577850D03*
X158750Y603250D03*
X158750Y628650D03*
X158750Y654050D03*
X158750Y679450D03*
X158750Y704850D03*
D23*
X158750Y749300D03*
X158750Y177800D03*
X920750Y749300D03*
X920750Y177800D03*
D24*
X850500Y50800D02*
X841551Y50800D01*
X784449Y50800D02*
X279000Y50800D01*
X830201Y39450D02*
X841551Y50800D01*
X795799Y39450D02*
X784449Y50800D01*
X795799Y39450D02*
X830201Y39450D01*
X367690Y139490D02*
X279000Y50800D01*
X367690Y139490D02*
X367690Y145227D01*
X541265Y289300D02*
X550500Y289300D01*
X541265Y289300D02*
X529835Y277870D01*
X500333Y277870D02*
X367690Y145227D01*
X500333Y277870D02*
X529835Y277870D01*
X716870Y284566D02*
X723566Y277870D01*
X851734Y298450D02*
X920750Y298450D01*
X691470Y300730D02*
X677500Y314700D01*
X716870Y291495D02*
X716870Y284566D01*
X707635Y300730D02*
X691470Y300730D01*
X707635Y300730D02*
X716870Y291495D01*
X831154Y277870D02*
X851734Y298450D01*
X831154Y277870D02*
X723566Y277870D01*
X663530Y294035D02*
X656835Y300730D01*
X640670Y300730D02*
X626700Y314700D01*
X640670Y300730D02*
X656835Y300730D01*
X663530Y294035D02*
X663530Y287106D01*
X683936Y266700D01*
X925800Y286258D02*
X932942Y293400D01*
X932942Y303500D01*
X925800Y310642D01*
X857758Y286258D02*
X838200Y266700D01*
X916716Y310642D02*
X925800Y310642D01*
X916716Y310642D02*
X908558Y318800D01*
X908558Y337058D01*
X920750Y349250D01*
X925800Y286258D02*
X857758Y286258D01*
X838200Y266700D02*
X683936Y266700D01*
X925800Y463042D02*
X938022Y450820D01*
X925800Y463042D02*
X800442Y463042D01*
X652100Y314700D01*
X920750Y323850D02*
X920750Y332008D01*
X938022Y349280D01*
X938022Y450820D01*
X712136Y314700D02*
X702900Y314700D01*
X712136Y314700D02*
X723566Y303270D01*
X849370Y303270D02*
X920750Y374650D01*
X849370Y303270D02*
X723566Y303270D01*
X753700Y314700D02*
X810000Y314700D01*
X920750Y425450D01*
X925800Y437642D02*
X932942Y430500D01*
X932942Y420400D01*
X920750Y408208D02*
X920750Y400050D01*
X920750Y408208D02*
X932942Y420400D01*
X851242Y437642D02*
X728300Y314700D01*
X851242Y437642D02*
X925800Y437642D01*
D25*
X906653Y710689D02*
X914911Y718947D01*
X926589Y718947D01*
X920750Y253114D02*
X920750Y247650D01*
X945007Y700529D02*
X926589Y718947D01*
X945007Y700529D02*
X945007Y277371D01*
X920750Y253114D01*
X852886Y550799D02*
X850900Y550799D01*
X852886Y550799D02*
X906653Y604566D01*
X906653Y710689D01*
X850900Y550799D02*
X850900Y516001D01*
X697500Y89300D02*
X572500Y89300D01*
X697500Y89300D02*
X787800Y89300D01*
X920750Y222250D01*
X572500Y89300D02*
X508000Y89300D01*
X507000Y89300D01*
X382000Y89300D01*
X403982Y671271D02*
X418216Y671271D01*
X421564Y667923D01*
X393111Y660400D02*
X376800Y660400D01*
X421564Y665937D02*
X421564Y667923D01*
X421564Y665937D02*
X427101Y660400D01*
X403982Y671271D02*
X393111Y660400D01*
X427101Y660400D02*
X427101Y719201D01*
X444500Y736600D01*
D26*
X444500Y736600D03*
D25*
X490785Y146017D02*
X490785Y132584D01*
X575900Y231132D02*
X575900Y289300D01*
X575900Y231132D02*
X490785Y146017D01*
X490785Y132584D02*
X508000Y115369D01*
X508000Y89300D01*
D26*
X533400Y406400D03*
D25*
X533400Y348400D01*
X499700Y314700D01*
D26*
X558800Y609600D03*
D25*
X316376Y582035D02*
X308565Y574224D01*
X308565Y537776D02*
X316376Y529965D01*
X531235Y582035D02*
X558800Y609600D01*
X531235Y582035D02*
X316376Y582035D01*
X308565Y574224D02*
X308565Y537776D01*
X316376Y529965D02*
X479824Y529965D01*
X493159Y543300D02*
X499700Y543300D01*
X493159Y543300D02*
X479824Y529965D01*
X601300Y543300D02*
X601300Y512400D01*
X474300Y314700D02*
X472700Y314700D01*
X300945Y577380D02*
X313220Y589655D01*
X300945Y577380D02*
X300945Y534620D01*
X313220Y589655D02*
X424555Y589655D01*
X472700Y362865D02*
X472700Y314700D01*
X424555Y589655D02*
X508000Y673100D01*
X300945Y534620D02*
X472700Y362865D01*
X472700Y383800D01*
X601300Y512400D01*
D24*
X588600Y309439D02*
X596039Y302000D01*
X588600Y309439D02*
X588600Y319961D01*
X615270Y548035D02*
X621966Y554730D01*
X640670Y573435D02*
X647366Y580130D01*
X656835Y580130D01*
X604765Y302000D02*
X596039Y302000D01*
X621966Y554730D02*
X628895Y554730D01*
X640670Y566506D01*
X640670Y573435D01*
X615270Y346631D02*
X588600Y319961D01*
X615270Y346631D02*
X615270Y548035D01*
X612730Y245030D02*
X507000Y139300D01*
X612730Y245030D02*
X612730Y294035D01*
X604765Y302000D01*
X668265Y568700D02*
X656835Y580130D01*
X668265Y568700D02*
X677500Y568700D01*
X817499Y499999D02*
X850900Y499999D01*
X817499Y499999D02*
X800100Y482600D01*
D26*
X800100Y482600D03*
X673100Y520700D03*
D24*
X673100Y531536D01*
X666070Y538566D01*
X666070Y557270D01*
X677500Y568700D01*
X615270Y309966D02*
X621966Y303270D01*
X615270Y309966D02*
X615270Y319435D01*
X652100Y559465D02*
X652100Y568700D01*
X652100Y559465D02*
X640670Y548035D01*
X628895Y303270D02*
X621966Y303270D01*
X638130Y204930D02*
X572500Y139300D01*
X638130Y204930D02*
X638130Y294035D01*
X628895Y303270D01*
X640670Y344835D02*
X640670Y419100D01*
X640670Y548035D01*
X640670Y344835D02*
X615270Y319435D01*
X844728Y560629D02*
X850900Y566801D01*
X844728Y560629D02*
X843640Y560629D01*
X756892Y473881D01*
X756892Y454055D01*
X721937Y419100D01*
X640670Y419100D01*
D25*
X411099Y660400D02*
X403887Y660400D01*
X359800Y660400D02*
X359800Y658818D01*
X393172Y649685D02*
X403887Y660400D01*
X393172Y649685D02*
X368933Y649685D01*
X359800Y658818D01*
X416636Y652877D02*
X419984Y649529D01*
X434218Y649529D01*
X437566Y652877D01*
X437566Y660466D01*
X477300Y700200D01*
X416636Y654863D02*
X411099Y660400D01*
X416636Y654863D02*
X416636Y652877D01*
D26*
X749300Y457200D03*
D24*
X620890Y585210D02*
X533000Y673100D01*
X688930Y517570D02*
X749300Y457200D01*
X688930Y517570D02*
X688930Y573435D01*
X677155Y585210D02*
X620890Y585210D01*
X677155Y585210D02*
X688930Y573435D01*
M02*
