G04 EAGLE Gerber RS-274X export*
G75*
%MOMM*%
%FSLAX34Y34*%
%LPD*%
%INSoldermask Top*%
%IPPOS*%
%AMOC8*
5,1,8,0,0,1.08239X$1,22.5*%
G01*
%ADD10R,1.003200X1.003200*%
%ADD11C,0.609600*%
%ADD12C,1.219200*%
%ADD13R,1.631200X1.631200*%
%ADD14C,1.631200*%
%ADD15C,3.519200*%
%ADD16C,4.648200*%
%ADD17C,1.711200*%
%ADD18C,2.703200*%
%ADD19C,2.303200*%
%ADD20R,1.727200X1.727200*%
%ADD21P,1.869504X8X202.500000*%
%ADD22R,1.879600X1.879600*%
%ADD23C,1.879600*%
%ADD24C,4.219200*%
%ADD25C,0.959600*%


D10*
X640200Y762000D03*
X655200Y762000D03*
X538600Y762000D03*
X553600Y762000D03*
X437000Y762000D03*
X452000Y762000D03*
D11*
X970280Y88900D02*
X970282Y89087D01*
X970289Y89274D01*
X970301Y89461D01*
X970317Y89647D01*
X970337Y89833D01*
X970362Y90018D01*
X970392Y90203D01*
X970426Y90387D01*
X970465Y90570D01*
X970508Y90752D01*
X970556Y90932D01*
X970608Y91112D01*
X970665Y91290D01*
X970725Y91467D01*
X970791Y91642D01*
X970860Y91816D01*
X970934Y91988D01*
X971012Y92158D01*
X971094Y92326D01*
X971180Y92492D01*
X971270Y92656D01*
X971364Y92817D01*
X971462Y92977D01*
X971564Y93133D01*
X971670Y93288D01*
X971780Y93439D01*
X971893Y93588D01*
X972010Y93734D01*
X972130Y93877D01*
X972254Y94017D01*
X972381Y94154D01*
X972512Y94288D01*
X972646Y94419D01*
X972783Y94546D01*
X972923Y94670D01*
X973066Y94790D01*
X973212Y94907D01*
X973361Y95020D01*
X973512Y95130D01*
X973667Y95236D01*
X973823Y95338D01*
X973983Y95436D01*
X974144Y95530D01*
X974308Y95620D01*
X974474Y95706D01*
X974642Y95788D01*
X974812Y95866D01*
X974984Y95940D01*
X975158Y96009D01*
X975333Y96075D01*
X975510Y96135D01*
X975688Y96192D01*
X975868Y96244D01*
X976048Y96292D01*
X976230Y96335D01*
X976413Y96374D01*
X976597Y96408D01*
X976782Y96438D01*
X976967Y96463D01*
X977153Y96483D01*
X977339Y96499D01*
X977526Y96511D01*
X977713Y96518D01*
X977900Y96520D01*
X978087Y96518D01*
X978274Y96511D01*
X978461Y96499D01*
X978647Y96483D01*
X978833Y96463D01*
X979018Y96438D01*
X979203Y96408D01*
X979387Y96374D01*
X979570Y96335D01*
X979752Y96292D01*
X979932Y96244D01*
X980112Y96192D01*
X980290Y96135D01*
X980467Y96075D01*
X980642Y96009D01*
X980816Y95940D01*
X980988Y95866D01*
X981158Y95788D01*
X981326Y95706D01*
X981492Y95620D01*
X981656Y95530D01*
X981817Y95436D01*
X981977Y95338D01*
X982133Y95236D01*
X982288Y95130D01*
X982439Y95020D01*
X982588Y94907D01*
X982734Y94790D01*
X982877Y94670D01*
X983017Y94546D01*
X983154Y94419D01*
X983288Y94288D01*
X983419Y94154D01*
X983546Y94017D01*
X983670Y93877D01*
X983790Y93734D01*
X983907Y93588D01*
X984020Y93439D01*
X984130Y93288D01*
X984236Y93133D01*
X984338Y92977D01*
X984436Y92817D01*
X984530Y92656D01*
X984620Y92492D01*
X984706Y92326D01*
X984788Y92158D01*
X984866Y91988D01*
X984940Y91816D01*
X985009Y91642D01*
X985075Y91467D01*
X985135Y91290D01*
X985192Y91112D01*
X985244Y90932D01*
X985292Y90752D01*
X985335Y90570D01*
X985374Y90387D01*
X985408Y90203D01*
X985438Y90018D01*
X985463Y89833D01*
X985483Y89647D01*
X985499Y89461D01*
X985511Y89274D01*
X985518Y89087D01*
X985520Y88900D01*
X985518Y88713D01*
X985511Y88526D01*
X985499Y88339D01*
X985483Y88153D01*
X985463Y87967D01*
X985438Y87782D01*
X985408Y87597D01*
X985374Y87413D01*
X985335Y87230D01*
X985292Y87048D01*
X985244Y86868D01*
X985192Y86688D01*
X985135Y86510D01*
X985075Y86333D01*
X985009Y86158D01*
X984940Y85984D01*
X984866Y85812D01*
X984788Y85642D01*
X984706Y85474D01*
X984620Y85308D01*
X984530Y85144D01*
X984436Y84983D01*
X984338Y84823D01*
X984236Y84667D01*
X984130Y84512D01*
X984020Y84361D01*
X983907Y84212D01*
X983790Y84066D01*
X983670Y83923D01*
X983546Y83783D01*
X983419Y83646D01*
X983288Y83512D01*
X983154Y83381D01*
X983017Y83254D01*
X982877Y83130D01*
X982734Y83010D01*
X982588Y82893D01*
X982439Y82780D01*
X982288Y82670D01*
X982133Y82564D01*
X981977Y82462D01*
X981817Y82364D01*
X981656Y82270D01*
X981492Y82180D01*
X981326Y82094D01*
X981158Y82012D01*
X980988Y81934D01*
X980816Y81860D01*
X980642Y81791D01*
X980467Y81725D01*
X980290Y81665D01*
X980112Y81608D01*
X979932Y81556D01*
X979752Y81508D01*
X979570Y81465D01*
X979387Y81426D01*
X979203Y81392D01*
X979018Y81362D01*
X978833Y81337D01*
X978647Y81317D01*
X978461Y81301D01*
X978274Y81289D01*
X978087Y81282D01*
X977900Y81280D01*
X977713Y81282D01*
X977526Y81289D01*
X977339Y81301D01*
X977153Y81317D01*
X976967Y81337D01*
X976782Y81362D01*
X976597Y81392D01*
X976413Y81426D01*
X976230Y81465D01*
X976048Y81508D01*
X975868Y81556D01*
X975688Y81608D01*
X975510Y81665D01*
X975333Y81725D01*
X975158Y81791D01*
X974984Y81860D01*
X974812Y81934D01*
X974642Y82012D01*
X974474Y82094D01*
X974308Y82180D01*
X974144Y82270D01*
X973983Y82364D01*
X973823Y82462D01*
X973667Y82564D01*
X973512Y82670D01*
X973361Y82780D01*
X973212Y82893D01*
X973066Y83010D01*
X972923Y83130D01*
X972783Y83254D01*
X972646Y83381D01*
X972512Y83512D01*
X972381Y83646D01*
X972254Y83783D01*
X972130Y83923D01*
X972010Y84066D01*
X971893Y84212D01*
X971780Y84361D01*
X971670Y84512D01*
X971564Y84667D01*
X971462Y84823D01*
X971364Y84983D01*
X971270Y85144D01*
X971180Y85308D01*
X971094Y85474D01*
X971012Y85642D01*
X970934Y85812D01*
X970860Y85984D01*
X970791Y86158D01*
X970725Y86333D01*
X970665Y86510D01*
X970608Y86688D01*
X970556Y86868D01*
X970508Y87048D01*
X970465Y87230D01*
X970426Y87413D01*
X970392Y87597D01*
X970362Y87782D01*
X970337Y87967D01*
X970317Y88153D01*
X970301Y88339D01*
X970289Y88526D01*
X970282Y88713D01*
X970280Y88900D01*
D12*
X977900Y88900D03*
D11*
X93980Y101600D02*
X93982Y101787D01*
X93989Y101974D01*
X94001Y102161D01*
X94017Y102347D01*
X94037Y102533D01*
X94062Y102718D01*
X94092Y102903D01*
X94126Y103087D01*
X94165Y103270D01*
X94208Y103452D01*
X94256Y103632D01*
X94308Y103812D01*
X94365Y103990D01*
X94425Y104167D01*
X94491Y104342D01*
X94560Y104516D01*
X94634Y104688D01*
X94712Y104858D01*
X94794Y105026D01*
X94880Y105192D01*
X94970Y105356D01*
X95064Y105517D01*
X95162Y105677D01*
X95264Y105833D01*
X95370Y105988D01*
X95480Y106139D01*
X95593Y106288D01*
X95710Y106434D01*
X95830Y106577D01*
X95954Y106717D01*
X96081Y106854D01*
X96212Y106988D01*
X96346Y107119D01*
X96483Y107246D01*
X96623Y107370D01*
X96766Y107490D01*
X96912Y107607D01*
X97061Y107720D01*
X97212Y107830D01*
X97367Y107936D01*
X97523Y108038D01*
X97683Y108136D01*
X97844Y108230D01*
X98008Y108320D01*
X98174Y108406D01*
X98342Y108488D01*
X98512Y108566D01*
X98684Y108640D01*
X98858Y108709D01*
X99033Y108775D01*
X99210Y108835D01*
X99388Y108892D01*
X99568Y108944D01*
X99748Y108992D01*
X99930Y109035D01*
X100113Y109074D01*
X100297Y109108D01*
X100482Y109138D01*
X100667Y109163D01*
X100853Y109183D01*
X101039Y109199D01*
X101226Y109211D01*
X101413Y109218D01*
X101600Y109220D01*
X101787Y109218D01*
X101974Y109211D01*
X102161Y109199D01*
X102347Y109183D01*
X102533Y109163D01*
X102718Y109138D01*
X102903Y109108D01*
X103087Y109074D01*
X103270Y109035D01*
X103452Y108992D01*
X103632Y108944D01*
X103812Y108892D01*
X103990Y108835D01*
X104167Y108775D01*
X104342Y108709D01*
X104516Y108640D01*
X104688Y108566D01*
X104858Y108488D01*
X105026Y108406D01*
X105192Y108320D01*
X105356Y108230D01*
X105517Y108136D01*
X105677Y108038D01*
X105833Y107936D01*
X105988Y107830D01*
X106139Y107720D01*
X106288Y107607D01*
X106434Y107490D01*
X106577Y107370D01*
X106717Y107246D01*
X106854Y107119D01*
X106988Y106988D01*
X107119Y106854D01*
X107246Y106717D01*
X107370Y106577D01*
X107490Y106434D01*
X107607Y106288D01*
X107720Y106139D01*
X107830Y105988D01*
X107936Y105833D01*
X108038Y105677D01*
X108136Y105517D01*
X108230Y105356D01*
X108320Y105192D01*
X108406Y105026D01*
X108488Y104858D01*
X108566Y104688D01*
X108640Y104516D01*
X108709Y104342D01*
X108775Y104167D01*
X108835Y103990D01*
X108892Y103812D01*
X108944Y103632D01*
X108992Y103452D01*
X109035Y103270D01*
X109074Y103087D01*
X109108Y102903D01*
X109138Y102718D01*
X109163Y102533D01*
X109183Y102347D01*
X109199Y102161D01*
X109211Y101974D01*
X109218Y101787D01*
X109220Y101600D01*
X109218Y101413D01*
X109211Y101226D01*
X109199Y101039D01*
X109183Y100853D01*
X109163Y100667D01*
X109138Y100482D01*
X109108Y100297D01*
X109074Y100113D01*
X109035Y99930D01*
X108992Y99748D01*
X108944Y99568D01*
X108892Y99388D01*
X108835Y99210D01*
X108775Y99033D01*
X108709Y98858D01*
X108640Y98684D01*
X108566Y98512D01*
X108488Y98342D01*
X108406Y98174D01*
X108320Y98008D01*
X108230Y97844D01*
X108136Y97683D01*
X108038Y97523D01*
X107936Y97367D01*
X107830Y97212D01*
X107720Y97061D01*
X107607Y96912D01*
X107490Y96766D01*
X107370Y96623D01*
X107246Y96483D01*
X107119Y96346D01*
X106988Y96212D01*
X106854Y96081D01*
X106717Y95954D01*
X106577Y95830D01*
X106434Y95710D01*
X106288Y95593D01*
X106139Y95480D01*
X105988Y95370D01*
X105833Y95264D01*
X105677Y95162D01*
X105517Y95064D01*
X105356Y94970D01*
X105192Y94880D01*
X105026Y94794D01*
X104858Y94712D01*
X104688Y94634D01*
X104516Y94560D01*
X104342Y94491D01*
X104167Y94425D01*
X103990Y94365D01*
X103812Y94308D01*
X103632Y94256D01*
X103452Y94208D01*
X103270Y94165D01*
X103087Y94126D01*
X102903Y94092D01*
X102718Y94062D01*
X102533Y94037D01*
X102347Y94017D01*
X102161Y94001D01*
X101974Y93989D01*
X101787Y93982D01*
X101600Y93980D01*
X101413Y93982D01*
X101226Y93989D01*
X101039Y94001D01*
X100853Y94017D01*
X100667Y94037D01*
X100482Y94062D01*
X100297Y94092D01*
X100113Y94126D01*
X99930Y94165D01*
X99748Y94208D01*
X99568Y94256D01*
X99388Y94308D01*
X99210Y94365D01*
X99033Y94425D01*
X98858Y94491D01*
X98684Y94560D01*
X98512Y94634D01*
X98342Y94712D01*
X98174Y94794D01*
X98008Y94880D01*
X97844Y94970D01*
X97683Y95064D01*
X97523Y95162D01*
X97367Y95264D01*
X97212Y95370D01*
X97061Y95480D01*
X96912Y95593D01*
X96766Y95710D01*
X96623Y95830D01*
X96483Y95954D01*
X96346Y96081D01*
X96212Y96212D01*
X96081Y96346D01*
X95954Y96483D01*
X95830Y96623D01*
X95710Y96766D01*
X95593Y96912D01*
X95480Y97061D01*
X95370Y97212D01*
X95264Y97367D01*
X95162Y97523D01*
X95064Y97683D01*
X94970Y97844D01*
X94880Y98008D01*
X94794Y98174D01*
X94712Y98342D01*
X94634Y98512D01*
X94560Y98684D01*
X94491Y98858D01*
X94425Y99033D01*
X94365Y99210D01*
X94308Y99388D01*
X94256Y99568D01*
X94208Y99748D01*
X94165Y99930D01*
X94126Y100113D01*
X94092Y100297D01*
X94062Y100482D01*
X94037Y100667D01*
X94017Y100853D01*
X94001Y101039D01*
X93989Y101226D01*
X93982Y101413D01*
X93980Y101600D01*
D12*
X101600Y101600D03*
D11*
X830580Y749300D02*
X830582Y749487D01*
X830589Y749674D01*
X830601Y749861D01*
X830617Y750047D01*
X830637Y750233D01*
X830662Y750418D01*
X830692Y750603D01*
X830726Y750787D01*
X830765Y750970D01*
X830808Y751152D01*
X830856Y751332D01*
X830908Y751512D01*
X830965Y751690D01*
X831025Y751867D01*
X831091Y752042D01*
X831160Y752216D01*
X831234Y752388D01*
X831312Y752558D01*
X831394Y752726D01*
X831480Y752892D01*
X831570Y753056D01*
X831664Y753217D01*
X831762Y753377D01*
X831864Y753533D01*
X831970Y753688D01*
X832080Y753839D01*
X832193Y753988D01*
X832310Y754134D01*
X832430Y754277D01*
X832554Y754417D01*
X832681Y754554D01*
X832812Y754688D01*
X832946Y754819D01*
X833083Y754946D01*
X833223Y755070D01*
X833366Y755190D01*
X833512Y755307D01*
X833661Y755420D01*
X833812Y755530D01*
X833967Y755636D01*
X834123Y755738D01*
X834283Y755836D01*
X834444Y755930D01*
X834608Y756020D01*
X834774Y756106D01*
X834942Y756188D01*
X835112Y756266D01*
X835284Y756340D01*
X835458Y756409D01*
X835633Y756475D01*
X835810Y756535D01*
X835988Y756592D01*
X836168Y756644D01*
X836348Y756692D01*
X836530Y756735D01*
X836713Y756774D01*
X836897Y756808D01*
X837082Y756838D01*
X837267Y756863D01*
X837453Y756883D01*
X837639Y756899D01*
X837826Y756911D01*
X838013Y756918D01*
X838200Y756920D01*
X838387Y756918D01*
X838574Y756911D01*
X838761Y756899D01*
X838947Y756883D01*
X839133Y756863D01*
X839318Y756838D01*
X839503Y756808D01*
X839687Y756774D01*
X839870Y756735D01*
X840052Y756692D01*
X840232Y756644D01*
X840412Y756592D01*
X840590Y756535D01*
X840767Y756475D01*
X840942Y756409D01*
X841116Y756340D01*
X841288Y756266D01*
X841458Y756188D01*
X841626Y756106D01*
X841792Y756020D01*
X841956Y755930D01*
X842117Y755836D01*
X842277Y755738D01*
X842433Y755636D01*
X842588Y755530D01*
X842739Y755420D01*
X842888Y755307D01*
X843034Y755190D01*
X843177Y755070D01*
X843317Y754946D01*
X843454Y754819D01*
X843588Y754688D01*
X843719Y754554D01*
X843846Y754417D01*
X843970Y754277D01*
X844090Y754134D01*
X844207Y753988D01*
X844320Y753839D01*
X844430Y753688D01*
X844536Y753533D01*
X844638Y753377D01*
X844736Y753217D01*
X844830Y753056D01*
X844920Y752892D01*
X845006Y752726D01*
X845088Y752558D01*
X845166Y752388D01*
X845240Y752216D01*
X845309Y752042D01*
X845375Y751867D01*
X845435Y751690D01*
X845492Y751512D01*
X845544Y751332D01*
X845592Y751152D01*
X845635Y750970D01*
X845674Y750787D01*
X845708Y750603D01*
X845738Y750418D01*
X845763Y750233D01*
X845783Y750047D01*
X845799Y749861D01*
X845811Y749674D01*
X845818Y749487D01*
X845820Y749300D01*
X845818Y749113D01*
X845811Y748926D01*
X845799Y748739D01*
X845783Y748553D01*
X845763Y748367D01*
X845738Y748182D01*
X845708Y747997D01*
X845674Y747813D01*
X845635Y747630D01*
X845592Y747448D01*
X845544Y747268D01*
X845492Y747088D01*
X845435Y746910D01*
X845375Y746733D01*
X845309Y746558D01*
X845240Y746384D01*
X845166Y746212D01*
X845088Y746042D01*
X845006Y745874D01*
X844920Y745708D01*
X844830Y745544D01*
X844736Y745383D01*
X844638Y745223D01*
X844536Y745067D01*
X844430Y744912D01*
X844320Y744761D01*
X844207Y744612D01*
X844090Y744466D01*
X843970Y744323D01*
X843846Y744183D01*
X843719Y744046D01*
X843588Y743912D01*
X843454Y743781D01*
X843317Y743654D01*
X843177Y743530D01*
X843034Y743410D01*
X842888Y743293D01*
X842739Y743180D01*
X842588Y743070D01*
X842433Y742964D01*
X842277Y742862D01*
X842117Y742764D01*
X841956Y742670D01*
X841792Y742580D01*
X841626Y742494D01*
X841458Y742412D01*
X841288Y742334D01*
X841116Y742260D01*
X840942Y742191D01*
X840767Y742125D01*
X840590Y742065D01*
X840412Y742008D01*
X840232Y741956D01*
X840052Y741908D01*
X839870Y741865D01*
X839687Y741826D01*
X839503Y741792D01*
X839318Y741762D01*
X839133Y741737D01*
X838947Y741717D01*
X838761Y741701D01*
X838574Y741689D01*
X838387Y741682D01*
X838200Y741680D01*
X838013Y741682D01*
X837826Y741689D01*
X837639Y741701D01*
X837453Y741717D01*
X837267Y741737D01*
X837082Y741762D01*
X836897Y741792D01*
X836713Y741826D01*
X836530Y741865D01*
X836348Y741908D01*
X836168Y741956D01*
X835988Y742008D01*
X835810Y742065D01*
X835633Y742125D01*
X835458Y742191D01*
X835284Y742260D01*
X835112Y742334D01*
X834942Y742412D01*
X834774Y742494D01*
X834608Y742580D01*
X834444Y742670D01*
X834283Y742764D01*
X834123Y742862D01*
X833967Y742964D01*
X833812Y743070D01*
X833661Y743180D01*
X833512Y743293D01*
X833366Y743410D01*
X833223Y743530D01*
X833083Y743654D01*
X832946Y743781D01*
X832812Y743912D01*
X832681Y744046D01*
X832554Y744183D01*
X832430Y744323D01*
X832310Y744466D01*
X832193Y744612D01*
X832080Y744761D01*
X831970Y744912D01*
X831864Y745067D01*
X831762Y745223D01*
X831664Y745383D01*
X831570Y745544D01*
X831480Y745708D01*
X831394Y745874D01*
X831312Y746042D01*
X831234Y746212D01*
X831160Y746384D01*
X831091Y746558D01*
X831025Y746733D01*
X830965Y746910D01*
X830908Y747088D01*
X830856Y747268D01*
X830808Y747448D01*
X830765Y747630D01*
X830726Y747813D01*
X830692Y747997D01*
X830662Y748182D01*
X830637Y748367D01*
X830617Y748553D01*
X830601Y748739D01*
X830589Y748926D01*
X830582Y749113D01*
X830580Y749300D01*
D12*
X838200Y749300D03*
D11*
X233680Y749300D02*
X233682Y749487D01*
X233689Y749674D01*
X233701Y749861D01*
X233717Y750047D01*
X233737Y750233D01*
X233762Y750418D01*
X233792Y750603D01*
X233826Y750787D01*
X233865Y750970D01*
X233908Y751152D01*
X233956Y751332D01*
X234008Y751512D01*
X234065Y751690D01*
X234125Y751867D01*
X234191Y752042D01*
X234260Y752216D01*
X234334Y752388D01*
X234412Y752558D01*
X234494Y752726D01*
X234580Y752892D01*
X234670Y753056D01*
X234764Y753217D01*
X234862Y753377D01*
X234964Y753533D01*
X235070Y753688D01*
X235180Y753839D01*
X235293Y753988D01*
X235410Y754134D01*
X235530Y754277D01*
X235654Y754417D01*
X235781Y754554D01*
X235912Y754688D01*
X236046Y754819D01*
X236183Y754946D01*
X236323Y755070D01*
X236466Y755190D01*
X236612Y755307D01*
X236761Y755420D01*
X236912Y755530D01*
X237067Y755636D01*
X237223Y755738D01*
X237383Y755836D01*
X237544Y755930D01*
X237708Y756020D01*
X237874Y756106D01*
X238042Y756188D01*
X238212Y756266D01*
X238384Y756340D01*
X238558Y756409D01*
X238733Y756475D01*
X238910Y756535D01*
X239088Y756592D01*
X239268Y756644D01*
X239448Y756692D01*
X239630Y756735D01*
X239813Y756774D01*
X239997Y756808D01*
X240182Y756838D01*
X240367Y756863D01*
X240553Y756883D01*
X240739Y756899D01*
X240926Y756911D01*
X241113Y756918D01*
X241300Y756920D01*
X241487Y756918D01*
X241674Y756911D01*
X241861Y756899D01*
X242047Y756883D01*
X242233Y756863D01*
X242418Y756838D01*
X242603Y756808D01*
X242787Y756774D01*
X242970Y756735D01*
X243152Y756692D01*
X243332Y756644D01*
X243512Y756592D01*
X243690Y756535D01*
X243867Y756475D01*
X244042Y756409D01*
X244216Y756340D01*
X244388Y756266D01*
X244558Y756188D01*
X244726Y756106D01*
X244892Y756020D01*
X245056Y755930D01*
X245217Y755836D01*
X245377Y755738D01*
X245533Y755636D01*
X245688Y755530D01*
X245839Y755420D01*
X245988Y755307D01*
X246134Y755190D01*
X246277Y755070D01*
X246417Y754946D01*
X246554Y754819D01*
X246688Y754688D01*
X246819Y754554D01*
X246946Y754417D01*
X247070Y754277D01*
X247190Y754134D01*
X247307Y753988D01*
X247420Y753839D01*
X247530Y753688D01*
X247636Y753533D01*
X247738Y753377D01*
X247836Y753217D01*
X247930Y753056D01*
X248020Y752892D01*
X248106Y752726D01*
X248188Y752558D01*
X248266Y752388D01*
X248340Y752216D01*
X248409Y752042D01*
X248475Y751867D01*
X248535Y751690D01*
X248592Y751512D01*
X248644Y751332D01*
X248692Y751152D01*
X248735Y750970D01*
X248774Y750787D01*
X248808Y750603D01*
X248838Y750418D01*
X248863Y750233D01*
X248883Y750047D01*
X248899Y749861D01*
X248911Y749674D01*
X248918Y749487D01*
X248920Y749300D01*
X248918Y749113D01*
X248911Y748926D01*
X248899Y748739D01*
X248883Y748553D01*
X248863Y748367D01*
X248838Y748182D01*
X248808Y747997D01*
X248774Y747813D01*
X248735Y747630D01*
X248692Y747448D01*
X248644Y747268D01*
X248592Y747088D01*
X248535Y746910D01*
X248475Y746733D01*
X248409Y746558D01*
X248340Y746384D01*
X248266Y746212D01*
X248188Y746042D01*
X248106Y745874D01*
X248020Y745708D01*
X247930Y745544D01*
X247836Y745383D01*
X247738Y745223D01*
X247636Y745067D01*
X247530Y744912D01*
X247420Y744761D01*
X247307Y744612D01*
X247190Y744466D01*
X247070Y744323D01*
X246946Y744183D01*
X246819Y744046D01*
X246688Y743912D01*
X246554Y743781D01*
X246417Y743654D01*
X246277Y743530D01*
X246134Y743410D01*
X245988Y743293D01*
X245839Y743180D01*
X245688Y743070D01*
X245533Y742964D01*
X245377Y742862D01*
X245217Y742764D01*
X245056Y742670D01*
X244892Y742580D01*
X244726Y742494D01*
X244558Y742412D01*
X244388Y742334D01*
X244216Y742260D01*
X244042Y742191D01*
X243867Y742125D01*
X243690Y742065D01*
X243512Y742008D01*
X243332Y741956D01*
X243152Y741908D01*
X242970Y741865D01*
X242787Y741826D01*
X242603Y741792D01*
X242418Y741762D01*
X242233Y741737D01*
X242047Y741717D01*
X241861Y741701D01*
X241674Y741689D01*
X241487Y741682D01*
X241300Y741680D01*
X241113Y741682D01*
X240926Y741689D01*
X240739Y741701D01*
X240553Y741717D01*
X240367Y741737D01*
X240182Y741762D01*
X239997Y741792D01*
X239813Y741826D01*
X239630Y741865D01*
X239448Y741908D01*
X239268Y741956D01*
X239088Y742008D01*
X238910Y742065D01*
X238733Y742125D01*
X238558Y742191D01*
X238384Y742260D01*
X238212Y742334D01*
X238042Y742412D01*
X237874Y742494D01*
X237708Y742580D01*
X237544Y742670D01*
X237383Y742764D01*
X237223Y742862D01*
X237067Y742964D01*
X236912Y743070D01*
X236761Y743180D01*
X236612Y743293D01*
X236466Y743410D01*
X236323Y743530D01*
X236183Y743654D01*
X236046Y743781D01*
X235912Y743912D01*
X235781Y744046D01*
X235654Y744183D01*
X235530Y744323D01*
X235410Y744466D01*
X235293Y744612D01*
X235180Y744761D01*
X235070Y744912D01*
X234964Y745067D01*
X234862Y745223D01*
X234764Y745383D01*
X234670Y745544D01*
X234580Y745708D01*
X234494Y745874D01*
X234412Y746042D01*
X234334Y746212D01*
X234260Y746384D01*
X234191Y746558D01*
X234125Y746733D01*
X234065Y746910D01*
X234008Y747088D01*
X233956Y747268D01*
X233908Y747448D01*
X233865Y747630D01*
X233826Y747813D01*
X233792Y747997D01*
X233762Y748182D01*
X233737Y748367D01*
X233717Y748553D01*
X233701Y748739D01*
X233689Y748926D01*
X233682Y749113D01*
X233680Y749300D01*
D12*
X241300Y749300D03*
D13*
X508000Y673100D03*
D14*
X533000Y673100D03*
X553000Y673100D03*
X578000Y673100D03*
D15*
X477300Y700200D03*
X608700Y700200D03*
D16*
X50800Y749300D03*
X1028700Y749300D03*
X1028700Y50800D03*
X50800Y50800D03*
D17*
X800500Y50800D03*
X825500Y50800D03*
X850500Y50800D03*
D18*
X775500Y120800D03*
X875500Y120800D03*
D17*
X229000Y50800D03*
X254000Y50800D03*
X279000Y50800D03*
D18*
X204000Y120800D03*
X304000Y120800D03*
D19*
X507000Y139300D03*
X507000Y89300D03*
X382000Y89300D03*
X382000Y139300D03*
X697500Y139300D03*
X697500Y89300D03*
X572500Y89300D03*
X572500Y139300D03*
D20*
X753700Y289300D03*
D21*
X753700Y314700D03*
X728300Y289300D03*
X728300Y314700D03*
X702900Y289300D03*
X702900Y314700D03*
X677500Y289300D03*
X677500Y314700D03*
X652100Y289300D03*
X652100Y314700D03*
X626700Y289300D03*
X626700Y314700D03*
X601300Y289300D03*
X601300Y314700D03*
X575900Y289300D03*
X575900Y314700D03*
X550500Y289300D03*
X550500Y314700D03*
X525100Y289300D03*
X525100Y314700D03*
X499700Y289300D03*
X499700Y314700D03*
X474300Y289300D03*
X474300Y314700D03*
X448900Y289300D03*
X448900Y314700D03*
X423500Y289300D03*
X423500Y314700D03*
X398100Y289300D03*
X398100Y314700D03*
X372700Y289300D03*
X372700Y314700D03*
X347300Y289300D03*
X347300Y314700D03*
X321900Y289300D03*
X321900Y314700D03*
D20*
X753700Y543300D03*
D21*
X753700Y568700D03*
X728300Y543300D03*
X728300Y568700D03*
X702900Y543300D03*
X702900Y568700D03*
X677500Y543300D03*
X677500Y568700D03*
X652100Y543300D03*
X652100Y568700D03*
X626700Y543300D03*
X626700Y568700D03*
X601300Y543300D03*
X601300Y568700D03*
X575900Y543300D03*
X575900Y568700D03*
X550500Y543300D03*
X550500Y568700D03*
X525100Y543300D03*
X525100Y568700D03*
X499700Y543300D03*
X499700Y568700D03*
X474300Y543300D03*
X474300Y568700D03*
X448900Y543300D03*
X448900Y568700D03*
X423500Y543300D03*
X423500Y568700D03*
X398100Y543300D03*
X398100Y568700D03*
X372700Y543300D03*
X372700Y568700D03*
X347300Y543300D03*
X347300Y568700D03*
X321900Y543300D03*
X321900Y568700D03*
D22*
X920750Y222250D03*
D23*
X920750Y247650D03*
X920750Y273050D03*
X920750Y298450D03*
X920750Y323850D03*
X920750Y349250D03*
X920750Y374650D03*
X920750Y400050D03*
X920750Y425450D03*
X920750Y450850D03*
X920750Y476250D03*
X920750Y501650D03*
X920750Y527050D03*
X920750Y552450D03*
X920750Y577850D03*
X920750Y603250D03*
X920750Y628650D03*
X920750Y654050D03*
X920750Y679450D03*
X920750Y704850D03*
D22*
X158750Y222250D03*
D23*
X158750Y247650D03*
X158750Y273050D03*
X158750Y298450D03*
X158750Y323850D03*
X158750Y349250D03*
X158750Y374650D03*
X158750Y400050D03*
X158750Y425450D03*
X158750Y450850D03*
X158750Y476250D03*
X158750Y501650D03*
X158750Y527050D03*
X158750Y552450D03*
X158750Y577850D03*
X158750Y603250D03*
X158750Y628650D03*
X158750Y654050D03*
X158750Y679450D03*
X158750Y704850D03*
D24*
X158750Y749300D03*
X158750Y177800D03*
X920750Y749300D03*
X920750Y177800D03*
D25*
X444500Y736600D03*
X533400Y406400D03*
X558800Y609600D03*
X800100Y482600D03*
X673100Y520700D03*
X749300Y457200D03*
M02*
