M48
;GenerationSoftware,Autodesk,EAGLE,9.6.2*%
;CreationDate,2025-01-11T01:09:46Z*%
FMAT,2
ICI,OFF
METRIC,TZ,000.000
T9C0.350
T8C0.889
T7C0.920
T6C1.000
T5C1.400
T4C2.300
T3C2.500
T2C3.000
T1C3.175
%
G90
M71
T1
X5080Y74930
X102870Y74930
X102870Y5080
X5080Y5080
T2
X92075Y17780
X92075Y74930
X15875Y17780
X15875Y74930
T3
X77550Y12080
X87550Y12080
X20400Y12080
X30400Y12080
T4
X47730Y70020
X60870Y70020
T5
X57250Y13930
X57250Y8930
X69750Y8930
X69750Y13930
X38200Y13930
X38200Y8930
X50700Y8930
X50700Y13930
T6
X85050Y5080
X22900Y5080
X25400Y5080
X27900Y5080
X82550Y5080
X80050Y5080
X92075Y22225
X92075Y24765
X92075Y27305
X92075Y29845
X15875Y67945
X15875Y70485
X15875Y65405
X15875Y62865
X15875Y60325
X15875Y57785
X15875Y55245
X15875Y52705
X15875Y50165
X15875Y47625
X15875Y45085
X15875Y42545
X15875Y40005
X15875Y37465
X15875Y34925
X15875Y32385
X15875Y29845
X15875Y27305
X15875Y24765
X15875Y22225
X92075Y70485
X92075Y67945
X92075Y65405
X92075Y62865
X92075Y60325
X92075Y57785
X92075Y55245
X92075Y52705
X92075Y50165
X92075Y47625
X92075Y45085
X92075Y42545
X92075Y40005
X92075Y37465
X92075Y34925
X92075Y32385
T7
X50800Y67310
X53300Y67310
X55300Y67310
X57800Y67310
T8
X72830Y54330
X72830Y56870
X70290Y54330
X70290Y56870
X67750Y54330
X67750Y56870
X65210Y54330
X65210Y56870
X62670Y54330
X62670Y56870
X60130Y54330
X60130Y56870
X57590Y54330
X57590Y56870
X55050Y54330
X55050Y56870
X52510Y54330
X52510Y56870
X49970Y54330
X49970Y56870
X47430Y54330
X47430Y56870
X44890Y54330
X44890Y56870
X42350Y54330
X42350Y56870
X39810Y54330
X39810Y56870
X37270Y54330
X37270Y56870
X34730Y54330
X34730Y56870
X32190Y54330
X32190Y56870
X75370Y56870
X75370Y54330
X32190Y31470
X32190Y28930
X34730Y31470
X34730Y28930
X37270Y31470
X37270Y28930
X39810Y31470
X39810Y28930
X42350Y31470
X42350Y28930
X44890Y31470
X44890Y28930
X47430Y31470
X47430Y28930
X49970Y31470
X49970Y28930
X52510Y31470
X52510Y28930
X55050Y31470
X55050Y28930
X57590Y31470
X57590Y28930
X60130Y31470
X60130Y28930
X62670Y31470
X62670Y28930
X65210Y31470
X65210Y28930
X67750Y31470
X67750Y28930
X70290Y31470
X70290Y28930
X72830Y31470
X72830Y28930
X75370Y31470
X75370Y28930
T9
X74930Y45720
X67310Y52070
X80010Y48260
X55880Y60960
X53340Y40640
X44450Y73660
M30