G04 EAGLE Gerber RS-274X export*
G75*
%MOMM*%
%FSLAX34Y34*%
%LPD*%
%INTop Copper*%
%IPPOS*%
%AMOC8*
5,1,8,0,0,1.08239X$1,22.5*%
G01*
%ADD10C,0.152400*%
%ADD11R,0.800000X0.800000*%
%ADD12C,1.016000*%
%ADD13R,1.428000X1.428000*%
%ADD14C,1.428000*%
%ADD15C,3.316000*%
%ADD16C,4.445000*%
%ADD17C,1.508000*%
%ADD18C,2.100000*%
%ADD19R,1.524000X1.524000*%
%ADD20P,1.649562X8X202.500000*%
%ADD21R,1.676400X1.676400*%
%ADD22C,1.676400*%
%ADD23C,4.016000*%
%ADD24C,0.254000*%
%ADD25C,0.381000*%
%ADD26C,0.756400*%


D10*
X50038Y350887D02*
X50038Y343662D01*
X33782Y343662D01*
X33782Y350887D01*
X41007Y349081D02*
X41007Y343662D01*
X39201Y355222D02*
X39201Y360641D01*
X33782Y357028D02*
X47329Y357028D01*
X47329Y357029D02*
X47430Y357031D01*
X47531Y357037D01*
X47632Y357046D01*
X47733Y357059D01*
X47833Y357076D01*
X47932Y357097D01*
X48030Y357121D01*
X48127Y357149D01*
X48224Y357181D01*
X48319Y357216D01*
X48412Y357255D01*
X48504Y357297D01*
X48595Y357343D01*
X48683Y357392D01*
X48770Y357444D01*
X48855Y357500D01*
X48938Y357558D01*
X49018Y357620D01*
X49096Y357685D01*
X49172Y357752D01*
X49245Y357822D01*
X49315Y357895D01*
X49382Y357971D01*
X49447Y358049D01*
X49509Y358129D01*
X49567Y358212D01*
X49623Y358297D01*
X49675Y358384D01*
X49724Y358472D01*
X49770Y358563D01*
X49812Y358655D01*
X49851Y358748D01*
X49886Y358843D01*
X49918Y358940D01*
X49946Y359037D01*
X49970Y359135D01*
X49991Y359234D01*
X50008Y359334D01*
X50021Y359435D01*
X50030Y359536D01*
X50036Y359637D01*
X50038Y359738D01*
X50038Y360641D01*
X50038Y369146D02*
X50038Y372758D01*
X50038Y369146D02*
X50036Y369045D01*
X50030Y368944D01*
X50021Y368843D01*
X50008Y368742D01*
X49991Y368642D01*
X49970Y368543D01*
X49946Y368445D01*
X49918Y368348D01*
X49886Y368251D01*
X49851Y368156D01*
X49812Y368063D01*
X49770Y367971D01*
X49724Y367880D01*
X49675Y367792D01*
X49623Y367705D01*
X49567Y367620D01*
X49509Y367537D01*
X49447Y367457D01*
X49382Y367379D01*
X49315Y367303D01*
X49245Y367230D01*
X49172Y367160D01*
X49096Y367093D01*
X49018Y367028D01*
X48938Y366966D01*
X48855Y366908D01*
X48770Y366852D01*
X48683Y366800D01*
X48595Y366751D01*
X48504Y366705D01*
X48412Y366663D01*
X48319Y366624D01*
X48224Y366589D01*
X48127Y366557D01*
X48030Y366529D01*
X47932Y366505D01*
X47833Y366484D01*
X47733Y366467D01*
X47632Y366454D01*
X47531Y366445D01*
X47430Y366439D01*
X47329Y366437D01*
X41910Y366437D01*
X41809Y366439D01*
X41708Y366445D01*
X41607Y366454D01*
X41506Y366467D01*
X41406Y366484D01*
X41307Y366505D01*
X41209Y366529D01*
X41112Y366557D01*
X41015Y366589D01*
X40920Y366624D01*
X40827Y366663D01*
X40735Y366705D01*
X40644Y366751D01*
X40556Y366800D01*
X40469Y366852D01*
X40384Y366908D01*
X40301Y366966D01*
X40221Y367028D01*
X40143Y367093D01*
X40067Y367160D01*
X39994Y367230D01*
X39924Y367303D01*
X39857Y367379D01*
X39792Y367457D01*
X39730Y367537D01*
X39672Y367620D01*
X39616Y367705D01*
X39564Y367792D01*
X39515Y367880D01*
X39469Y367971D01*
X39427Y368063D01*
X39388Y368156D01*
X39353Y368251D01*
X39321Y368348D01*
X39293Y368445D01*
X39269Y368543D01*
X39248Y368642D01*
X39231Y368742D01*
X39218Y368843D01*
X39209Y368944D01*
X39203Y369045D01*
X39201Y369146D01*
X39201Y372758D01*
X33782Y378924D02*
X50038Y378924D01*
X39201Y378924D02*
X39201Y383440D01*
X39203Y383544D01*
X39209Y383647D01*
X39219Y383751D01*
X39233Y383854D01*
X39251Y383956D01*
X39272Y384057D01*
X39298Y384158D01*
X39327Y384257D01*
X39360Y384356D01*
X39397Y384453D01*
X39438Y384548D01*
X39482Y384642D01*
X39530Y384734D01*
X39581Y384824D01*
X39636Y384913D01*
X39694Y384999D01*
X39756Y385082D01*
X39820Y385164D01*
X39888Y385242D01*
X39958Y385318D01*
X40031Y385392D01*
X40108Y385462D01*
X40186Y385530D01*
X40268Y385594D01*
X40351Y385656D01*
X40437Y385714D01*
X40526Y385769D01*
X40616Y385820D01*
X40708Y385868D01*
X40802Y385912D01*
X40897Y385953D01*
X40994Y385990D01*
X41093Y386023D01*
X41192Y386052D01*
X41293Y386078D01*
X41394Y386099D01*
X41496Y386117D01*
X41599Y386131D01*
X41703Y386141D01*
X41806Y386147D01*
X41910Y386149D01*
X50038Y386149D01*
X43716Y393270D02*
X43716Y404107D01*
X50038Y409943D02*
X33782Y415362D01*
X50038Y420781D01*
X45974Y419426D02*
X45974Y411298D01*
X43716Y426617D02*
X43716Y437454D01*
X50038Y449091D02*
X50036Y449209D01*
X50030Y449327D01*
X50021Y449445D01*
X50007Y449562D01*
X49990Y449679D01*
X49969Y449796D01*
X49944Y449911D01*
X49915Y450026D01*
X49882Y450140D01*
X49846Y450252D01*
X49806Y450363D01*
X49763Y450473D01*
X49716Y450582D01*
X49666Y450689D01*
X49611Y450794D01*
X49554Y450897D01*
X49493Y450998D01*
X49429Y451098D01*
X49362Y451195D01*
X49292Y451290D01*
X49218Y451382D01*
X49142Y451473D01*
X49062Y451560D01*
X48980Y451645D01*
X48895Y451727D01*
X48808Y451807D01*
X48717Y451883D01*
X48625Y451957D01*
X48530Y452027D01*
X48433Y452094D01*
X48333Y452158D01*
X48232Y452219D01*
X48129Y452276D01*
X48024Y452331D01*
X47917Y452381D01*
X47808Y452428D01*
X47698Y452471D01*
X47587Y452511D01*
X47475Y452547D01*
X47361Y452580D01*
X47246Y452609D01*
X47131Y452634D01*
X47014Y452655D01*
X46897Y452672D01*
X46780Y452686D01*
X46662Y452695D01*
X46544Y452701D01*
X46426Y452703D01*
X50038Y449091D02*
X50036Y448908D01*
X50029Y448726D01*
X50018Y448544D01*
X50003Y448362D01*
X49983Y448180D01*
X49960Y447999D01*
X49931Y447819D01*
X49899Y447639D01*
X49862Y447460D01*
X49821Y447283D01*
X49775Y447106D01*
X49726Y446930D01*
X49672Y446756D01*
X49614Y446582D01*
X49552Y446411D01*
X49486Y446241D01*
X49415Y446072D01*
X49341Y445905D01*
X49263Y445740D01*
X49181Y445577D01*
X49095Y445416D01*
X49005Y445257D01*
X48911Y445100D01*
X48814Y444946D01*
X48713Y444794D01*
X48608Y444644D01*
X48500Y444497D01*
X48389Y444353D01*
X48274Y444211D01*
X48155Y444072D01*
X48033Y443936D01*
X47908Y443803D01*
X47780Y443673D01*
X37394Y444124D02*
X37276Y444126D01*
X37158Y444132D01*
X37040Y444141D01*
X36923Y444155D01*
X36806Y444172D01*
X36689Y444193D01*
X36574Y444218D01*
X36459Y444247D01*
X36345Y444280D01*
X36233Y444316D01*
X36122Y444356D01*
X36012Y444399D01*
X35903Y444446D01*
X35796Y444496D01*
X35691Y444551D01*
X35588Y444608D01*
X35487Y444669D01*
X35387Y444733D01*
X35290Y444800D01*
X35195Y444870D01*
X35103Y444944D01*
X35012Y445020D01*
X34925Y445100D01*
X34840Y445182D01*
X34758Y445267D01*
X34678Y445354D01*
X34602Y445445D01*
X34528Y445537D01*
X34458Y445632D01*
X34391Y445729D01*
X34327Y445829D01*
X34266Y445930D01*
X34209Y446033D01*
X34154Y446138D01*
X34104Y446245D01*
X34057Y446354D01*
X34014Y446464D01*
X33974Y446575D01*
X33938Y446687D01*
X33905Y446801D01*
X33876Y446916D01*
X33851Y447031D01*
X33830Y447148D01*
X33813Y447265D01*
X33799Y447382D01*
X33790Y447500D01*
X33784Y447618D01*
X33782Y447736D01*
X33784Y447897D01*
X33790Y448059D01*
X33799Y448220D01*
X33813Y448381D01*
X33830Y448541D01*
X33851Y448701D01*
X33876Y448861D01*
X33905Y449020D01*
X33937Y449178D01*
X33973Y449335D01*
X34013Y449491D01*
X34057Y449647D01*
X34105Y449801D01*
X34156Y449954D01*
X34210Y450106D01*
X34269Y450257D01*
X34330Y450406D01*
X34396Y450553D01*
X34465Y450699D01*
X34537Y450844D01*
X34613Y450986D01*
X34692Y451127D01*
X34774Y451266D01*
X34860Y451402D01*
X34949Y451537D01*
X35041Y451670D01*
X35137Y451800D01*
X40555Y445929D02*
X40493Y445828D01*
X40428Y445728D01*
X40359Y445631D01*
X40287Y445536D01*
X40213Y445443D01*
X40135Y445353D01*
X40054Y445265D01*
X39971Y445180D01*
X39885Y445098D01*
X39796Y445019D01*
X39705Y444942D01*
X39611Y444869D01*
X39515Y444798D01*
X39417Y444731D01*
X39317Y444667D01*
X39214Y444606D01*
X39110Y444549D01*
X39004Y444495D01*
X38896Y444445D01*
X38787Y444398D01*
X38676Y444354D01*
X38564Y444314D01*
X38450Y444278D01*
X38336Y444246D01*
X38220Y444217D01*
X38104Y444192D01*
X37987Y444171D01*
X37869Y444154D01*
X37751Y444140D01*
X37632Y444131D01*
X37513Y444125D01*
X37394Y444123D01*
X43265Y450897D02*
X43327Y450998D01*
X43392Y451098D01*
X43461Y451195D01*
X43533Y451290D01*
X43607Y451383D01*
X43685Y451473D01*
X43766Y451561D01*
X43849Y451646D01*
X43935Y451728D01*
X44024Y451807D01*
X44115Y451884D01*
X44209Y451957D01*
X44305Y452028D01*
X44403Y452095D01*
X44503Y452159D01*
X44606Y452220D01*
X44710Y452277D01*
X44816Y452331D01*
X44924Y452381D01*
X45033Y452428D01*
X45144Y452472D01*
X45256Y452512D01*
X45370Y452548D01*
X45484Y452580D01*
X45600Y452609D01*
X45716Y452634D01*
X45833Y452655D01*
X45951Y452672D01*
X46069Y452686D01*
X46188Y452695D01*
X46307Y452701D01*
X46426Y452703D01*
X43265Y450897D02*
X40555Y445930D01*
X33782Y459333D02*
X50038Y459333D01*
X44619Y459333D02*
X39201Y466558D01*
X42362Y462494D02*
X50038Y466558D01*
X50038Y474900D02*
X50038Y479415D01*
X50038Y474900D02*
X50036Y474799D01*
X50030Y474698D01*
X50021Y474597D01*
X50008Y474496D01*
X49991Y474396D01*
X49970Y474297D01*
X49946Y474199D01*
X49918Y474102D01*
X49886Y474005D01*
X49851Y473910D01*
X49812Y473817D01*
X49770Y473725D01*
X49724Y473634D01*
X49675Y473546D01*
X49623Y473459D01*
X49567Y473374D01*
X49509Y473291D01*
X49447Y473211D01*
X49382Y473133D01*
X49315Y473057D01*
X49245Y472984D01*
X49172Y472914D01*
X49096Y472847D01*
X49018Y472782D01*
X48938Y472720D01*
X48855Y472662D01*
X48770Y472606D01*
X48683Y472554D01*
X48595Y472505D01*
X48504Y472459D01*
X48412Y472417D01*
X48319Y472378D01*
X48224Y472343D01*
X48127Y472311D01*
X48030Y472283D01*
X47932Y472259D01*
X47833Y472238D01*
X47733Y472221D01*
X47632Y472208D01*
X47531Y472199D01*
X47430Y472193D01*
X47329Y472191D01*
X47329Y472190D02*
X42813Y472190D01*
X42813Y472191D02*
X42694Y472193D01*
X42574Y472199D01*
X42455Y472209D01*
X42337Y472223D01*
X42218Y472240D01*
X42101Y472262D01*
X41984Y472287D01*
X41869Y472317D01*
X41754Y472350D01*
X41640Y472387D01*
X41528Y472427D01*
X41417Y472472D01*
X41308Y472520D01*
X41200Y472571D01*
X41094Y472626D01*
X40990Y472685D01*
X40888Y472747D01*
X40788Y472812D01*
X40690Y472881D01*
X40594Y472953D01*
X40501Y473028D01*
X40411Y473105D01*
X40323Y473186D01*
X40238Y473270D01*
X40156Y473357D01*
X40076Y473446D01*
X40000Y473538D01*
X39926Y473632D01*
X39856Y473729D01*
X39789Y473827D01*
X39725Y473928D01*
X39665Y474032D01*
X39608Y474137D01*
X39555Y474244D01*
X39505Y474352D01*
X39459Y474462D01*
X39417Y474574D01*
X39378Y474687D01*
X39343Y474801D01*
X39312Y474916D01*
X39284Y475033D01*
X39261Y475150D01*
X39241Y475267D01*
X39225Y475386D01*
X39213Y475505D01*
X39205Y475624D01*
X39201Y475743D01*
X39201Y475863D01*
X39205Y475982D01*
X39213Y476101D01*
X39225Y476220D01*
X39241Y476339D01*
X39261Y476456D01*
X39284Y476573D01*
X39312Y476690D01*
X39343Y476805D01*
X39378Y476919D01*
X39417Y477032D01*
X39459Y477144D01*
X39505Y477254D01*
X39555Y477362D01*
X39608Y477469D01*
X39665Y477574D01*
X39725Y477678D01*
X39789Y477779D01*
X39856Y477877D01*
X39926Y477974D01*
X40000Y478068D01*
X40076Y478160D01*
X40156Y478249D01*
X40238Y478336D01*
X40323Y478420D01*
X40411Y478501D01*
X40501Y478578D01*
X40594Y478653D01*
X40690Y478725D01*
X40788Y478794D01*
X40888Y478859D01*
X40990Y478921D01*
X41094Y478980D01*
X41200Y479035D01*
X41308Y479086D01*
X41417Y479134D01*
X41528Y479179D01*
X41640Y479219D01*
X41754Y479256D01*
X41869Y479289D01*
X41984Y479319D01*
X42101Y479344D01*
X42218Y479366D01*
X42337Y479383D01*
X42455Y479397D01*
X42574Y479407D01*
X42694Y479413D01*
X42813Y479415D01*
X44619Y479415D01*
X44619Y472190D01*
X39201Y484440D02*
X39201Y489859D01*
X33782Y486246D02*
X47329Y486246D01*
X47329Y486247D02*
X47430Y486249D01*
X47531Y486255D01*
X47632Y486264D01*
X47733Y486277D01*
X47833Y486294D01*
X47932Y486315D01*
X48030Y486339D01*
X48127Y486367D01*
X48224Y486399D01*
X48319Y486434D01*
X48412Y486473D01*
X48504Y486515D01*
X48595Y486561D01*
X48683Y486610D01*
X48770Y486662D01*
X48855Y486718D01*
X48938Y486776D01*
X49018Y486838D01*
X49096Y486903D01*
X49172Y486970D01*
X49245Y487040D01*
X49315Y487113D01*
X49382Y487189D01*
X49447Y487267D01*
X49509Y487347D01*
X49567Y487430D01*
X49623Y487515D01*
X49675Y487602D01*
X49724Y487690D01*
X49770Y487781D01*
X49812Y487873D01*
X49851Y487966D01*
X49886Y488061D01*
X49918Y488158D01*
X49946Y488255D01*
X49970Y488353D01*
X49991Y488452D01*
X50008Y488552D01*
X50021Y488653D01*
X50030Y488754D01*
X50036Y488855D01*
X50038Y488956D01*
X50038Y489859D01*
X50038Y498364D02*
X50038Y501976D01*
X50038Y498364D02*
X50036Y498263D01*
X50030Y498162D01*
X50021Y498061D01*
X50008Y497960D01*
X49991Y497860D01*
X49970Y497761D01*
X49946Y497663D01*
X49918Y497566D01*
X49886Y497469D01*
X49851Y497374D01*
X49812Y497281D01*
X49770Y497189D01*
X49724Y497098D01*
X49675Y497010D01*
X49623Y496923D01*
X49567Y496838D01*
X49509Y496755D01*
X49447Y496675D01*
X49382Y496597D01*
X49315Y496521D01*
X49245Y496448D01*
X49172Y496378D01*
X49096Y496311D01*
X49018Y496246D01*
X48938Y496184D01*
X48855Y496126D01*
X48770Y496070D01*
X48683Y496018D01*
X48595Y495969D01*
X48504Y495923D01*
X48412Y495881D01*
X48319Y495842D01*
X48224Y495807D01*
X48127Y495775D01*
X48030Y495747D01*
X47932Y495723D01*
X47833Y495702D01*
X47733Y495685D01*
X47632Y495672D01*
X47531Y495663D01*
X47430Y495657D01*
X47329Y495655D01*
X41910Y495655D01*
X41809Y495657D01*
X41708Y495663D01*
X41607Y495672D01*
X41506Y495685D01*
X41406Y495702D01*
X41307Y495723D01*
X41209Y495747D01*
X41112Y495775D01*
X41015Y495807D01*
X40920Y495842D01*
X40827Y495881D01*
X40735Y495923D01*
X40644Y495969D01*
X40556Y496018D01*
X40469Y496070D01*
X40384Y496126D01*
X40301Y496184D01*
X40221Y496246D01*
X40143Y496311D01*
X40067Y496378D01*
X39994Y496448D01*
X39924Y496521D01*
X39857Y496597D01*
X39792Y496675D01*
X39730Y496755D01*
X39672Y496838D01*
X39616Y496923D01*
X39564Y497010D01*
X39515Y497098D01*
X39469Y497189D01*
X39427Y497281D01*
X39388Y497374D01*
X39353Y497469D01*
X39321Y497566D01*
X39293Y497663D01*
X39269Y497761D01*
X39248Y497860D01*
X39231Y497960D01*
X39218Y498061D01*
X39209Y498162D01*
X39203Y498263D01*
X39201Y498364D01*
X39201Y501976D01*
X33782Y508142D02*
X50038Y508142D01*
X39201Y508142D02*
X39201Y512658D01*
X39203Y512762D01*
X39209Y512865D01*
X39219Y512969D01*
X39233Y513072D01*
X39251Y513174D01*
X39272Y513275D01*
X39298Y513376D01*
X39327Y513475D01*
X39360Y513574D01*
X39397Y513671D01*
X39438Y513766D01*
X39482Y513860D01*
X39530Y513952D01*
X39581Y514042D01*
X39636Y514131D01*
X39694Y514217D01*
X39756Y514300D01*
X39820Y514382D01*
X39888Y514460D01*
X39958Y514536D01*
X40031Y514610D01*
X40108Y514680D01*
X40186Y514748D01*
X40268Y514812D01*
X40351Y514874D01*
X40437Y514932D01*
X40526Y514987D01*
X40616Y515038D01*
X40708Y515086D01*
X40802Y515130D01*
X40897Y515171D01*
X40994Y515208D01*
X41093Y515241D01*
X41192Y515270D01*
X41293Y515296D01*
X41394Y515317D01*
X41496Y515335D01*
X41599Y515349D01*
X41703Y515359D01*
X41806Y515365D01*
X41910Y515367D01*
X50038Y515367D01*
X59182Y343662D02*
X75438Y343662D01*
X59182Y343662D02*
X59182Y348178D01*
X59184Y348311D01*
X59190Y348443D01*
X59200Y348575D01*
X59213Y348707D01*
X59231Y348839D01*
X59252Y348969D01*
X59277Y349100D01*
X59306Y349229D01*
X59339Y349357D01*
X59375Y349485D01*
X59415Y349611D01*
X59459Y349736D01*
X59507Y349860D01*
X59558Y349982D01*
X59613Y350103D01*
X59671Y350222D01*
X59733Y350340D01*
X59798Y350455D01*
X59867Y350569D01*
X59938Y350680D01*
X60014Y350789D01*
X60092Y350896D01*
X60173Y351001D01*
X60258Y351103D01*
X60345Y351203D01*
X60435Y351300D01*
X60528Y351395D01*
X60624Y351486D01*
X60722Y351575D01*
X60823Y351661D01*
X60927Y351744D01*
X61033Y351824D01*
X61141Y351900D01*
X61251Y351974D01*
X61364Y352044D01*
X61478Y352111D01*
X61595Y352174D01*
X61713Y352234D01*
X61833Y352291D01*
X61955Y352344D01*
X62078Y352393D01*
X62202Y352439D01*
X62328Y352481D01*
X62455Y352519D01*
X62583Y352554D01*
X62712Y352585D01*
X62841Y352612D01*
X62972Y352635D01*
X63103Y352655D01*
X63235Y352670D01*
X63367Y352682D01*
X63499Y352690D01*
X63632Y352694D01*
X63764Y352694D01*
X63897Y352690D01*
X64029Y352682D01*
X64161Y352670D01*
X64293Y352655D01*
X64424Y352635D01*
X64555Y352612D01*
X64684Y352585D01*
X64813Y352554D01*
X64941Y352519D01*
X65068Y352481D01*
X65194Y352439D01*
X65318Y352393D01*
X65441Y352344D01*
X65563Y352291D01*
X65683Y352234D01*
X65801Y352174D01*
X65918Y352111D01*
X66032Y352044D01*
X66145Y351974D01*
X66255Y351900D01*
X66363Y351824D01*
X66469Y351744D01*
X66573Y351661D01*
X66674Y351575D01*
X66772Y351486D01*
X66868Y351395D01*
X66961Y351300D01*
X67051Y351203D01*
X67138Y351103D01*
X67223Y351001D01*
X67304Y350896D01*
X67382Y350789D01*
X67458Y350680D01*
X67529Y350569D01*
X67598Y350455D01*
X67663Y350340D01*
X67725Y350222D01*
X67783Y350103D01*
X67838Y349982D01*
X67889Y349860D01*
X67937Y349736D01*
X67981Y349611D01*
X68021Y349485D01*
X68057Y349357D01*
X68090Y349229D01*
X68119Y349100D01*
X68144Y348969D01*
X68165Y348839D01*
X68183Y348707D01*
X68196Y348575D01*
X68206Y348443D01*
X68212Y348311D01*
X68214Y348178D01*
X68213Y348178D02*
X68213Y343662D01*
X68213Y349081D02*
X75438Y352693D01*
X75438Y361772D02*
X75438Y366288D01*
X75438Y361772D02*
X75436Y361671D01*
X75430Y361570D01*
X75421Y361469D01*
X75408Y361368D01*
X75391Y361268D01*
X75370Y361169D01*
X75346Y361071D01*
X75318Y360974D01*
X75286Y360877D01*
X75251Y360782D01*
X75212Y360689D01*
X75170Y360597D01*
X75124Y360506D01*
X75075Y360418D01*
X75023Y360331D01*
X74967Y360246D01*
X74909Y360163D01*
X74847Y360083D01*
X74782Y360005D01*
X74715Y359929D01*
X74645Y359856D01*
X74572Y359786D01*
X74496Y359719D01*
X74418Y359654D01*
X74338Y359592D01*
X74255Y359534D01*
X74170Y359478D01*
X74083Y359426D01*
X73995Y359377D01*
X73904Y359331D01*
X73812Y359289D01*
X73719Y359250D01*
X73624Y359215D01*
X73527Y359183D01*
X73430Y359155D01*
X73332Y359131D01*
X73233Y359110D01*
X73133Y359093D01*
X73032Y359080D01*
X72931Y359071D01*
X72830Y359065D01*
X72729Y359063D01*
X68213Y359063D01*
X68094Y359065D01*
X67974Y359071D01*
X67855Y359081D01*
X67737Y359095D01*
X67618Y359112D01*
X67501Y359134D01*
X67384Y359159D01*
X67269Y359189D01*
X67154Y359222D01*
X67040Y359259D01*
X66928Y359299D01*
X66817Y359344D01*
X66708Y359392D01*
X66600Y359443D01*
X66494Y359498D01*
X66390Y359557D01*
X66288Y359619D01*
X66188Y359684D01*
X66090Y359753D01*
X65994Y359825D01*
X65901Y359900D01*
X65811Y359977D01*
X65723Y360058D01*
X65638Y360142D01*
X65556Y360229D01*
X65476Y360318D01*
X65400Y360410D01*
X65326Y360504D01*
X65256Y360601D01*
X65189Y360699D01*
X65125Y360800D01*
X65065Y360904D01*
X65008Y361009D01*
X64955Y361116D01*
X64905Y361224D01*
X64859Y361334D01*
X64817Y361446D01*
X64778Y361559D01*
X64743Y361673D01*
X64712Y361788D01*
X64684Y361905D01*
X64661Y362022D01*
X64641Y362139D01*
X64625Y362258D01*
X64613Y362377D01*
X64605Y362496D01*
X64601Y362615D01*
X64601Y362735D01*
X64605Y362854D01*
X64613Y362973D01*
X64625Y363092D01*
X64641Y363211D01*
X64661Y363328D01*
X64684Y363445D01*
X64712Y363562D01*
X64743Y363677D01*
X64778Y363791D01*
X64817Y363904D01*
X64859Y364016D01*
X64905Y364126D01*
X64955Y364234D01*
X65008Y364341D01*
X65065Y364446D01*
X65125Y364550D01*
X65189Y364651D01*
X65256Y364749D01*
X65326Y364846D01*
X65400Y364940D01*
X65476Y365032D01*
X65556Y365121D01*
X65638Y365208D01*
X65723Y365292D01*
X65811Y365373D01*
X65901Y365450D01*
X65994Y365525D01*
X66090Y365597D01*
X66188Y365666D01*
X66288Y365731D01*
X66390Y365793D01*
X66494Y365852D01*
X66600Y365907D01*
X66708Y365958D01*
X66817Y366006D01*
X66928Y366051D01*
X67040Y366091D01*
X67154Y366128D01*
X67269Y366161D01*
X67384Y366191D01*
X67501Y366216D01*
X67618Y366238D01*
X67737Y366255D01*
X67855Y366269D01*
X67974Y366279D01*
X68094Y366285D01*
X68213Y366287D01*
X68213Y366288D02*
X70019Y366288D01*
X70019Y359063D01*
X64601Y372089D02*
X75438Y375701D01*
X64601Y379314D01*
X62794Y393590D02*
X59182Y398106D01*
X75438Y398106D01*
X75438Y402621D02*
X75438Y393590D01*
X75438Y408596D02*
X74535Y408596D01*
X74535Y409499D01*
X75438Y409499D01*
X75438Y408596D01*
X67310Y415474D02*
X66990Y415478D01*
X66671Y415489D01*
X66351Y415508D01*
X66033Y415535D01*
X65715Y415569D01*
X65398Y415611D01*
X65082Y415661D01*
X64767Y415718D01*
X64454Y415782D01*
X64142Y415854D01*
X63832Y415933D01*
X63525Y416020D01*
X63219Y416114D01*
X62916Y416215D01*
X62615Y416324D01*
X62317Y416439D01*
X62021Y416562D01*
X61729Y416692D01*
X61440Y416829D01*
X61439Y416830D02*
X61331Y416869D01*
X61224Y416912D01*
X61119Y416958D01*
X61016Y417008D01*
X60914Y417062D01*
X60814Y417119D01*
X60716Y417180D01*
X60620Y417244D01*
X60527Y417311D01*
X60436Y417381D01*
X60347Y417455D01*
X60261Y417531D01*
X60178Y417611D01*
X60097Y417693D01*
X60019Y417778D01*
X59945Y417865D01*
X59873Y417956D01*
X59804Y418048D01*
X59739Y418143D01*
X59677Y418240D01*
X59618Y418339D01*
X59563Y418440D01*
X59512Y418543D01*
X59464Y418648D01*
X59419Y418754D01*
X59378Y418861D01*
X59341Y418970D01*
X59308Y419081D01*
X59279Y419192D01*
X59253Y419304D01*
X59231Y419417D01*
X59214Y419531D01*
X59200Y419645D01*
X59190Y419760D01*
X59184Y419875D01*
X59182Y419990D01*
X59184Y420105D01*
X59190Y420220D01*
X59200Y420335D01*
X59214Y420449D01*
X59231Y420563D01*
X59253Y420676D01*
X59279Y420788D01*
X59308Y420900D01*
X59341Y421010D01*
X59378Y421119D01*
X59419Y421227D01*
X59464Y421333D01*
X59512Y421438D01*
X59563Y421540D01*
X59619Y421642D01*
X59677Y421741D01*
X59739Y421838D01*
X59805Y421933D01*
X59873Y422025D01*
X59945Y422115D01*
X60019Y422203D01*
X60097Y422288D01*
X60178Y422370D01*
X60261Y422449D01*
X60347Y422526D01*
X60436Y422599D01*
X60527Y422670D01*
X60621Y422737D01*
X60716Y422801D01*
X60814Y422862D01*
X60914Y422919D01*
X61016Y422972D01*
X61120Y423023D01*
X61225Y423069D01*
X61332Y423112D01*
X61440Y423151D01*
X61440Y423150D02*
X61729Y423287D01*
X62021Y423417D01*
X62317Y423540D01*
X62615Y423655D01*
X62916Y423764D01*
X63219Y423865D01*
X63525Y423959D01*
X63832Y424046D01*
X64142Y424125D01*
X64454Y424197D01*
X64767Y424261D01*
X65082Y424318D01*
X65398Y424368D01*
X65715Y424410D01*
X66033Y424444D01*
X66351Y424471D01*
X66671Y424490D01*
X66990Y424501D01*
X67310Y424505D01*
X67310Y415474D02*
X67630Y415478D01*
X67949Y415489D01*
X68269Y415508D01*
X68587Y415535D01*
X68905Y415569D01*
X69222Y415611D01*
X69538Y415661D01*
X69853Y415718D01*
X70166Y415782D01*
X70478Y415854D01*
X70788Y415933D01*
X71095Y416020D01*
X71401Y416114D01*
X71704Y416215D01*
X72005Y416324D01*
X72303Y416439D01*
X72599Y416562D01*
X72891Y416692D01*
X73180Y416829D01*
X73181Y416829D02*
X73289Y416868D01*
X73396Y416911D01*
X73501Y416957D01*
X73605Y417008D01*
X73707Y417061D01*
X73807Y417118D01*
X73905Y417179D01*
X74000Y417243D01*
X74094Y417310D01*
X74185Y417381D01*
X74274Y417454D01*
X74360Y417531D01*
X74443Y417610D01*
X74524Y417692D01*
X74602Y417777D01*
X74676Y417865D01*
X74748Y417955D01*
X74817Y418048D01*
X74882Y418142D01*
X74944Y418239D01*
X75002Y418339D01*
X75058Y418440D01*
X75109Y418542D01*
X75157Y418647D01*
X75202Y418753D01*
X75243Y418861D01*
X75280Y418970D01*
X75313Y419080D01*
X75342Y419192D01*
X75368Y419304D01*
X75390Y419417D01*
X75407Y419531D01*
X75421Y419645D01*
X75431Y419760D01*
X75437Y419875D01*
X75439Y419990D01*
X73180Y423150D02*
X72891Y423287D01*
X72599Y423417D01*
X72303Y423540D01*
X72005Y423655D01*
X71704Y423764D01*
X71401Y423865D01*
X71095Y423959D01*
X70788Y424046D01*
X70478Y424125D01*
X70166Y424197D01*
X69853Y424261D01*
X69538Y424318D01*
X69222Y424368D01*
X68905Y424410D01*
X68587Y424444D01*
X68269Y424471D01*
X67949Y424490D01*
X67630Y424501D01*
X67310Y424505D01*
X73180Y423151D02*
X73288Y423112D01*
X73395Y423069D01*
X73500Y423023D01*
X73604Y422972D01*
X73706Y422919D01*
X73806Y422862D01*
X73904Y422801D01*
X73999Y422737D01*
X74093Y422670D01*
X74184Y422599D01*
X74273Y422526D01*
X74359Y422449D01*
X74442Y422370D01*
X74523Y422288D01*
X74601Y422203D01*
X74675Y422115D01*
X74747Y422025D01*
X74816Y421932D01*
X74881Y421838D01*
X74943Y421741D01*
X75001Y421641D01*
X75057Y421540D01*
X75108Y421437D01*
X75156Y421333D01*
X75201Y421227D01*
X75242Y421119D01*
X75279Y421010D01*
X75312Y420900D01*
X75341Y420788D01*
X75367Y420676D01*
X75389Y420563D01*
X75406Y420449D01*
X75420Y420335D01*
X75430Y420220D01*
X75436Y420105D01*
X75438Y419990D01*
X71826Y416377D02*
X62794Y423602D01*
X84582Y343662D02*
X100838Y343662D01*
X84582Y343662D02*
X84582Y348178D01*
X84584Y348311D01*
X84590Y348443D01*
X84600Y348575D01*
X84613Y348707D01*
X84631Y348839D01*
X84652Y348969D01*
X84677Y349100D01*
X84706Y349229D01*
X84739Y349357D01*
X84775Y349485D01*
X84815Y349611D01*
X84859Y349736D01*
X84907Y349860D01*
X84958Y349982D01*
X85013Y350103D01*
X85071Y350222D01*
X85133Y350340D01*
X85198Y350455D01*
X85267Y350569D01*
X85338Y350680D01*
X85414Y350789D01*
X85492Y350896D01*
X85573Y351001D01*
X85658Y351103D01*
X85745Y351203D01*
X85835Y351300D01*
X85928Y351395D01*
X86024Y351486D01*
X86122Y351575D01*
X86223Y351661D01*
X86327Y351744D01*
X86433Y351824D01*
X86541Y351900D01*
X86651Y351974D01*
X86764Y352044D01*
X86878Y352111D01*
X86995Y352174D01*
X87113Y352234D01*
X87233Y352291D01*
X87355Y352344D01*
X87478Y352393D01*
X87602Y352439D01*
X87728Y352481D01*
X87855Y352519D01*
X87983Y352554D01*
X88112Y352585D01*
X88241Y352612D01*
X88372Y352635D01*
X88503Y352655D01*
X88635Y352670D01*
X88767Y352682D01*
X88899Y352690D01*
X89032Y352694D01*
X89164Y352694D01*
X89297Y352690D01*
X89429Y352682D01*
X89561Y352670D01*
X89693Y352655D01*
X89824Y352635D01*
X89955Y352612D01*
X90084Y352585D01*
X90213Y352554D01*
X90341Y352519D01*
X90468Y352481D01*
X90594Y352439D01*
X90718Y352393D01*
X90841Y352344D01*
X90963Y352291D01*
X91083Y352234D01*
X91201Y352174D01*
X91318Y352111D01*
X91432Y352044D01*
X91545Y351974D01*
X91655Y351900D01*
X91763Y351824D01*
X91869Y351744D01*
X91973Y351661D01*
X92074Y351575D01*
X92172Y351486D01*
X92268Y351395D01*
X92361Y351300D01*
X92451Y351203D01*
X92538Y351103D01*
X92623Y351001D01*
X92704Y350896D01*
X92782Y350789D01*
X92858Y350680D01*
X92929Y350569D01*
X92998Y350455D01*
X93063Y350340D01*
X93125Y350222D01*
X93183Y350103D01*
X93238Y349982D01*
X93289Y349860D01*
X93337Y349736D01*
X93381Y349611D01*
X93421Y349485D01*
X93457Y349357D01*
X93490Y349229D01*
X93519Y349100D01*
X93544Y348969D01*
X93565Y348839D01*
X93583Y348707D01*
X93596Y348575D01*
X93606Y348443D01*
X93612Y348311D01*
X93614Y348178D01*
X93613Y348178D02*
X93613Y343662D01*
X93613Y349081D02*
X100838Y352693D01*
X100838Y362189D02*
X84582Y358577D01*
X90001Y365801D02*
X100838Y362189D01*
X100838Y369414D02*
X90001Y365801D01*
X84582Y373026D02*
X100838Y369414D01*
D11*
X640200Y762000D03*
X655200Y762000D03*
X538600Y762000D03*
X553600Y762000D03*
X437000Y762000D03*
X452000Y762000D03*
D12*
X977900Y88900D03*
X101600Y101600D03*
X838200Y749300D03*
X241300Y749300D03*
D13*
X508000Y673100D03*
D14*
X533000Y673100D03*
X553000Y673100D03*
X578000Y673100D03*
D15*
X477300Y700200D03*
X608700Y700200D03*
D16*
X50800Y749300D03*
X1028700Y749300D03*
X1028700Y50800D03*
X50800Y50800D03*
D17*
X800500Y50800D03*
X825500Y50800D03*
X850500Y50800D03*
X229000Y50800D03*
X254000Y50800D03*
X279000Y50800D03*
D18*
X507000Y139300D03*
X507000Y89300D03*
X382000Y89300D03*
X382000Y139300D03*
X697500Y139300D03*
X697500Y89300D03*
X572500Y89300D03*
X572500Y139300D03*
D19*
X753700Y289300D03*
D20*
X753700Y314700D03*
X728300Y289300D03*
X728300Y314700D03*
X702900Y289300D03*
X702900Y314700D03*
X677500Y289300D03*
X677500Y314700D03*
X652100Y289300D03*
X652100Y314700D03*
X626700Y289300D03*
X626700Y314700D03*
X601300Y289300D03*
X601300Y314700D03*
X575900Y289300D03*
X575900Y314700D03*
X550500Y289300D03*
X550500Y314700D03*
X525100Y289300D03*
X525100Y314700D03*
X499700Y289300D03*
X499700Y314700D03*
X474300Y289300D03*
X474300Y314700D03*
X448900Y289300D03*
X448900Y314700D03*
X423500Y289300D03*
X423500Y314700D03*
X398100Y289300D03*
X398100Y314700D03*
X372700Y289300D03*
X372700Y314700D03*
X347300Y289300D03*
X347300Y314700D03*
X321900Y289300D03*
X321900Y314700D03*
D19*
X753700Y543300D03*
D20*
X753700Y568700D03*
X728300Y543300D03*
X728300Y568700D03*
X702900Y543300D03*
X702900Y568700D03*
X677500Y543300D03*
X677500Y568700D03*
X652100Y543300D03*
X652100Y568700D03*
X626700Y543300D03*
X626700Y568700D03*
X601300Y543300D03*
X601300Y568700D03*
X575900Y543300D03*
X575900Y568700D03*
X550500Y543300D03*
X550500Y568700D03*
X525100Y543300D03*
X525100Y568700D03*
X499700Y543300D03*
X499700Y568700D03*
X474300Y543300D03*
X474300Y568700D03*
X448900Y543300D03*
X448900Y568700D03*
X423500Y543300D03*
X423500Y568700D03*
X398100Y543300D03*
X398100Y568700D03*
X372700Y543300D03*
X372700Y568700D03*
X347300Y543300D03*
X347300Y568700D03*
X321900Y543300D03*
X321900Y568700D03*
D21*
X920750Y222250D03*
D22*
X920750Y247650D03*
X920750Y273050D03*
X920750Y298450D03*
X920750Y323850D03*
X920750Y349250D03*
X920750Y374650D03*
X920750Y400050D03*
X920750Y425450D03*
X920750Y450850D03*
X920750Y476250D03*
X920750Y501650D03*
X920750Y527050D03*
X920750Y552450D03*
X920750Y577850D03*
X920750Y603250D03*
X920750Y628650D03*
X920750Y654050D03*
X920750Y679450D03*
X920750Y704850D03*
D21*
X158750Y222250D03*
D22*
X158750Y247650D03*
X158750Y273050D03*
X158750Y298450D03*
X158750Y323850D03*
X158750Y349250D03*
X158750Y374650D03*
X158750Y400050D03*
X158750Y425450D03*
X158750Y450850D03*
X158750Y476250D03*
X158750Y501650D03*
X158750Y527050D03*
X158750Y552450D03*
X158750Y577850D03*
X158750Y603250D03*
X158750Y628650D03*
X158750Y654050D03*
X158750Y679450D03*
X158750Y704850D03*
D23*
X158750Y749300D03*
X158750Y177800D03*
X920750Y749300D03*
X920750Y177800D03*
D24*
X825500Y50800D02*
X779430Y96870D01*
X727488Y96870D01*
X534336Y289300D02*
X525100Y289300D01*
X534336Y289300D02*
X585136Y238500D01*
X703427Y153610D02*
X711810Y145227D01*
X670026Y153610D02*
X585136Y238500D01*
X711810Y145227D02*
X711810Y112548D01*
X727488Y96870D01*
X703427Y153610D02*
X670026Y153610D01*
X300070Y96870D02*
X254000Y50800D01*
X300070Y96870D02*
X313912Y96870D01*
X327930Y110888D01*
X327930Y117530D01*
X499700Y289300D01*
D25*
X474300Y441700D02*
X474300Y543300D01*
X474300Y441700D02*
X601300Y314700D01*
X607841Y314700D01*
X621176Y328035D01*
X840365Y328035D01*
X920750Y247650D01*
X506241Y543300D02*
X499700Y543300D01*
X569359Y543300D02*
X575900Y543300D01*
X519576Y529965D02*
X506241Y543300D01*
X519576Y529965D02*
X556024Y529965D01*
X569359Y543300D01*
X506241Y314700D02*
X499700Y314700D01*
X569359Y314700D02*
X575900Y314700D01*
X519576Y328035D02*
X506241Y314700D01*
X519576Y328035D02*
X556024Y328035D01*
X569359Y314700D01*
X575900Y314700D02*
X575900Y289300D01*
D26*
X444500Y736600D03*
D25*
X444500Y753418D01*
X446715Y755633D01*
X446715Y756715D01*
X452000Y762000D01*
X532233Y771715D02*
X544967Y771715D01*
X548315Y768367D01*
X495300Y762000D02*
X452000Y762000D01*
X495300Y762000D02*
X522518Y762000D01*
X548315Y767285D02*
X548315Y768367D01*
X548315Y767285D02*
X553600Y762000D01*
X532233Y771715D02*
X522518Y762000D01*
X633833Y771715D02*
X646567Y771715D01*
X649915Y768367D01*
X624118Y762000D02*
X553600Y762000D01*
X649915Y767285D02*
X649915Y768367D01*
X649915Y767285D02*
X655200Y762000D01*
X633833Y771715D02*
X624118Y762000D01*
X499700Y543300D02*
X499700Y440100D01*
X533400Y406400D01*
D26*
X533400Y406400D03*
D25*
X578000Y673100D02*
X495300Y755800D01*
X495300Y762000D01*
X578000Y673100D02*
X578000Y628800D01*
X558800Y609600D01*
D26*
X558800Y609600D03*
D24*
X544520Y756080D02*
X538600Y762000D01*
X599728Y678540D02*
X618460Y678540D01*
X728300Y568700D01*
X544520Y733748D02*
X544520Y756080D01*
X544520Y733748D02*
X599728Y678540D01*
X640200Y682200D02*
X640200Y762000D01*
X640200Y682200D02*
X753700Y568700D01*
X507000Y139300D02*
X382000Y139300D01*
D26*
X800100Y482600D03*
D24*
X711200Y482600D01*
X673100Y520700D01*
D26*
X673100Y520700D03*
D24*
X435638Y732929D02*
X435638Y740271D01*
X435638Y732929D02*
X440829Y727738D01*
X693665Y568700D02*
X702900Y568700D01*
X693665Y568700D02*
X682235Y580130D01*
X534284Y580130D02*
X522050Y592364D01*
X522050Y686082D01*
X437000Y741633D02*
X437000Y762000D01*
X437000Y741633D02*
X435638Y740271D01*
X480394Y727738D02*
X522050Y686082D01*
X480394Y727738D02*
X440829Y727738D01*
X534284Y580130D02*
X682235Y580130D01*
X697500Y139300D02*
X572500Y139300D01*
X714330Y563966D02*
X714330Y573435D01*
X714330Y563966D02*
X707635Y557270D01*
X934212Y211764D02*
X931236Y208788D01*
X910264Y208788D01*
X540300Y660400D02*
X553000Y673100D01*
X540300Y660400D02*
X540300Y596900D01*
X551990Y585210D01*
X702555Y585210D01*
X714330Y573435D01*
X925800Y285242D02*
X934212Y276830D01*
X934212Y211764D01*
X925800Y285242D02*
X893994Y285242D01*
X707635Y557270D02*
X649906Y557270D01*
X640670Y548035D01*
X640670Y538566D01*
X893994Y285242D01*
X818322Y300730D02*
X910264Y208788D01*
X818322Y300730D02*
X638130Y300730D01*
X626700Y289300D01*
D26*
X749300Y457200D03*
D24*
X939292Y209660D02*
X933340Y203708D01*
X895858Y310642D02*
X749300Y457200D01*
X661336Y289300D02*
X652100Y289300D01*
X895858Y310642D02*
X925800Y310642D01*
X939292Y297150D01*
X939292Y209660D01*
X933340Y203708D02*
X746928Y203708D01*
X661336Y289300D01*
X294088Y144730D02*
X280070Y130712D01*
X280070Y101870D02*
X229000Y50800D01*
X541265Y314700D02*
X550500Y314700D01*
X280070Y130712D02*
X280070Y101870D01*
X294088Y144730D02*
X320495Y144730D01*
X462870Y287106D01*
X462870Y294035D01*
X470836Y302000D01*
X528565Y302000D01*
X541265Y314700D01*
X563200Y284039D02*
X570639Y276600D01*
X830201Y39450D02*
X836850Y46099D01*
X830201Y39450D02*
X820799Y39450D01*
X563200Y302000D02*
X550500Y314700D01*
X563200Y302000D02*
X563200Y284039D01*
X570639Y276600D02*
X653542Y276600D01*
X836850Y93292D01*
X836850Y46099D01*
X820799Y39450D02*
X809449Y50800D01*
X800500Y50800D01*
M02*
