G04 EAGLE Gerber RS-274X export*
G75*
%MOMM*%
%FSLAX34Y34*%
%LPD*%
%INSilkscreen Top*%
%IPPOS*%
%AMOC8*
5,1,8,0,0,1.08239X$1,22.5*%
G01*
%ADD10C,0.127000*%
%ADD11C,0.152400*%
%ADD12C,0.254000*%
%ADD13C,0.200000*%
%ADD14C,0.000000*%

G36*
X442505Y759376D02*
X442505Y759376D01*
X442605Y759375D01*
X442619Y759379D01*
X442631Y759379D01*
X442674Y759397D01*
X442784Y759433D01*
X446784Y761433D01*
X446819Y761459D01*
X446860Y761478D01*
X446909Y761526D01*
X446963Y761567D01*
X446988Y761604D01*
X447019Y761636D01*
X447048Y761698D01*
X447085Y761755D01*
X447095Y761799D01*
X447114Y761839D01*
X447119Y761908D01*
X447134Y761974D01*
X447128Y762019D01*
X447131Y762063D01*
X447112Y762129D01*
X447103Y762197D01*
X447082Y762236D01*
X447070Y762279D01*
X447029Y762334D01*
X446997Y762394D01*
X446963Y762424D01*
X446937Y762460D01*
X446866Y762509D01*
X446828Y762543D01*
X446807Y762551D01*
X446784Y762567D01*
X442784Y764567D01*
X442688Y764595D01*
X442594Y764627D01*
X442581Y764627D01*
X442568Y764631D01*
X442469Y764624D01*
X442369Y764621D01*
X442358Y764616D01*
X442345Y764615D01*
X442254Y764574D01*
X442162Y764536D01*
X442152Y764528D01*
X442140Y764522D01*
X442069Y764452D01*
X441996Y764385D01*
X441990Y764374D01*
X441981Y764364D01*
X441939Y764274D01*
X441893Y764185D01*
X441891Y764171D01*
X441886Y764161D01*
X441883Y764114D01*
X441866Y764000D01*
X441866Y760000D01*
X441883Y759902D01*
X441897Y759803D01*
X441903Y759792D01*
X441905Y759779D01*
X441956Y759693D01*
X442003Y759606D01*
X442013Y759597D01*
X442020Y759586D01*
X442097Y759523D01*
X442172Y759457D01*
X442184Y759453D01*
X442194Y759445D01*
X442288Y759413D01*
X442381Y759377D01*
X442394Y759377D01*
X442406Y759373D01*
X442505Y759376D01*
G37*
G36*
X544105Y759376D02*
X544105Y759376D01*
X544205Y759375D01*
X544219Y759379D01*
X544231Y759379D01*
X544274Y759397D01*
X544384Y759433D01*
X548384Y761433D01*
X548419Y761459D01*
X548460Y761478D01*
X548509Y761526D01*
X548563Y761567D01*
X548588Y761604D01*
X548619Y761636D01*
X548648Y761698D01*
X548685Y761755D01*
X548695Y761799D01*
X548714Y761839D01*
X548719Y761908D01*
X548734Y761974D01*
X548728Y762019D01*
X548731Y762063D01*
X548712Y762129D01*
X548703Y762197D01*
X548682Y762236D01*
X548670Y762279D01*
X548629Y762334D01*
X548597Y762394D01*
X548563Y762424D01*
X548537Y762460D01*
X548466Y762509D01*
X548428Y762543D01*
X548407Y762551D01*
X548384Y762567D01*
X544384Y764567D01*
X544288Y764595D01*
X544194Y764627D01*
X544181Y764627D01*
X544168Y764631D01*
X544069Y764624D01*
X543969Y764621D01*
X543958Y764616D01*
X543945Y764615D01*
X543854Y764574D01*
X543762Y764536D01*
X543752Y764528D01*
X543740Y764522D01*
X543669Y764452D01*
X543596Y764385D01*
X543590Y764374D01*
X543581Y764364D01*
X543539Y764274D01*
X543493Y764185D01*
X543491Y764171D01*
X543486Y764161D01*
X543483Y764114D01*
X543466Y764000D01*
X543466Y760000D01*
X543483Y759902D01*
X543497Y759803D01*
X543503Y759792D01*
X543505Y759779D01*
X543556Y759693D01*
X543603Y759606D01*
X543613Y759597D01*
X543620Y759586D01*
X543697Y759523D01*
X543772Y759457D01*
X543784Y759453D01*
X543794Y759445D01*
X543888Y759413D01*
X543981Y759377D01*
X543994Y759377D01*
X544006Y759373D01*
X544105Y759376D01*
G37*
G36*
X645705Y759376D02*
X645705Y759376D01*
X645805Y759375D01*
X645819Y759379D01*
X645831Y759379D01*
X645874Y759397D01*
X645984Y759433D01*
X649984Y761433D01*
X650019Y761459D01*
X650060Y761478D01*
X650109Y761526D01*
X650163Y761567D01*
X650188Y761604D01*
X650219Y761636D01*
X650248Y761698D01*
X650285Y761755D01*
X650295Y761799D01*
X650314Y761839D01*
X650319Y761908D01*
X650334Y761974D01*
X650328Y762019D01*
X650331Y762063D01*
X650312Y762129D01*
X650303Y762197D01*
X650282Y762236D01*
X650270Y762279D01*
X650229Y762334D01*
X650197Y762394D01*
X650163Y762424D01*
X650137Y762460D01*
X650066Y762509D01*
X650028Y762543D01*
X650007Y762551D01*
X649984Y762567D01*
X645984Y764567D01*
X645888Y764595D01*
X645794Y764627D01*
X645781Y764627D01*
X645768Y764631D01*
X645669Y764624D01*
X645569Y764621D01*
X645558Y764616D01*
X645545Y764615D01*
X645454Y764574D01*
X645362Y764536D01*
X645352Y764528D01*
X645340Y764522D01*
X645269Y764452D01*
X645196Y764385D01*
X645190Y764374D01*
X645181Y764364D01*
X645139Y764274D01*
X645093Y764185D01*
X645091Y764171D01*
X645086Y764161D01*
X645083Y764114D01*
X645066Y764000D01*
X645066Y760000D01*
X645083Y759902D01*
X645097Y759803D01*
X645103Y759792D01*
X645105Y759779D01*
X645156Y759693D01*
X645203Y759606D01*
X645213Y759597D01*
X645220Y759586D01*
X645297Y759523D01*
X645372Y759457D01*
X645384Y759453D01*
X645394Y759445D01*
X645488Y759413D01*
X645581Y759377D01*
X645594Y759377D01*
X645606Y759373D01*
X645705Y759376D01*
G37*
D10*
X639700Y767000D02*
X655700Y767000D01*
X655700Y757000D02*
X639700Y757000D01*
X649700Y760000D02*
X649700Y764000D01*
D11*
X635762Y775462D02*
X635762Y786638D01*
X638866Y786638D01*
X638977Y786636D01*
X639087Y786630D01*
X639198Y786620D01*
X639308Y786606D01*
X639417Y786589D01*
X639526Y786567D01*
X639634Y786542D01*
X639740Y786512D01*
X639846Y786479D01*
X639951Y786442D01*
X640054Y786402D01*
X640155Y786357D01*
X640255Y786310D01*
X640354Y786258D01*
X640450Y786203D01*
X640544Y786145D01*
X640636Y786084D01*
X640726Y786019D01*
X640814Y785951D01*
X640899Y785880D01*
X640981Y785806D01*
X641061Y785729D01*
X641138Y785649D01*
X641212Y785567D01*
X641283Y785482D01*
X641351Y785394D01*
X641416Y785304D01*
X641477Y785212D01*
X641535Y785118D01*
X641590Y785022D01*
X641642Y784923D01*
X641689Y784823D01*
X641734Y784722D01*
X641774Y784619D01*
X641811Y784514D01*
X641844Y784408D01*
X641874Y784302D01*
X641899Y784194D01*
X641921Y784085D01*
X641938Y783976D01*
X641952Y783866D01*
X641962Y783755D01*
X641968Y783645D01*
X641970Y783534D01*
X641971Y783534D02*
X641971Y778566D01*
X641970Y778566D02*
X641968Y778455D01*
X641962Y778345D01*
X641952Y778234D01*
X641938Y778124D01*
X641921Y778015D01*
X641899Y777906D01*
X641874Y777798D01*
X641844Y777692D01*
X641811Y777586D01*
X641774Y777481D01*
X641734Y777378D01*
X641689Y777277D01*
X641642Y777177D01*
X641590Y777078D01*
X641535Y776982D01*
X641477Y776888D01*
X641416Y776796D01*
X641351Y776706D01*
X641283Y776618D01*
X641212Y776533D01*
X641138Y776451D01*
X641061Y776371D01*
X640981Y776294D01*
X640899Y776220D01*
X640814Y776149D01*
X640726Y776081D01*
X640636Y776016D01*
X640544Y775955D01*
X640450Y775897D01*
X640354Y775842D01*
X640255Y775790D01*
X640155Y775743D01*
X640054Y775698D01*
X639951Y775658D01*
X639846Y775621D01*
X639740Y775588D01*
X639634Y775558D01*
X639526Y775533D01*
X639417Y775511D01*
X639308Y775494D01*
X639198Y775480D01*
X639087Y775470D01*
X638977Y775464D01*
X638866Y775462D01*
X635762Y775462D01*
X647573Y784154D02*
X650677Y786638D01*
X650677Y775462D01*
X647573Y775462D02*
X653782Y775462D01*
D10*
X554100Y767000D02*
X538100Y767000D01*
X538100Y757000D02*
X554100Y757000D01*
X548100Y760000D02*
X548100Y764000D01*
D11*
X534162Y775462D02*
X534162Y786638D01*
X537266Y786638D01*
X537377Y786636D01*
X537487Y786630D01*
X537598Y786620D01*
X537708Y786606D01*
X537817Y786589D01*
X537926Y786567D01*
X538034Y786542D01*
X538140Y786512D01*
X538246Y786479D01*
X538351Y786442D01*
X538454Y786402D01*
X538555Y786357D01*
X538655Y786310D01*
X538754Y786258D01*
X538850Y786203D01*
X538944Y786145D01*
X539036Y786084D01*
X539126Y786019D01*
X539214Y785951D01*
X539299Y785880D01*
X539381Y785806D01*
X539461Y785729D01*
X539538Y785649D01*
X539612Y785567D01*
X539683Y785482D01*
X539751Y785394D01*
X539816Y785304D01*
X539877Y785212D01*
X539935Y785118D01*
X539990Y785022D01*
X540042Y784923D01*
X540089Y784823D01*
X540134Y784722D01*
X540174Y784619D01*
X540211Y784514D01*
X540244Y784408D01*
X540274Y784302D01*
X540299Y784194D01*
X540321Y784085D01*
X540338Y783976D01*
X540352Y783866D01*
X540362Y783755D01*
X540368Y783645D01*
X540370Y783534D01*
X540371Y783534D02*
X540371Y778566D01*
X540370Y778566D02*
X540368Y778455D01*
X540362Y778345D01*
X540352Y778234D01*
X540338Y778124D01*
X540321Y778015D01*
X540299Y777906D01*
X540274Y777798D01*
X540244Y777692D01*
X540211Y777586D01*
X540174Y777481D01*
X540134Y777378D01*
X540089Y777277D01*
X540042Y777177D01*
X539990Y777078D01*
X539935Y776982D01*
X539877Y776888D01*
X539816Y776796D01*
X539751Y776706D01*
X539683Y776618D01*
X539612Y776533D01*
X539538Y776451D01*
X539461Y776371D01*
X539381Y776294D01*
X539299Y776220D01*
X539214Y776149D01*
X539126Y776081D01*
X539036Y776016D01*
X538944Y775955D01*
X538850Y775897D01*
X538754Y775842D01*
X538655Y775790D01*
X538555Y775743D01*
X538454Y775698D01*
X538351Y775658D01*
X538246Y775621D01*
X538140Y775588D01*
X538034Y775558D01*
X537926Y775533D01*
X537817Y775511D01*
X537708Y775494D01*
X537598Y775480D01*
X537487Y775470D01*
X537377Y775464D01*
X537266Y775462D01*
X534162Y775462D01*
X549388Y786638D02*
X549492Y786636D01*
X549597Y786630D01*
X549701Y786620D01*
X549804Y786607D01*
X549907Y786589D01*
X550010Y786568D01*
X550111Y786543D01*
X550212Y786514D01*
X550311Y786481D01*
X550409Y786445D01*
X550505Y786405D01*
X550600Y786361D01*
X550694Y786314D01*
X550785Y786264D01*
X550874Y786210D01*
X550962Y786153D01*
X551047Y786092D01*
X551130Y786028D01*
X551210Y785962D01*
X551288Y785892D01*
X551364Y785820D01*
X551436Y785744D01*
X551506Y785666D01*
X551572Y785586D01*
X551636Y785503D01*
X551697Y785418D01*
X551754Y785330D01*
X551808Y785241D01*
X551858Y785150D01*
X551905Y785056D01*
X551949Y784961D01*
X551989Y784865D01*
X552025Y784767D01*
X552058Y784668D01*
X552087Y784567D01*
X552112Y784466D01*
X552133Y784363D01*
X552151Y784260D01*
X552164Y784157D01*
X552174Y784053D01*
X552180Y783948D01*
X552182Y783844D01*
X549388Y786639D02*
X549269Y786637D01*
X549151Y786631D01*
X549032Y786621D01*
X548914Y786608D01*
X548797Y786590D01*
X548680Y786568D01*
X548564Y786543D01*
X548449Y786514D01*
X548334Y786481D01*
X548221Y786444D01*
X548110Y786404D01*
X547999Y786360D01*
X547891Y786312D01*
X547784Y786261D01*
X547678Y786206D01*
X547575Y786147D01*
X547473Y786086D01*
X547374Y786021D01*
X547276Y785952D01*
X547182Y785881D01*
X547089Y785806D01*
X546999Y785729D01*
X546912Y785648D01*
X546827Y785565D01*
X546745Y785479D01*
X546666Y785390D01*
X546590Y785299D01*
X546517Y785205D01*
X546448Y785109D01*
X546381Y785010D01*
X546318Y784910D01*
X546258Y784807D01*
X546201Y784703D01*
X546149Y784596D01*
X546099Y784488D01*
X546053Y784379D01*
X546011Y784267D01*
X545973Y784155D01*
X551251Y781671D02*
X551326Y781745D01*
X551398Y781822D01*
X551468Y781901D01*
X551535Y781983D01*
X551599Y782067D01*
X551660Y782153D01*
X551718Y782241D01*
X551773Y782332D01*
X551825Y782424D01*
X551873Y782518D01*
X551918Y782613D01*
X551960Y782711D01*
X551998Y782809D01*
X552033Y782909D01*
X552064Y783010D01*
X552091Y783112D01*
X552115Y783215D01*
X552136Y783318D01*
X552152Y783423D01*
X552165Y783528D01*
X552175Y783633D01*
X552180Y783738D01*
X552182Y783844D01*
X551251Y781671D02*
X545973Y775462D01*
X552182Y775462D01*
D10*
X452500Y767000D02*
X436500Y767000D01*
X436500Y757000D02*
X452500Y757000D01*
X446500Y760000D02*
X446500Y764000D01*
D11*
X432562Y775462D02*
X432562Y786638D01*
X435666Y786638D01*
X435777Y786636D01*
X435887Y786630D01*
X435998Y786620D01*
X436108Y786606D01*
X436217Y786589D01*
X436326Y786567D01*
X436434Y786542D01*
X436540Y786512D01*
X436646Y786479D01*
X436751Y786442D01*
X436854Y786402D01*
X436955Y786357D01*
X437055Y786310D01*
X437154Y786258D01*
X437250Y786203D01*
X437344Y786145D01*
X437436Y786084D01*
X437526Y786019D01*
X437614Y785951D01*
X437699Y785880D01*
X437781Y785806D01*
X437861Y785729D01*
X437938Y785649D01*
X438012Y785567D01*
X438083Y785482D01*
X438151Y785394D01*
X438216Y785304D01*
X438277Y785212D01*
X438335Y785118D01*
X438390Y785022D01*
X438442Y784923D01*
X438489Y784823D01*
X438534Y784722D01*
X438574Y784619D01*
X438611Y784514D01*
X438644Y784408D01*
X438674Y784302D01*
X438699Y784194D01*
X438721Y784085D01*
X438738Y783976D01*
X438752Y783866D01*
X438762Y783755D01*
X438768Y783645D01*
X438770Y783534D01*
X438771Y783534D02*
X438771Y778566D01*
X438770Y778566D02*
X438768Y778455D01*
X438762Y778345D01*
X438752Y778234D01*
X438738Y778124D01*
X438721Y778015D01*
X438699Y777906D01*
X438674Y777798D01*
X438644Y777692D01*
X438611Y777586D01*
X438574Y777481D01*
X438534Y777378D01*
X438489Y777277D01*
X438442Y777177D01*
X438390Y777078D01*
X438335Y776982D01*
X438277Y776888D01*
X438216Y776796D01*
X438151Y776706D01*
X438083Y776618D01*
X438012Y776533D01*
X437938Y776451D01*
X437861Y776371D01*
X437781Y776294D01*
X437699Y776220D01*
X437614Y776149D01*
X437526Y776081D01*
X437436Y776016D01*
X437344Y775955D01*
X437250Y775897D01*
X437154Y775842D01*
X437055Y775790D01*
X436955Y775743D01*
X436854Y775698D01*
X436751Y775658D01*
X436646Y775621D01*
X436540Y775588D01*
X436434Y775558D01*
X436326Y775533D01*
X436217Y775511D01*
X436108Y775494D01*
X435998Y775480D01*
X435887Y775470D01*
X435777Y775464D01*
X435666Y775462D01*
X432562Y775462D01*
X444373Y775462D02*
X447477Y775462D01*
X447588Y775464D01*
X447698Y775470D01*
X447809Y775480D01*
X447919Y775494D01*
X448028Y775511D01*
X448137Y775533D01*
X448245Y775558D01*
X448351Y775588D01*
X448457Y775621D01*
X448562Y775658D01*
X448665Y775698D01*
X448766Y775743D01*
X448866Y775790D01*
X448965Y775842D01*
X449061Y775897D01*
X449155Y775955D01*
X449247Y776016D01*
X449337Y776081D01*
X449425Y776149D01*
X449510Y776220D01*
X449592Y776294D01*
X449672Y776371D01*
X449749Y776451D01*
X449823Y776533D01*
X449894Y776618D01*
X449962Y776706D01*
X450027Y776796D01*
X450088Y776888D01*
X450146Y776982D01*
X450201Y777078D01*
X450253Y777177D01*
X450300Y777277D01*
X450345Y777378D01*
X450385Y777481D01*
X450422Y777586D01*
X450455Y777692D01*
X450485Y777798D01*
X450510Y777906D01*
X450532Y778015D01*
X450549Y778124D01*
X450563Y778234D01*
X450573Y778345D01*
X450579Y778455D01*
X450581Y778566D01*
X450579Y778677D01*
X450573Y778787D01*
X450563Y778898D01*
X450549Y779008D01*
X450532Y779117D01*
X450510Y779226D01*
X450485Y779334D01*
X450455Y779440D01*
X450422Y779546D01*
X450385Y779651D01*
X450345Y779754D01*
X450300Y779855D01*
X450253Y779955D01*
X450201Y780054D01*
X450146Y780150D01*
X450088Y780244D01*
X450027Y780336D01*
X449962Y780426D01*
X449894Y780514D01*
X449823Y780599D01*
X449749Y780681D01*
X449672Y780761D01*
X449592Y780838D01*
X449510Y780912D01*
X449425Y780983D01*
X449337Y781051D01*
X449247Y781116D01*
X449155Y781177D01*
X449061Y781235D01*
X448965Y781290D01*
X448866Y781342D01*
X448766Y781389D01*
X448665Y781434D01*
X448562Y781474D01*
X448457Y781511D01*
X448351Y781544D01*
X448245Y781574D01*
X448137Y781599D01*
X448028Y781621D01*
X447919Y781638D01*
X447809Y781652D01*
X447698Y781662D01*
X447588Y781668D01*
X447477Y781670D01*
X448098Y786638D02*
X444373Y786638D01*
X448098Y786638D02*
X448197Y786636D01*
X448295Y786630D01*
X448394Y786620D01*
X448491Y786607D01*
X448589Y786589D01*
X448685Y786568D01*
X448781Y786542D01*
X448875Y786513D01*
X448968Y786481D01*
X449060Y786444D01*
X449150Y786404D01*
X449239Y786360D01*
X449326Y786313D01*
X449411Y786263D01*
X449493Y786209D01*
X449574Y786152D01*
X449652Y786092D01*
X449728Y786028D01*
X449801Y785962D01*
X449872Y785893D01*
X449940Y785821D01*
X450004Y785746D01*
X450066Y785669D01*
X450125Y785590D01*
X450180Y785508D01*
X450233Y785424D01*
X450281Y785339D01*
X450327Y785251D01*
X450369Y785161D01*
X450407Y785070D01*
X450441Y784978D01*
X450472Y784884D01*
X450499Y784789D01*
X450523Y784693D01*
X450542Y784596D01*
X450558Y784499D01*
X450570Y784401D01*
X450578Y784302D01*
X450582Y784203D01*
X450582Y784105D01*
X450578Y784006D01*
X450570Y783907D01*
X450558Y783809D01*
X450542Y783712D01*
X450523Y783615D01*
X450499Y783519D01*
X450472Y783424D01*
X450441Y783330D01*
X450407Y783238D01*
X450369Y783147D01*
X450327Y783057D01*
X450281Y782969D01*
X450233Y782884D01*
X450180Y782800D01*
X450125Y782718D01*
X450066Y782639D01*
X450004Y782562D01*
X449940Y782487D01*
X449872Y782415D01*
X449801Y782346D01*
X449728Y782280D01*
X449652Y782216D01*
X449574Y782156D01*
X449493Y782099D01*
X449411Y782045D01*
X449326Y781995D01*
X449239Y781948D01*
X449150Y781904D01*
X449060Y781864D01*
X448968Y781827D01*
X448875Y781795D01*
X448781Y781766D01*
X448685Y781740D01*
X448589Y781719D01*
X448491Y781701D01*
X448394Y781688D01*
X448295Y781678D01*
X448197Y781672D01*
X448098Y781670D01*
X448098Y781671D02*
X445615Y781671D01*
D10*
X775500Y100800D02*
X775500Y50800D01*
X775500Y140800D02*
X775500Y175800D01*
X875500Y175800D01*
X875500Y140800D01*
X875500Y100800D02*
X875500Y50800D01*
X865500Y50800D01*
X785500Y50800D02*
X775500Y50800D01*
X795500Y120800D02*
X795509Y121536D01*
X795536Y122272D01*
X795581Y123007D01*
X795644Y123741D01*
X795726Y124472D01*
X795825Y125202D01*
X795942Y125929D01*
X796076Y126653D01*
X796229Y127373D01*
X796399Y128089D01*
X796587Y128801D01*
X796792Y129509D01*
X797014Y130210D01*
X797254Y130907D01*
X797510Y131597D01*
X797784Y132281D01*
X798074Y132957D01*
X798380Y133627D01*
X798703Y134288D01*
X799042Y134942D01*
X799397Y135587D01*
X799768Y136223D01*
X800154Y136850D01*
X800556Y137467D01*
X800972Y138074D01*
X801404Y138671D01*
X801850Y139257D01*
X802310Y139832D01*
X802784Y140395D01*
X803271Y140947D01*
X803773Y141486D01*
X804287Y142013D01*
X804814Y142527D01*
X805353Y143029D01*
X805905Y143516D01*
X806468Y143990D01*
X807043Y144450D01*
X807629Y144896D01*
X808226Y145328D01*
X808833Y145744D01*
X809450Y146146D01*
X810077Y146532D01*
X810713Y146903D01*
X811358Y147258D01*
X812012Y147597D01*
X812673Y147920D01*
X813343Y148226D01*
X814019Y148516D01*
X814703Y148790D01*
X815393Y149046D01*
X816090Y149286D01*
X816791Y149508D01*
X817499Y149713D01*
X818211Y149901D01*
X818927Y150071D01*
X819647Y150224D01*
X820371Y150358D01*
X821098Y150475D01*
X821828Y150574D01*
X822559Y150656D01*
X823293Y150719D01*
X824028Y150764D01*
X824764Y150791D01*
X825500Y150800D01*
X826236Y150791D01*
X826972Y150764D01*
X827707Y150719D01*
X828441Y150656D01*
X829172Y150574D01*
X829902Y150475D01*
X830629Y150358D01*
X831353Y150224D01*
X832073Y150071D01*
X832789Y149901D01*
X833501Y149713D01*
X834209Y149508D01*
X834910Y149286D01*
X835607Y149046D01*
X836297Y148790D01*
X836981Y148516D01*
X837657Y148226D01*
X838327Y147920D01*
X838988Y147597D01*
X839642Y147258D01*
X840287Y146903D01*
X840923Y146532D01*
X841550Y146146D01*
X842167Y145744D01*
X842774Y145328D01*
X843371Y144896D01*
X843957Y144450D01*
X844532Y143990D01*
X845095Y143516D01*
X845647Y143029D01*
X846186Y142527D01*
X846713Y142013D01*
X847227Y141486D01*
X847729Y140947D01*
X848216Y140395D01*
X848690Y139832D01*
X849150Y139257D01*
X849596Y138671D01*
X850028Y138074D01*
X850444Y137467D01*
X850846Y136850D01*
X851232Y136223D01*
X851603Y135587D01*
X851958Y134942D01*
X852297Y134288D01*
X852620Y133627D01*
X852926Y132957D01*
X853216Y132281D01*
X853490Y131597D01*
X853746Y130907D01*
X853986Y130210D01*
X854208Y129509D01*
X854413Y128801D01*
X854601Y128089D01*
X854771Y127373D01*
X854924Y126653D01*
X855058Y125929D01*
X855175Y125202D01*
X855274Y124472D01*
X855356Y123741D01*
X855419Y123007D01*
X855464Y122272D01*
X855491Y121536D01*
X855500Y120800D01*
X855491Y120064D01*
X855464Y119328D01*
X855419Y118593D01*
X855356Y117859D01*
X855274Y117128D01*
X855175Y116398D01*
X855058Y115671D01*
X854924Y114947D01*
X854771Y114227D01*
X854601Y113511D01*
X854413Y112799D01*
X854208Y112091D01*
X853986Y111390D01*
X853746Y110693D01*
X853490Y110003D01*
X853216Y109319D01*
X852926Y108643D01*
X852620Y107973D01*
X852297Y107312D01*
X851958Y106658D01*
X851603Y106013D01*
X851232Y105377D01*
X850846Y104750D01*
X850444Y104133D01*
X850028Y103526D01*
X849596Y102929D01*
X849150Y102343D01*
X848690Y101768D01*
X848216Y101205D01*
X847729Y100653D01*
X847227Y100114D01*
X846713Y99587D01*
X846186Y99073D01*
X845647Y98571D01*
X845095Y98084D01*
X844532Y97610D01*
X843957Y97150D01*
X843371Y96704D01*
X842774Y96272D01*
X842167Y95856D01*
X841550Y95454D01*
X840923Y95068D01*
X840287Y94697D01*
X839642Y94342D01*
X838988Y94003D01*
X838327Y93680D01*
X837657Y93374D01*
X836981Y93084D01*
X836297Y92810D01*
X835607Y92554D01*
X834910Y92314D01*
X834209Y92092D01*
X833501Y91887D01*
X832789Y91699D01*
X832073Y91529D01*
X831353Y91376D01*
X830629Y91242D01*
X829902Y91125D01*
X829172Y91026D01*
X828441Y90944D01*
X827707Y90881D01*
X826972Y90836D01*
X826236Y90809D01*
X825500Y90800D01*
X824764Y90809D01*
X824028Y90836D01*
X823293Y90881D01*
X822559Y90944D01*
X821828Y91026D01*
X821098Y91125D01*
X820371Y91242D01*
X819647Y91376D01*
X818927Y91529D01*
X818211Y91699D01*
X817499Y91887D01*
X816791Y92092D01*
X816090Y92314D01*
X815393Y92554D01*
X814703Y92810D01*
X814019Y93084D01*
X813343Y93374D01*
X812673Y93680D01*
X812012Y94003D01*
X811358Y94342D01*
X810713Y94697D01*
X810077Y95068D01*
X809450Y95454D01*
X808833Y95856D01*
X808226Y96272D01*
X807629Y96704D01*
X807043Y97150D01*
X806468Y97610D01*
X805905Y98084D01*
X805353Y98571D01*
X804814Y99073D01*
X804287Y99587D01*
X803773Y100114D01*
X803271Y100653D01*
X802784Y101205D01*
X802310Y101768D01*
X801850Y102343D01*
X801404Y102929D01*
X800972Y103526D01*
X800556Y104133D01*
X800154Y104750D01*
X799768Y105377D01*
X799397Y106013D01*
X799042Y106658D01*
X798703Y107312D01*
X798380Y107973D01*
X798074Y108643D01*
X797784Y109319D01*
X797510Y110003D01*
X797254Y110693D01*
X797014Y111390D01*
X796792Y112091D01*
X796587Y112799D01*
X796399Y113511D01*
X796229Y114227D01*
X796076Y114947D01*
X795942Y115671D01*
X795825Y116398D01*
X795726Y117128D01*
X795644Y117859D01*
X795581Y118593D01*
X795536Y119328D01*
X795509Y120064D01*
X795500Y120800D01*
D11*
X775462Y178562D02*
X775462Y189738D01*
X778566Y189738D01*
X778677Y189736D01*
X778787Y189730D01*
X778898Y189720D01*
X779008Y189706D01*
X779117Y189689D01*
X779226Y189667D01*
X779334Y189642D01*
X779440Y189612D01*
X779546Y189579D01*
X779651Y189542D01*
X779754Y189502D01*
X779855Y189457D01*
X779955Y189410D01*
X780054Y189358D01*
X780150Y189303D01*
X780244Y189245D01*
X780336Y189184D01*
X780426Y189119D01*
X780514Y189051D01*
X780599Y188980D01*
X780681Y188906D01*
X780761Y188829D01*
X780838Y188749D01*
X780912Y188667D01*
X780983Y188582D01*
X781051Y188494D01*
X781116Y188404D01*
X781177Y188312D01*
X781235Y188218D01*
X781290Y188122D01*
X781342Y188023D01*
X781389Y187923D01*
X781434Y187822D01*
X781474Y187719D01*
X781511Y187614D01*
X781544Y187508D01*
X781574Y187402D01*
X781599Y187294D01*
X781621Y187185D01*
X781638Y187076D01*
X781652Y186966D01*
X781662Y186855D01*
X781668Y186745D01*
X781670Y186634D01*
X781668Y186523D01*
X781662Y186413D01*
X781652Y186302D01*
X781638Y186192D01*
X781621Y186083D01*
X781599Y185974D01*
X781574Y185866D01*
X781544Y185760D01*
X781511Y185654D01*
X781474Y185549D01*
X781434Y185446D01*
X781389Y185345D01*
X781342Y185245D01*
X781290Y185146D01*
X781235Y185050D01*
X781177Y184956D01*
X781116Y184864D01*
X781051Y184774D01*
X780983Y184686D01*
X780912Y184601D01*
X780838Y184519D01*
X780761Y184439D01*
X780681Y184362D01*
X780599Y184288D01*
X780514Y184217D01*
X780426Y184149D01*
X780336Y184084D01*
X780244Y184023D01*
X780150Y183965D01*
X780054Y183910D01*
X779955Y183858D01*
X779855Y183811D01*
X779754Y183766D01*
X779651Y183726D01*
X779546Y183689D01*
X779440Y183656D01*
X779334Y183626D01*
X779226Y183601D01*
X779117Y183579D01*
X779008Y183562D01*
X778898Y183548D01*
X778787Y183538D01*
X778677Y183532D01*
X778566Y183530D01*
X778566Y183529D02*
X775462Y183529D01*
X779187Y183529D02*
X781671Y178562D01*
X786800Y187254D02*
X789904Y189738D01*
X789904Y178562D01*
X786800Y178562D02*
X793009Y178562D01*
D10*
X204000Y100800D02*
X204000Y50800D01*
X204000Y140800D02*
X204000Y175800D01*
X304000Y175800D01*
X304000Y140800D01*
X304000Y100800D02*
X304000Y50800D01*
X294000Y50800D01*
X214000Y50800D02*
X204000Y50800D01*
X224000Y120800D02*
X224009Y121536D01*
X224036Y122272D01*
X224081Y123007D01*
X224144Y123741D01*
X224226Y124472D01*
X224325Y125202D01*
X224442Y125929D01*
X224576Y126653D01*
X224729Y127373D01*
X224899Y128089D01*
X225087Y128801D01*
X225292Y129509D01*
X225514Y130210D01*
X225754Y130907D01*
X226010Y131597D01*
X226284Y132281D01*
X226574Y132957D01*
X226880Y133627D01*
X227203Y134288D01*
X227542Y134942D01*
X227897Y135587D01*
X228268Y136223D01*
X228654Y136850D01*
X229056Y137467D01*
X229472Y138074D01*
X229904Y138671D01*
X230350Y139257D01*
X230810Y139832D01*
X231284Y140395D01*
X231771Y140947D01*
X232273Y141486D01*
X232787Y142013D01*
X233314Y142527D01*
X233853Y143029D01*
X234405Y143516D01*
X234968Y143990D01*
X235543Y144450D01*
X236129Y144896D01*
X236726Y145328D01*
X237333Y145744D01*
X237950Y146146D01*
X238577Y146532D01*
X239213Y146903D01*
X239858Y147258D01*
X240512Y147597D01*
X241173Y147920D01*
X241843Y148226D01*
X242519Y148516D01*
X243203Y148790D01*
X243893Y149046D01*
X244590Y149286D01*
X245291Y149508D01*
X245999Y149713D01*
X246711Y149901D01*
X247427Y150071D01*
X248147Y150224D01*
X248871Y150358D01*
X249598Y150475D01*
X250328Y150574D01*
X251059Y150656D01*
X251793Y150719D01*
X252528Y150764D01*
X253264Y150791D01*
X254000Y150800D01*
X254736Y150791D01*
X255472Y150764D01*
X256207Y150719D01*
X256941Y150656D01*
X257672Y150574D01*
X258402Y150475D01*
X259129Y150358D01*
X259853Y150224D01*
X260573Y150071D01*
X261289Y149901D01*
X262001Y149713D01*
X262709Y149508D01*
X263410Y149286D01*
X264107Y149046D01*
X264797Y148790D01*
X265481Y148516D01*
X266157Y148226D01*
X266827Y147920D01*
X267488Y147597D01*
X268142Y147258D01*
X268787Y146903D01*
X269423Y146532D01*
X270050Y146146D01*
X270667Y145744D01*
X271274Y145328D01*
X271871Y144896D01*
X272457Y144450D01*
X273032Y143990D01*
X273595Y143516D01*
X274147Y143029D01*
X274686Y142527D01*
X275213Y142013D01*
X275727Y141486D01*
X276229Y140947D01*
X276716Y140395D01*
X277190Y139832D01*
X277650Y139257D01*
X278096Y138671D01*
X278528Y138074D01*
X278944Y137467D01*
X279346Y136850D01*
X279732Y136223D01*
X280103Y135587D01*
X280458Y134942D01*
X280797Y134288D01*
X281120Y133627D01*
X281426Y132957D01*
X281716Y132281D01*
X281990Y131597D01*
X282246Y130907D01*
X282486Y130210D01*
X282708Y129509D01*
X282913Y128801D01*
X283101Y128089D01*
X283271Y127373D01*
X283424Y126653D01*
X283558Y125929D01*
X283675Y125202D01*
X283774Y124472D01*
X283856Y123741D01*
X283919Y123007D01*
X283964Y122272D01*
X283991Y121536D01*
X284000Y120800D01*
X283991Y120064D01*
X283964Y119328D01*
X283919Y118593D01*
X283856Y117859D01*
X283774Y117128D01*
X283675Y116398D01*
X283558Y115671D01*
X283424Y114947D01*
X283271Y114227D01*
X283101Y113511D01*
X282913Y112799D01*
X282708Y112091D01*
X282486Y111390D01*
X282246Y110693D01*
X281990Y110003D01*
X281716Y109319D01*
X281426Y108643D01*
X281120Y107973D01*
X280797Y107312D01*
X280458Y106658D01*
X280103Y106013D01*
X279732Y105377D01*
X279346Y104750D01*
X278944Y104133D01*
X278528Y103526D01*
X278096Y102929D01*
X277650Y102343D01*
X277190Y101768D01*
X276716Y101205D01*
X276229Y100653D01*
X275727Y100114D01*
X275213Y99587D01*
X274686Y99073D01*
X274147Y98571D01*
X273595Y98084D01*
X273032Y97610D01*
X272457Y97150D01*
X271871Y96704D01*
X271274Y96272D01*
X270667Y95856D01*
X270050Y95454D01*
X269423Y95068D01*
X268787Y94697D01*
X268142Y94342D01*
X267488Y94003D01*
X266827Y93680D01*
X266157Y93374D01*
X265481Y93084D01*
X264797Y92810D01*
X264107Y92554D01*
X263410Y92314D01*
X262709Y92092D01*
X262001Y91887D01*
X261289Y91699D01*
X260573Y91529D01*
X259853Y91376D01*
X259129Y91242D01*
X258402Y91125D01*
X257672Y91026D01*
X256941Y90944D01*
X256207Y90881D01*
X255472Y90836D01*
X254736Y90809D01*
X254000Y90800D01*
X253264Y90809D01*
X252528Y90836D01*
X251793Y90881D01*
X251059Y90944D01*
X250328Y91026D01*
X249598Y91125D01*
X248871Y91242D01*
X248147Y91376D01*
X247427Y91529D01*
X246711Y91699D01*
X245999Y91887D01*
X245291Y92092D01*
X244590Y92314D01*
X243893Y92554D01*
X243203Y92810D01*
X242519Y93084D01*
X241843Y93374D01*
X241173Y93680D01*
X240512Y94003D01*
X239858Y94342D01*
X239213Y94697D01*
X238577Y95068D01*
X237950Y95454D01*
X237333Y95856D01*
X236726Y96272D01*
X236129Y96704D01*
X235543Y97150D01*
X234968Y97610D01*
X234405Y98084D01*
X233853Y98571D01*
X233314Y99073D01*
X232787Y99587D01*
X232273Y100114D01*
X231771Y100653D01*
X231284Y101205D01*
X230810Y101768D01*
X230350Y102343D01*
X229904Y102929D01*
X229472Y103526D01*
X229056Y104133D01*
X228654Y104750D01*
X228268Y105377D01*
X227897Y106013D01*
X227542Y106658D01*
X227203Y107312D01*
X226880Y107973D01*
X226574Y108643D01*
X226284Y109319D01*
X226010Y110003D01*
X225754Y110693D01*
X225514Y111390D01*
X225292Y112091D01*
X225087Y112799D01*
X224899Y113511D01*
X224729Y114227D01*
X224576Y114947D01*
X224442Y115671D01*
X224325Y116398D01*
X224226Y117128D01*
X224144Y117859D01*
X224081Y118593D01*
X224036Y119328D01*
X224009Y120064D01*
X224000Y120800D01*
D11*
X203962Y178562D02*
X203962Y189738D01*
X207066Y189738D01*
X207177Y189736D01*
X207287Y189730D01*
X207398Y189720D01*
X207508Y189706D01*
X207617Y189689D01*
X207726Y189667D01*
X207834Y189642D01*
X207940Y189612D01*
X208046Y189579D01*
X208151Y189542D01*
X208254Y189502D01*
X208355Y189457D01*
X208455Y189410D01*
X208554Y189358D01*
X208650Y189303D01*
X208744Y189245D01*
X208836Y189184D01*
X208926Y189119D01*
X209014Y189051D01*
X209099Y188980D01*
X209181Y188906D01*
X209261Y188829D01*
X209338Y188749D01*
X209412Y188667D01*
X209483Y188582D01*
X209551Y188494D01*
X209616Y188404D01*
X209677Y188312D01*
X209735Y188218D01*
X209790Y188122D01*
X209842Y188023D01*
X209889Y187923D01*
X209934Y187822D01*
X209974Y187719D01*
X210011Y187614D01*
X210044Y187508D01*
X210074Y187402D01*
X210099Y187294D01*
X210121Y187185D01*
X210138Y187076D01*
X210152Y186966D01*
X210162Y186855D01*
X210168Y186745D01*
X210170Y186634D01*
X210168Y186523D01*
X210162Y186413D01*
X210152Y186302D01*
X210138Y186192D01*
X210121Y186083D01*
X210099Y185974D01*
X210074Y185866D01*
X210044Y185760D01*
X210011Y185654D01*
X209974Y185549D01*
X209934Y185446D01*
X209889Y185345D01*
X209842Y185245D01*
X209790Y185146D01*
X209735Y185050D01*
X209677Y184956D01*
X209616Y184864D01*
X209551Y184774D01*
X209483Y184686D01*
X209412Y184601D01*
X209338Y184519D01*
X209261Y184439D01*
X209181Y184362D01*
X209099Y184288D01*
X209014Y184217D01*
X208926Y184149D01*
X208836Y184084D01*
X208744Y184023D01*
X208650Y183965D01*
X208554Y183910D01*
X208455Y183858D01*
X208355Y183811D01*
X208254Y183766D01*
X208151Y183726D01*
X208046Y183689D01*
X207940Y183656D01*
X207834Y183626D01*
X207726Y183601D01*
X207617Y183579D01*
X207508Y183562D01*
X207398Y183548D01*
X207287Y183538D01*
X207177Y183532D01*
X207066Y183530D01*
X207066Y183529D02*
X203962Y183529D01*
X207687Y183529D02*
X210171Y178562D01*
X218715Y189738D02*
X218819Y189736D01*
X218924Y189730D01*
X219028Y189720D01*
X219131Y189707D01*
X219234Y189689D01*
X219337Y189668D01*
X219438Y189643D01*
X219539Y189614D01*
X219638Y189581D01*
X219736Y189545D01*
X219832Y189505D01*
X219927Y189461D01*
X220021Y189414D01*
X220112Y189364D01*
X220201Y189310D01*
X220289Y189253D01*
X220374Y189192D01*
X220457Y189128D01*
X220537Y189062D01*
X220615Y188992D01*
X220691Y188920D01*
X220763Y188844D01*
X220833Y188766D01*
X220899Y188686D01*
X220963Y188603D01*
X221024Y188518D01*
X221081Y188430D01*
X221135Y188341D01*
X221185Y188250D01*
X221232Y188156D01*
X221276Y188061D01*
X221316Y187965D01*
X221352Y187867D01*
X221385Y187768D01*
X221414Y187667D01*
X221439Y187566D01*
X221460Y187463D01*
X221478Y187360D01*
X221491Y187257D01*
X221501Y187153D01*
X221507Y187048D01*
X221509Y186944D01*
X218715Y189739D02*
X218596Y189737D01*
X218478Y189731D01*
X218359Y189721D01*
X218241Y189708D01*
X218124Y189690D01*
X218007Y189668D01*
X217891Y189643D01*
X217776Y189614D01*
X217661Y189581D01*
X217548Y189544D01*
X217437Y189504D01*
X217326Y189460D01*
X217218Y189412D01*
X217111Y189361D01*
X217005Y189306D01*
X216902Y189247D01*
X216800Y189186D01*
X216701Y189121D01*
X216603Y189052D01*
X216509Y188981D01*
X216416Y188906D01*
X216326Y188829D01*
X216239Y188748D01*
X216154Y188665D01*
X216072Y188579D01*
X215993Y188490D01*
X215917Y188399D01*
X215844Y188305D01*
X215775Y188209D01*
X215708Y188110D01*
X215645Y188010D01*
X215585Y187907D01*
X215528Y187803D01*
X215476Y187696D01*
X215426Y187588D01*
X215380Y187479D01*
X215338Y187367D01*
X215300Y187255D01*
X220578Y184771D02*
X220653Y184845D01*
X220725Y184922D01*
X220795Y185001D01*
X220862Y185083D01*
X220926Y185167D01*
X220987Y185253D01*
X221045Y185341D01*
X221100Y185432D01*
X221152Y185524D01*
X221200Y185618D01*
X221245Y185713D01*
X221287Y185811D01*
X221325Y185909D01*
X221360Y186009D01*
X221391Y186110D01*
X221418Y186212D01*
X221442Y186315D01*
X221463Y186418D01*
X221479Y186523D01*
X221492Y186628D01*
X221502Y186733D01*
X221507Y186838D01*
X221509Y186944D01*
X220578Y184771D02*
X215300Y178562D01*
X221509Y178562D01*
D12*
X494500Y54300D02*
X494742Y54303D01*
X494983Y54312D01*
X495224Y54326D01*
X495465Y54347D01*
X495705Y54373D01*
X495945Y54405D01*
X496184Y54443D01*
X496421Y54486D01*
X496658Y54536D01*
X496893Y54591D01*
X497127Y54651D01*
X497359Y54718D01*
X497590Y54789D01*
X497819Y54867D01*
X498046Y54950D01*
X498271Y55038D01*
X498494Y55132D01*
X498714Y55231D01*
X498932Y55336D01*
X499147Y55445D01*
X499360Y55560D01*
X499570Y55680D01*
X499776Y55805D01*
X499980Y55935D01*
X500181Y56070D01*
X500378Y56210D01*
X500572Y56354D01*
X500762Y56503D01*
X500948Y56657D01*
X501131Y56815D01*
X501310Y56977D01*
X501485Y57144D01*
X501656Y57315D01*
X501823Y57490D01*
X501985Y57669D01*
X502143Y57852D01*
X502297Y58038D01*
X502446Y58228D01*
X502590Y58422D01*
X502730Y58619D01*
X502865Y58820D01*
X502995Y59024D01*
X503120Y59230D01*
X503240Y59440D01*
X503355Y59653D01*
X503464Y59868D01*
X503569Y60086D01*
X503668Y60306D01*
X503762Y60529D01*
X503850Y60754D01*
X503933Y60981D01*
X504011Y61210D01*
X504082Y61441D01*
X504149Y61673D01*
X504209Y61907D01*
X504264Y62142D01*
X504314Y62379D01*
X504357Y62616D01*
X504395Y62855D01*
X504427Y63095D01*
X504453Y63335D01*
X504474Y63576D01*
X504488Y63817D01*
X504497Y64058D01*
X504500Y64300D01*
X494500Y54300D02*
X394500Y54300D01*
X394258Y54303D01*
X394017Y54312D01*
X393776Y54326D01*
X393535Y54347D01*
X393295Y54373D01*
X393055Y54405D01*
X392816Y54443D01*
X392579Y54486D01*
X392342Y54536D01*
X392107Y54591D01*
X391873Y54651D01*
X391641Y54718D01*
X391410Y54789D01*
X391181Y54867D01*
X390954Y54950D01*
X390729Y55038D01*
X390506Y55132D01*
X390286Y55231D01*
X390068Y55336D01*
X389853Y55445D01*
X389640Y55560D01*
X389430Y55680D01*
X389224Y55805D01*
X389020Y55935D01*
X388819Y56070D01*
X388622Y56210D01*
X388428Y56354D01*
X388238Y56503D01*
X388052Y56657D01*
X387869Y56815D01*
X387690Y56977D01*
X387515Y57144D01*
X387344Y57315D01*
X387177Y57490D01*
X387015Y57669D01*
X386857Y57852D01*
X386703Y58038D01*
X386554Y58228D01*
X386410Y58422D01*
X386270Y58619D01*
X386135Y58820D01*
X386005Y59024D01*
X385880Y59230D01*
X385760Y59440D01*
X385645Y59653D01*
X385536Y59868D01*
X385431Y60086D01*
X385332Y60306D01*
X385238Y60529D01*
X385150Y60754D01*
X385067Y60981D01*
X384989Y61210D01*
X384918Y61441D01*
X384851Y61673D01*
X384791Y61907D01*
X384736Y62142D01*
X384686Y62379D01*
X384643Y62616D01*
X384605Y62855D01*
X384573Y63095D01*
X384547Y63335D01*
X384526Y63576D01*
X384512Y63817D01*
X384503Y64058D01*
X384500Y64300D01*
X384500Y164300D02*
X384503Y164542D01*
X384512Y164783D01*
X384526Y165024D01*
X384547Y165265D01*
X384573Y165505D01*
X384605Y165745D01*
X384643Y165984D01*
X384686Y166221D01*
X384736Y166458D01*
X384791Y166693D01*
X384851Y166927D01*
X384918Y167159D01*
X384989Y167390D01*
X385067Y167619D01*
X385150Y167846D01*
X385238Y168071D01*
X385332Y168294D01*
X385431Y168514D01*
X385536Y168732D01*
X385645Y168947D01*
X385760Y169160D01*
X385880Y169370D01*
X386005Y169576D01*
X386135Y169780D01*
X386270Y169981D01*
X386410Y170178D01*
X386554Y170372D01*
X386703Y170562D01*
X386857Y170748D01*
X387015Y170931D01*
X387177Y171110D01*
X387344Y171285D01*
X387515Y171456D01*
X387690Y171623D01*
X387869Y171785D01*
X388052Y171943D01*
X388238Y172097D01*
X388428Y172246D01*
X388622Y172390D01*
X388819Y172530D01*
X389020Y172665D01*
X389224Y172795D01*
X389430Y172920D01*
X389640Y173040D01*
X389853Y173155D01*
X390068Y173264D01*
X390286Y173369D01*
X390506Y173468D01*
X390729Y173562D01*
X390954Y173650D01*
X391181Y173733D01*
X391410Y173811D01*
X391641Y173882D01*
X391873Y173949D01*
X392107Y174009D01*
X392342Y174064D01*
X392579Y174114D01*
X392816Y174157D01*
X393055Y174195D01*
X393295Y174227D01*
X393535Y174253D01*
X393776Y174274D01*
X394017Y174288D01*
X394258Y174297D01*
X394500Y174300D01*
X494500Y174300D01*
X494742Y174297D01*
X494983Y174288D01*
X495224Y174274D01*
X495465Y174253D01*
X495705Y174227D01*
X495945Y174195D01*
X496184Y174157D01*
X496421Y174114D01*
X496658Y174064D01*
X496893Y174009D01*
X497127Y173949D01*
X497359Y173882D01*
X497590Y173811D01*
X497819Y173733D01*
X498046Y173650D01*
X498271Y173562D01*
X498494Y173468D01*
X498714Y173369D01*
X498932Y173264D01*
X499147Y173155D01*
X499360Y173040D01*
X499570Y172920D01*
X499776Y172795D01*
X499980Y172665D01*
X500181Y172530D01*
X500378Y172390D01*
X500572Y172246D01*
X500762Y172097D01*
X500948Y171943D01*
X501131Y171785D01*
X501310Y171623D01*
X501485Y171456D01*
X501656Y171285D01*
X501823Y171110D01*
X501985Y170931D01*
X502143Y170748D01*
X502297Y170562D01*
X502446Y170372D01*
X502590Y170178D01*
X502730Y169981D01*
X502865Y169780D01*
X502995Y169576D01*
X503120Y169370D01*
X503240Y169160D01*
X503355Y168947D01*
X503464Y168732D01*
X503569Y168514D01*
X503668Y168294D01*
X503762Y168071D01*
X503850Y167846D01*
X503933Y167619D01*
X504011Y167390D01*
X504082Y167159D01*
X504149Y166927D01*
X504209Y166693D01*
X504264Y166458D01*
X504314Y166221D01*
X504357Y165984D01*
X504395Y165745D01*
X504427Y165505D01*
X504453Y165265D01*
X504474Y165024D01*
X504488Y164783D01*
X504497Y164542D01*
X504500Y164300D01*
X409145Y114300D02*
X409156Y115168D01*
X409188Y116035D01*
X409241Y116901D01*
X409315Y117765D01*
X409411Y118628D01*
X409528Y119488D01*
X409666Y120344D01*
X409824Y121197D01*
X410004Y122046D01*
X410205Y122891D01*
X410426Y123730D01*
X410667Y124563D01*
X410929Y125390D01*
X411212Y126211D01*
X411514Y127024D01*
X411836Y127830D01*
X412178Y128627D01*
X412539Y129416D01*
X412920Y130196D01*
X413320Y130966D01*
X413738Y131726D01*
X414175Y132476D01*
X414630Y133215D01*
X415103Y133942D01*
X415594Y134658D01*
X416103Y135361D01*
X416628Y136052D01*
X417170Y136729D01*
X417729Y137393D01*
X418304Y138043D01*
X418894Y138679D01*
X419500Y139300D01*
X420121Y139906D01*
X420757Y140496D01*
X421407Y141071D01*
X422071Y141630D01*
X422748Y142172D01*
X423439Y142697D01*
X424142Y143206D01*
X424858Y143697D01*
X425585Y144170D01*
X426324Y144625D01*
X427074Y145062D01*
X427834Y145480D01*
X428604Y145880D01*
X429384Y146261D01*
X430173Y146622D01*
X430970Y146964D01*
X431776Y147286D01*
X432589Y147588D01*
X433410Y147871D01*
X434237Y148133D01*
X435070Y148374D01*
X435909Y148595D01*
X436754Y148796D01*
X437603Y148976D01*
X438456Y149134D01*
X439312Y149272D01*
X440172Y149389D01*
X441035Y149485D01*
X441899Y149559D01*
X442765Y149612D01*
X443632Y149644D01*
X444500Y149655D01*
X445368Y149644D01*
X446235Y149612D01*
X447101Y149559D01*
X447965Y149485D01*
X448828Y149389D01*
X449688Y149272D01*
X450544Y149134D01*
X451397Y148976D01*
X452246Y148796D01*
X453091Y148595D01*
X453930Y148374D01*
X454763Y148133D01*
X455590Y147871D01*
X456411Y147588D01*
X457224Y147286D01*
X458030Y146964D01*
X458827Y146622D01*
X459616Y146261D01*
X460396Y145880D01*
X461166Y145480D01*
X461926Y145062D01*
X462676Y144625D01*
X463415Y144170D01*
X464142Y143697D01*
X464858Y143206D01*
X465561Y142697D01*
X466252Y142172D01*
X466929Y141630D01*
X467593Y141071D01*
X468243Y140496D01*
X468879Y139906D01*
X469500Y139300D01*
X470106Y138679D01*
X470696Y138043D01*
X471271Y137393D01*
X471830Y136729D01*
X472372Y136052D01*
X472897Y135361D01*
X473406Y134658D01*
X473897Y133942D01*
X474370Y133215D01*
X474825Y132476D01*
X475262Y131726D01*
X475680Y130966D01*
X476080Y130196D01*
X476461Y129416D01*
X476822Y128627D01*
X477164Y127830D01*
X477486Y127024D01*
X477788Y126211D01*
X478071Y125390D01*
X478333Y124563D01*
X478574Y123730D01*
X478795Y122891D01*
X478996Y122046D01*
X479176Y121197D01*
X479334Y120344D01*
X479472Y119488D01*
X479589Y118628D01*
X479685Y117765D01*
X479759Y116901D01*
X479812Y116035D01*
X479844Y115168D01*
X479855Y114300D01*
X479844Y113432D01*
X479812Y112565D01*
X479759Y111699D01*
X479685Y110835D01*
X479589Y109972D01*
X479472Y109112D01*
X479334Y108256D01*
X479176Y107403D01*
X478996Y106554D01*
X478795Y105709D01*
X478574Y104870D01*
X478333Y104037D01*
X478071Y103210D01*
X477788Y102389D01*
X477486Y101576D01*
X477164Y100770D01*
X476822Y99973D01*
X476461Y99184D01*
X476080Y98404D01*
X475680Y97634D01*
X475262Y96874D01*
X474825Y96124D01*
X474370Y95385D01*
X473897Y94658D01*
X473406Y93942D01*
X472897Y93239D01*
X472372Y92548D01*
X471830Y91871D01*
X471271Y91207D01*
X470696Y90557D01*
X470106Y89921D01*
X469500Y89300D01*
X468879Y88694D01*
X468243Y88104D01*
X467593Y87529D01*
X466929Y86970D01*
X466252Y86428D01*
X465561Y85903D01*
X464858Y85394D01*
X464142Y84903D01*
X463415Y84430D01*
X462676Y83975D01*
X461926Y83538D01*
X461166Y83120D01*
X460396Y82720D01*
X459616Y82339D01*
X458827Y81978D01*
X458030Y81636D01*
X457224Y81314D01*
X456411Y81012D01*
X455590Y80729D01*
X454763Y80467D01*
X453930Y80226D01*
X453091Y80005D01*
X452246Y79804D01*
X451397Y79624D01*
X450544Y79466D01*
X449688Y79328D01*
X448828Y79211D01*
X447965Y79115D01*
X447101Y79041D01*
X446235Y78988D01*
X445368Y78956D01*
X444500Y78945D01*
X443632Y78956D01*
X442765Y78988D01*
X441899Y79041D01*
X441035Y79115D01*
X440172Y79211D01*
X439312Y79328D01*
X438456Y79466D01*
X437603Y79624D01*
X436754Y79804D01*
X435909Y80005D01*
X435070Y80226D01*
X434237Y80467D01*
X433410Y80729D01*
X432589Y81012D01*
X431776Y81314D01*
X430970Y81636D01*
X430173Y81978D01*
X429384Y82339D01*
X428604Y82720D01*
X427834Y83120D01*
X427074Y83538D01*
X426324Y83975D01*
X425585Y84430D01*
X424858Y84903D01*
X424142Y85394D01*
X423439Y85903D01*
X422748Y86428D01*
X422071Y86970D01*
X421407Y87529D01*
X420757Y88104D01*
X420121Y88694D01*
X419500Y89300D01*
X418894Y89921D01*
X418304Y90557D01*
X417729Y91207D01*
X417170Y91871D01*
X416628Y92548D01*
X416103Y93239D01*
X415594Y93942D01*
X415103Y94658D01*
X414630Y95385D01*
X414175Y96124D01*
X413738Y96874D01*
X413320Y97634D01*
X412920Y98404D01*
X412539Y99184D01*
X412178Y99973D01*
X411836Y100770D01*
X411514Y101576D01*
X411212Y102389D01*
X410929Y103210D01*
X410667Y104037D01*
X410426Y104870D01*
X410205Y105709D01*
X410004Y106554D01*
X409824Y107403D01*
X409666Y108256D01*
X409528Y109112D01*
X409411Y109972D01*
X409315Y110835D01*
X409241Y111699D01*
X409188Y112565D01*
X409156Y113432D01*
X409145Y114300D01*
X424500Y134300D02*
X464500Y134300D01*
X464500Y94300D01*
X424500Y94300D01*
X424500Y134300D01*
X384500Y151800D02*
X384500Y164300D01*
X384500Y126800D02*
X384500Y101800D01*
X384500Y76800D02*
X384500Y64300D01*
X504500Y151800D02*
X504500Y164300D01*
X504500Y126800D02*
X504500Y101800D01*
X504500Y76800D02*
X504500Y64300D01*
D11*
X398187Y178562D02*
X398284Y178564D01*
X398382Y178570D01*
X398479Y178579D01*
X398576Y178593D01*
X398672Y178610D01*
X398767Y178631D01*
X398861Y178655D01*
X398955Y178684D01*
X399047Y178716D01*
X399138Y178751D01*
X399227Y178790D01*
X399315Y178833D01*
X399401Y178879D01*
X399485Y178928D01*
X399567Y178981D01*
X399647Y179036D01*
X399725Y179095D01*
X399800Y179157D01*
X399873Y179222D01*
X399943Y179290D01*
X400011Y179360D01*
X400076Y179433D01*
X400138Y179508D01*
X400197Y179586D01*
X400252Y179666D01*
X400305Y179748D01*
X400354Y179832D01*
X400400Y179918D01*
X400443Y180006D01*
X400482Y180095D01*
X400517Y180186D01*
X400549Y180278D01*
X400578Y180372D01*
X400602Y180466D01*
X400623Y180561D01*
X400640Y180657D01*
X400654Y180754D01*
X400663Y180851D01*
X400669Y180948D01*
X400671Y181046D01*
X398187Y178562D02*
X398044Y178564D01*
X397901Y178570D01*
X397759Y178579D01*
X397617Y178593D01*
X397475Y178611D01*
X397334Y178632D01*
X397193Y178657D01*
X397053Y178686D01*
X396914Y178719D01*
X396776Y178755D01*
X396639Y178796D01*
X396503Y178840D01*
X396368Y178887D01*
X396235Y178939D01*
X396103Y178994D01*
X395973Y179052D01*
X395844Y179114D01*
X395717Y179180D01*
X395592Y179249D01*
X395469Y179321D01*
X395348Y179397D01*
X395229Y179475D01*
X395112Y179558D01*
X394997Y179643D01*
X394885Y179731D01*
X394775Y179823D01*
X394668Y179917D01*
X394563Y180014D01*
X394461Y180114D01*
X394772Y187254D02*
X394774Y187352D01*
X394780Y187449D01*
X394789Y187546D01*
X394803Y187643D01*
X394820Y187739D01*
X394841Y187834D01*
X394865Y187928D01*
X394894Y188022D01*
X394926Y188114D01*
X394961Y188205D01*
X395000Y188294D01*
X395043Y188382D01*
X395089Y188468D01*
X395138Y188552D01*
X395191Y188634D01*
X395246Y188714D01*
X395305Y188792D01*
X395367Y188867D01*
X395432Y188940D01*
X395500Y189010D01*
X395570Y189078D01*
X395643Y189143D01*
X395718Y189205D01*
X395796Y189264D01*
X395876Y189319D01*
X395958Y189372D01*
X396042Y189421D01*
X396128Y189467D01*
X396216Y189510D01*
X396305Y189549D01*
X396396Y189584D01*
X396488Y189616D01*
X396582Y189645D01*
X396676Y189669D01*
X396771Y189690D01*
X396867Y189707D01*
X396964Y189721D01*
X397061Y189730D01*
X397158Y189736D01*
X397256Y189738D01*
X397386Y189736D01*
X397516Y189731D01*
X397646Y189722D01*
X397776Y189709D01*
X397905Y189693D01*
X398034Y189673D01*
X398162Y189649D01*
X398290Y189622D01*
X398416Y189591D01*
X398542Y189557D01*
X398667Y189519D01*
X398790Y189478D01*
X398913Y189433D01*
X399034Y189385D01*
X399154Y189334D01*
X399272Y189279D01*
X399388Y189221D01*
X399503Y189160D01*
X399617Y189095D01*
X399728Y189028D01*
X399837Y188957D01*
X399945Y188883D01*
X400050Y188807D01*
X396015Y185081D02*
X395932Y185132D01*
X395851Y185186D01*
X395773Y185243D01*
X395697Y185303D01*
X395623Y185366D01*
X395552Y185432D01*
X395483Y185500D01*
X395417Y185571D01*
X395353Y185644D01*
X395293Y185720D01*
X395236Y185798D01*
X395181Y185879D01*
X395130Y185961D01*
X395082Y186045D01*
X395037Y186131D01*
X394995Y186219D01*
X394957Y186308D01*
X394923Y186398D01*
X394891Y186490D01*
X394864Y186583D01*
X394840Y186677D01*
X394819Y186772D01*
X394803Y186868D01*
X394790Y186964D01*
X394780Y187060D01*
X394775Y187157D01*
X394773Y187254D01*
X399428Y183219D02*
X399511Y183168D01*
X399592Y183114D01*
X399670Y183057D01*
X399746Y182997D01*
X399820Y182934D01*
X399891Y182868D01*
X399960Y182800D01*
X400026Y182729D01*
X400090Y182656D01*
X400150Y182580D01*
X400207Y182502D01*
X400262Y182421D01*
X400313Y182339D01*
X400361Y182255D01*
X400406Y182169D01*
X400448Y182081D01*
X400486Y181992D01*
X400520Y181902D01*
X400552Y181810D01*
X400579Y181717D01*
X400603Y181623D01*
X400624Y181528D01*
X400640Y181432D01*
X400653Y181336D01*
X400663Y181240D01*
X400668Y181143D01*
X400670Y181046D01*
X399429Y183219D02*
X396014Y185081D01*
X405172Y189738D02*
X407656Y178562D01*
X410139Y186013D01*
X412623Y178562D01*
X415107Y189738D01*
X419989Y187254D02*
X423093Y189738D01*
X423093Y178562D01*
X419989Y178562D02*
X426198Y178562D01*
D12*
X685000Y54300D02*
X685242Y54303D01*
X685483Y54312D01*
X685724Y54326D01*
X685965Y54347D01*
X686205Y54373D01*
X686445Y54405D01*
X686684Y54443D01*
X686921Y54486D01*
X687158Y54536D01*
X687393Y54591D01*
X687627Y54651D01*
X687859Y54718D01*
X688090Y54789D01*
X688319Y54867D01*
X688546Y54950D01*
X688771Y55038D01*
X688994Y55132D01*
X689214Y55231D01*
X689432Y55336D01*
X689647Y55445D01*
X689860Y55560D01*
X690070Y55680D01*
X690276Y55805D01*
X690480Y55935D01*
X690681Y56070D01*
X690878Y56210D01*
X691072Y56354D01*
X691262Y56503D01*
X691448Y56657D01*
X691631Y56815D01*
X691810Y56977D01*
X691985Y57144D01*
X692156Y57315D01*
X692323Y57490D01*
X692485Y57669D01*
X692643Y57852D01*
X692797Y58038D01*
X692946Y58228D01*
X693090Y58422D01*
X693230Y58619D01*
X693365Y58820D01*
X693495Y59024D01*
X693620Y59230D01*
X693740Y59440D01*
X693855Y59653D01*
X693964Y59868D01*
X694069Y60086D01*
X694168Y60306D01*
X694262Y60529D01*
X694350Y60754D01*
X694433Y60981D01*
X694511Y61210D01*
X694582Y61441D01*
X694649Y61673D01*
X694709Y61907D01*
X694764Y62142D01*
X694814Y62379D01*
X694857Y62616D01*
X694895Y62855D01*
X694927Y63095D01*
X694953Y63335D01*
X694974Y63576D01*
X694988Y63817D01*
X694997Y64058D01*
X695000Y64300D01*
X685000Y54300D02*
X585000Y54300D01*
X584758Y54303D01*
X584517Y54312D01*
X584276Y54326D01*
X584035Y54347D01*
X583795Y54373D01*
X583555Y54405D01*
X583316Y54443D01*
X583079Y54486D01*
X582842Y54536D01*
X582607Y54591D01*
X582373Y54651D01*
X582141Y54718D01*
X581910Y54789D01*
X581681Y54867D01*
X581454Y54950D01*
X581229Y55038D01*
X581006Y55132D01*
X580786Y55231D01*
X580568Y55336D01*
X580353Y55445D01*
X580140Y55560D01*
X579930Y55680D01*
X579724Y55805D01*
X579520Y55935D01*
X579319Y56070D01*
X579122Y56210D01*
X578928Y56354D01*
X578738Y56503D01*
X578552Y56657D01*
X578369Y56815D01*
X578190Y56977D01*
X578015Y57144D01*
X577844Y57315D01*
X577677Y57490D01*
X577515Y57669D01*
X577357Y57852D01*
X577203Y58038D01*
X577054Y58228D01*
X576910Y58422D01*
X576770Y58619D01*
X576635Y58820D01*
X576505Y59024D01*
X576380Y59230D01*
X576260Y59440D01*
X576145Y59653D01*
X576036Y59868D01*
X575931Y60086D01*
X575832Y60306D01*
X575738Y60529D01*
X575650Y60754D01*
X575567Y60981D01*
X575489Y61210D01*
X575418Y61441D01*
X575351Y61673D01*
X575291Y61907D01*
X575236Y62142D01*
X575186Y62379D01*
X575143Y62616D01*
X575105Y62855D01*
X575073Y63095D01*
X575047Y63335D01*
X575026Y63576D01*
X575012Y63817D01*
X575003Y64058D01*
X575000Y64300D01*
X575000Y164300D02*
X575003Y164542D01*
X575012Y164783D01*
X575026Y165024D01*
X575047Y165265D01*
X575073Y165505D01*
X575105Y165745D01*
X575143Y165984D01*
X575186Y166221D01*
X575236Y166458D01*
X575291Y166693D01*
X575351Y166927D01*
X575418Y167159D01*
X575489Y167390D01*
X575567Y167619D01*
X575650Y167846D01*
X575738Y168071D01*
X575832Y168294D01*
X575931Y168514D01*
X576036Y168732D01*
X576145Y168947D01*
X576260Y169160D01*
X576380Y169370D01*
X576505Y169576D01*
X576635Y169780D01*
X576770Y169981D01*
X576910Y170178D01*
X577054Y170372D01*
X577203Y170562D01*
X577357Y170748D01*
X577515Y170931D01*
X577677Y171110D01*
X577844Y171285D01*
X578015Y171456D01*
X578190Y171623D01*
X578369Y171785D01*
X578552Y171943D01*
X578738Y172097D01*
X578928Y172246D01*
X579122Y172390D01*
X579319Y172530D01*
X579520Y172665D01*
X579724Y172795D01*
X579930Y172920D01*
X580140Y173040D01*
X580353Y173155D01*
X580568Y173264D01*
X580786Y173369D01*
X581006Y173468D01*
X581229Y173562D01*
X581454Y173650D01*
X581681Y173733D01*
X581910Y173811D01*
X582141Y173882D01*
X582373Y173949D01*
X582607Y174009D01*
X582842Y174064D01*
X583079Y174114D01*
X583316Y174157D01*
X583555Y174195D01*
X583795Y174227D01*
X584035Y174253D01*
X584276Y174274D01*
X584517Y174288D01*
X584758Y174297D01*
X585000Y174300D01*
X685000Y174300D01*
X685242Y174297D01*
X685483Y174288D01*
X685724Y174274D01*
X685965Y174253D01*
X686205Y174227D01*
X686445Y174195D01*
X686684Y174157D01*
X686921Y174114D01*
X687158Y174064D01*
X687393Y174009D01*
X687627Y173949D01*
X687859Y173882D01*
X688090Y173811D01*
X688319Y173733D01*
X688546Y173650D01*
X688771Y173562D01*
X688994Y173468D01*
X689214Y173369D01*
X689432Y173264D01*
X689647Y173155D01*
X689860Y173040D01*
X690070Y172920D01*
X690276Y172795D01*
X690480Y172665D01*
X690681Y172530D01*
X690878Y172390D01*
X691072Y172246D01*
X691262Y172097D01*
X691448Y171943D01*
X691631Y171785D01*
X691810Y171623D01*
X691985Y171456D01*
X692156Y171285D01*
X692323Y171110D01*
X692485Y170931D01*
X692643Y170748D01*
X692797Y170562D01*
X692946Y170372D01*
X693090Y170178D01*
X693230Y169981D01*
X693365Y169780D01*
X693495Y169576D01*
X693620Y169370D01*
X693740Y169160D01*
X693855Y168947D01*
X693964Y168732D01*
X694069Y168514D01*
X694168Y168294D01*
X694262Y168071D01*
X694350Y167846D01*
X694433Y167619D01*
X694511Y167390D01*
X694582Y167159D01*
X694649Y166927D01*
X694709Y166693D01*
X694764Y166458D01*
X694814Y166221D01*
X694857Y165984D01*
X694895Y165745D01*
X694927Y165505D01*
X694953Y165265D01*
X694974Y165024D01*
X694988Y164783D01*
X694997Y164542D01*
X695000Y164300D01*
X599645Y114300D02*
X599656Y115168D01*
X599688Y116035D01*
X599741Y116901D01*
X599815Y117765D01*
X599911Y118628D01*
X600028Y119488D01*
X600166Y120344D01*
X600324Y121197D01*
X600504Y122046D01*
X600705Y122891D01*
X600926Y123730D01*
X601167Y124563D01*
X601429Y125390D01*
X601712Y126211D01*
X602014Y127024D01*
X602336Y127830D01*
X602678Y128627D01*
X603039Y129416D01*
X603420Y130196D01*
X603820Y130966D01*
X604238Y131726D01*
X604675Y132476D01*
X605130Y133215D01*
X605603Y133942D01*
X606094Y134658D01*
X606603Y135361D01*
X607128Y136052D01*
X607670Y136729D01*
X608229Y137393D01*
X608804Y138043D01*
X609394Y138679D01*
X610000Y139300D01*
X610621Y139906D01*
X611257Y140496D01*
X611907Y141071D01*
X612571Y141630D01*
X613248Y142172D01*
X613939Y142697D01*
X614642Y143206D01*
X615358Y143697D01*
X616085Y144170D01*
X616824Y144625D01*
X617574Y145062D01*
X618334Y145480D01*
X619104Y145880D01*
X619884Y146261D01*
X620673Y146622D01*
X621470Y146964D01*
X622276Y147286D01*
X623089Y147588D01*
X623910Y147871D01*
X624737Y148133D01*
X625570Y148374D01*
X626409Y148595D01*
X627254Y148796D01*
X628103Y148976D01*
X628956Y149134D01*
X629812Y149272D01*
X630672Y149389D01*
X631535Y149485D01*
X632399Y149559D01*
X633265Y149612D01*
X634132Y149644D01*
X635000Y149655D01*
X635868Y149644D01*
X636735Y149612D01*
X637601Y149559D01*
X638465Y149485D01*
X639328Y149389D01*
X640188Y149272D01*
X641044Y149134D01*
X641897Y148976D01*
X642746Y148796D01*
X643591Y148595D01*
X644430Y148374D01*
X645263Y148133D01*
X646090Y147871D01*
X646911Y147588D01*
X647724Y147286D01*
X648530Y146964D01*
X649327Y146622D01*
X650116Y146261D01*
X650896Y145880D01*
X651666Y145480D01*
X652426Y145062D01*
X653176Y144625D01*
X653915Y144170D01*
X654642Y143697D01*
X655358Y143206D01*
X656061Y142697D01*
X656752Y142172D01*
X657429Y141630D01*
X658093Y141071D01*
X658743Y140496D01*
X659379Y139906D01*
X660000Y139300D01*
X660606Y138679D01*
X661196Y138043D01*
X661771Y137393D01*
X662330Y136729D01*
X662872Y136052D01*
X663397Y135361D01*
X663906Y134658D01*
X664397Y133942D01*
X664870Y133215D01*
X665325Y132476D01*
X665762Y131726D01*
X666180Y130966D01*
X666580Y130196D01*
X666961Y129416D01*
X667322Y128627D01*
X667664Y127830D01*
X667986Y127024D01*
X668288Y126211D01*
X668571Y125390D01*
X668833Y124563D01*
X669074Y123730D01*
X669295Y122891D01*
X669496Y122046D01*
X669676Y121197D01*
X669834Y120344D01*
X669972Y119488D01*
X670089Y118628D01*
X670185Y117765D01*
X670259Y116901D01*
X670312Y116035D01*
X670344Y115168D01*
X670355Y114300D01*
X670344Y113432D01*
X670312Y112565D01*
X670259Y111699D01*
X670185Y110835D01*
X670089Y109972D01*
X669972Y109112D01*
X669834Y108256D01*
X669676Y107403D01*
X669496Y106554D01*
X669295Y105709D01*
X669074Y104870D01*
X668833Y104037D01*
X668571Y103210D01*
X668288Y102389D01*
X667986Y101576D01*
X667664Y100770D01*
X667322Y99973D01*
X666961Y99184D01*
X666580Y98404D01*
X666180Y97634D01*
X665762Y96874D01*
X665325Y96124D01*
X664870Y95385D01*
X664397Y94658D01*
X663906Y93942D01*
X663397Y93239D01*
X662872Y92548D01*
X662330Y91871D01*
X661771Y91207D01*
X661196Y90557D01*
X660606Y89921D01*
X660000Y89300D01*
X659379Y88694D01*
X658743Y88104D01*
X658093Y87529D01*
X657429Y86970D01*
X656752Y86428D01*
X656061Y85903D01*
X655358Y85394D01*
X654642Y84903D01*
X653915Y84430D01*
X653176Y83975D01*
X652426Y83538D01*
X651666Y83120D01*
X650896Y82720D01*
X650116Y82339D01*
X649327Y81978D01*
X648530Y81636D01*
X647724Y81314D01*
X646911Y81012D01*
X646090Y80729D01*
X645263Y80467D01*
X644430Y80226D01*
X643591Y80005D01*
X642746Y79804D01*
X641897Y79624D01*
X641044Y79466D01*
X640188Y79328D01*
X639328Y79211D01*
X638465Y79115D01*
X637601Y79041D01*
X636735Y78988D01*
X635868Y78956D01*
X635000Y78945D01*
X634132Y78956D01*
X633265Y78988D01*
X632399Y79041D01*
X631535Y79115D01*
X630672Y79211D01*
X629812Y79328D01*
X628956Y79466D01*
X628103Y79624D01*
X627254Y79804D01*
X626409Y80005D01*
X625570Y80226D01*
X624737Y80467D01*
X623910Y80729D01*
X623089Y81012D01*
X622276Y81314D01*
X621470Y81636D01*
X620673Y81978D01*
X619884Y82339D01*
X619104Y82720D01*
X618334Y83120D01*
X617574Y83538D01*
X616824Y83975D01*
X616085Y84430D01*
X615358Y84903D01*
X614642Y85394D01*
X613939Y85903D01*
X613248Y86428D01*
X612571Y86970D01*
X611907Y87529D01*
X611257Y88104D01*
X610621Y88694D01*
X610000Y89300D01*
X609394Y89921D01*
X608804Y90557D01*
X608229Y91207D01*
X607670Y91871D01*
X607128Y92548D01*
X606603Y93239D01*
X606094Y93942D01*
X605603Y94658D01*
X605130Y95385D01*
X604675Y96124D01*
X604238Y96874D01*
X603820Y97634D01*
X603420Y98404D01*
X603039Y99184D01*
X602678Y99973D01*
X602336Y100770D01*
X602014Y101576D01*
X601712Y102389D01*
X601429Y103210D01*
X601167Y104037D01*
X600926Y104870D01*
X600705Y105709D01*
X600504Y106554D01*
X600324Y107403D01*
X600166Y108256D01*
X600028Y109112D01*
X599911Y109972D01*
X599815Y110835D01*
X599741Y111699D01*
X599688Y112565D01*
X599656Y113432D01*
X599645Y114300D01*
X615000Y134300D02*
X655000Y134300D01*
X655000Y94300D01*
X615000Y94300D01*
X615000Y134300D01*
X575000Y151800D02*
X575000Y164300D01*
X575000Y126800D02*
X575000Y101800D01*
X575000Y76800D02*
X575000Y64300D01*
X695000Y151800D02*
X695000Y164300D01*
X695000Y126800D02*
X695000Y101800D01*
X695000Y76800D02*
X695000Y64300D01*
D11*
X588687Y178562D02*
X588784Y178564D01*
X588882Y178570D01*
X588979Y178579D01*
X589076Y178593D01*
X589172Y178610D01*
X589267Y178631D01*
X589361Y178655D01*
X589455Y178684D01*
X589547Y178716D01*
X589638Y178751D01*
X589727Y178790D01*
X589815Y178833D01*
X589901Y178879D01*
X589985Y178928D01*
X590067Y178981D01*
X590147Y179036D01*
X590225Y179095D01*
X590300Y179157D01*
X590373Y179222D01*
X590443Y179290D01*
X590511Y179360D01*
X590576Y179433D01*
X590638Y179508D01*
X590697Y179586D01*
X590752Y179666D01*
X590805Y179748D01*
X590854Y179832D01*
X590900Y179918D01*
X590943Y180006D01*
X590982Y180095D01*
X591017Y180186D01*
X591049Y180278D01*
X591078Y180372D01*
X591102Y180466D01*
X591123Y180561D01*
X591140Y180657D01*
X591154Y180754D01*
X591163Y180851D01*
X591169Y180948D01*
X591171Y181046D01*
X588687Y178562D02*
X588544Y178564D01*
X588401Y178570D01*
X588259Y178579D01*
X588117Y178593D01*
X587975Y178611D01*
X587834Y178632D01*
X587693Y178657D01*
X587553Y178686D01*
X587414Y178719D01*
X587276Y178755D01*
X587139Y178796D01*
X587003Y178840D01*
X586868Y178887D01*
X586735Y178939D01*
X586603Y178994D01*
X586473Y179052D01*
X586344Y179114D01*
X586217Y179180D01*
X586092Y179249D01*
X585969Y179321D01*
X585848Y179397D01*
X585729Y179475D01*
X585612Y179558D01*
X585497Y179643D01*
X585385Y179731D01*
X585275Y179823D01*
X585168Y179917D01*
X585063Y180014D01*
X584961Y180114D01*
X585272Y187254D02*
X585274Y187352D01*
X585280Y187449D01*
X585289Y187546D01*
X585303Y187643D01*
X585320Y187739D01*
X585341Y187834D01*
X585365Y187928D01*
X585394Y188022D01*
X585426Y188114D01*
X585461Y188205D01*
X585500Y188294D01*
X585543Y188382D01*
X585589Y188468D01*
X585638Y188552D01*
X585691Y188634D01*
X585746Y188714D01*
X585805Y188792D01*
X585867Y188867D01*
X585932Y188940D01*
X586000Y189010D01*
X586070Y189078D01*
X586143Y189143D01*
X586218Y189205D01*
X586296Y189264D01*
X586376Y189319D01*
X586458Y189372D01*
X586542Y189421D01*
X586628Y189467D01*
X586716Y189510D01*
X586805Y189549D01*
X586896Y189584D01*
X586988Y189616D01*
X587082Y189645D01*
X587176Y189669D01*
X587271Y189690D01*
X587367Y189707D01*
X587464Y189721D01*
X587561Y189730D01*
X587658Y189736D01*
X587756Y189738D01*
X587886Y189736D01*
X588016Y189731D01*
X588146Y189722D01*
X588276Y189709D01*
X588405Y189693D01*
X588534Y189673D01*
X588662Y189649D01*
X588790Y189622D01*
X588916Y189591D01*
X589042Y189557D01*
X589167Y189519D01*
X589290Y189478D01*
X589413Y189433D01*
X589534Y189385D01*
X589654Y189334D01*
X589772Y189279D01*
X589888Y189221D01*
X590003Y189160D01*
X590117Y189095D01*
X590228Y189028D01*
X590337Y188957D01*
X590445Y188883D01*
X590550Y188807D01*
X586515Y185081D02*
X586432Y185132D01*
X586351Y185186D01*
X586273Y185243D01*
X586197Y185303D01*
X586123Y185366D01*
X586052Y185432D01*
X585983Y185500D01*
X585917Y185571D01*
X585853Y185644D01*
X585793Y185720D01*
X585736Y185798D01*
X585681Y185879D01*
X585630Y185961D01*
X585582Y186045D01*
X585537Y186131D01*
X585495Y186219D01*
X585457Y186308D01*
X585423Y186398D01*
X585391Y186490D01*
X585364Y186583D01*
X585340Y186677D01*
X585319Y186772D01*
X585303Y186868D01*
X585290Y186964D01*
X585280Y187060D01*
X585275Y187157D01*
X585273Y187254D01*
X589928Y183219D02*
X590011Y183168D01*
X590092Y183114D01*
X590170Y183057D01*
X590246Y182997D01*
X590320Y182934D01*
X590391Y182868D01*
X590460Y182800D01*
X590526Y182729D01*
X590590Y182656D01*
X590650Y182580D01*
X590707Y182502D01*
X590762Y182421D01*
X590813Y182339D01*
X590861Y182255D01*
X590906Y182169D01*
X590948Y182081D01*
X590986Y181992D01*
X591020Y181902D01*
X591052Y181810D01*
X591079Y181717D01*
X591103Y181623D01*
X591124Y181528D01*
X591140Y181432D01*
X591153Y181336D01*
X591163Y181240D01*
X591168Y181143D01*
X591170Y181046D01*
X589929Y183219D02*
X586514Y185081D01*
X595672Y189738D02*
X598156Y178562D01*
X600639Y186013D01*
X603123Y178562D01*
X605607Y189738D01*
X613904Y189738D02*
X614008Y189736D01*
X614113Y189730D01*
X614217Y189720D01*
X614320Y189707D01*
X614423Y189689D01*
X614526Y189668D01*
X614627Y189643D01*
X614728Y189614D01*
X614827Y189581D01*
X614925Y189545D01*
X615021Y189505D01*
X615116Y189461D01*
X615210Y189414D01*
X615301Y189364D01*
X615390Y189310D01*
X615478Y189253D01*
X615563Y189192D01*
X615646Y189128D01*
X615726Y189062D01*
X615804Y188992D01*
X615880Y188920D01*
X615952Y188844D01*
X616022Y188766D01*
X616088Y188686D01*
X616152Y188603D01*
X616213Y188518D01*
X616270Y188430D01*
X616324Y188341D01*
X616374Y188250D01*
X616421Y188156D01*
X616465Y188061D01*
X616505Y187965D01*
X616541Y187867D01*
X616574Y187768D01*
X616603Y187667D01*
X616628Y187566D01*
X616649Y187463D01*
X616667Y187360D01*
X616680Y187257D01*
X616690Y187153D01*
X616696Y187048D01*
X616698Y186944D01*
X613904Y189739D02*
X613785Y189737D01*
X613667Y189731D01*
X613548Y189721D01*
X613430Y189708D01*
X613313Y189690D01*
X613196Y189668D01*
X613080Y189643D01*
X612965Y189614D01*
X612850Y189581D01*
X612737Y189544D01*
X612626Y189504D01*
X612515Y189460D01*
X612407Y189412D01*
X612300Y189361D01*
X612194Y189306D01*
X612091Y189247D01*
X611989Y189186D01*
X611890Y189121D01*
X611792Y189052D01*
X611698Y188981D01*
X611605Y188906D01*
X611515Y188829D01*
X611428Y188748D01*
X611343Y188665D01*
X611261Y188579D01*
X611182Y188490D01*
X611106Y188399D01*
X611033Y188305D01*
X610964Y188209D01*
X610897Y188110D01*
X610834Y188010D01*
X610774Y187907D01*
X610717Y187803D01*
X610665Y187696D01*
X610615Y187588D01*
X610569Y187479D01*
X610527Y187367D01*
X610489Y187255D01*
X615767Y184771D02*
X615842Y184845D01*
X615914Y184922D01*
X615984Y185001D01*
X616051Y185083D01*
X616115Y185167D01*
X616176Y185253D01*
X616234Y185341D01*
X616289Y185432D01*
X616341Y185524D01*
X616389Y185618D01*
X616434Y185713D01*
X616476Y185811D01*
X616514Y185909D01*
X616549Y186009D01*
X616580Y186110D01*
X616607Y186212D01*
X616631Y186315D01*
X616652Y186418D01*
X616668Y186523D01*
X616681Y186628D01*
X616691Y186733D01*
X616696Y186838D01*
X616698Y186944D01*
X615767Y184771D02*
X610489Y178562D01*
X616698Y178562D01*
D13*
X136750Y749300D02*
X136757Y749840D01*
X136776Y750379D01*
X136810Y750918D01*
X136856Y751456D01*
X136915Y751993D01*
X136988Y752528D01*
X137074Y753061D01*
X137173Y753592D01*
X137285Y754120D01*
X137409Y754646D01*
X137547Y755168D01*
X137697Y755686D01*
X137860Y756201D01*
X138036Y756712D01*
X138224Y757218D01*
X138425Y757719D01*
X138637Y758215D01*
X138862Y758706D01*
X139099Y759191D01*
X139348Y759671D01*
X139608Y760144D01*
X139880Y760610D01*
X140163Y761070D01*
X140458Y761523D01*
X140763Y761968D01*
X141079Y762405D01*
X141406Y762835D01*
X141744Y763257D01*
X142091Y763670D01*
X142449Y764074D01*
X142817Y764470D01*
X143194Y764856D01*
X143580Y765233D01*
X143976Y765601D01*
X144380Y765959D01*
X144793Y766306D01*
X145215Y766644D01*
X145645Y766971D01*
X146082Y767287D01*
X146527Y767592D01*
X146980Y767887D01*
X147440Y768170D01*
X147906Y768442D01*
X148379Y768702D01*
X148859Y768951D01*
X149344Y769188D01*
X149835Y769413D01*
X150331Y769625D01*
X150832Y769826D01*
X151338Y770014D01*
X151849Y770190D01*
X152364Y770353D01*
X152882Y770503D01*
X153404Y770641D01*
X153930Y770765D01*
X154458Y770877D01*
X154989Y770976D01*
X155522Y771062D01*
X156057Y771135D01*
X156594Y771194D01*
X157132Y771240D01*
X157671Y771274D01*
X158210Y771293D01*
X158750Y771300D01*
X159290Y771293D01*
X159829Y771274D01*
X160368Y771240D01*
X160906Y771194D01*
X161443Y771135D01*
X161978Y771062D01*
X162511Y770976D01*
X163042Y770877D01*
X163570Y770765D01*
X164096Y770641D01*
X164618Y770503D01*
X165136Y770353D01*
X165651Y770190D01*
X166162Y770014D01*
X166668Y769826D01*
X167169Y769625D01*
X167665Y769413D01*
X168156Y769188D01*
X168641Y768951D01*
X169121Y768702D01*
X169594Y768442D01*
X170060Y768170D01*
X170520Y767887D01*
X170973Y767592D01*
X171418Y767287D01*
X171855Y766971D01*
X172285Y766644D01*
X172707Y766306D01*
X173120Y765959D01*
X173524Y765601D01*
X173920Y765233D01*
X174306Y764856D01*
X174683Y764470D01*
X175051Y764074D01*
X175409Y763670D01*
X175756Y763257D01*
X176094Y762835D01*
X176421Y762405D01*
X176737Y761968D01*
X177042Y761523D01*
X177337Y761070D01*
X177620Y760610D01*
X177892Y760144D01*
X178152Y759671D01*
X178401Y759191D01*
X178638Y758706D01*
X178863Y758215D01*
X179075Y757719D01*
X179276Y757218D01*
X179464Y756712D01*
X179640Y756201D01*
X179803Y755686D01*
X179953Y755168D01*
X180091Y754646D01*
X180215Y754120D01*
X180327Y753592D01*
X180426Y753061D01*
X180512Y752528D01*
X180585Y751993D01*
X180644Y751456D01*
X180690Y750918D01*
X180724Y750379D01*
X180743Y749840D01*
X180750Y749300D01*
X180743Y748760D01*
X180724Y748221D01*
X180690Y747682D01*
X180644Y747144D01*
X180585Y746607D01*
X180512Y746072D01*
X180426Y745539D01*
X180327Y745008D01*
X180215Y744480D01*
X180091Y743954D01*
X179953Y743432D01*
X179803Y742914D01*
X179640Y742399D01*
X179464Y741888D01*
X179276Y741382D01*
X179075Y740881D01*
X178863Y740385D01*
X178638Y739894D01*
X178401Y739409D01*
X178152Y738929D01*
X177892Y738456D01*
X177620Y737990D01*
X177337Y737530D01*
X177042Y737077D01*
X176737Y736632D01*
X176421Y736195D01*
X176094Y735765D01*
X175756Y735343D01*
X175409Y734930D01*
X175051Y734526D01*
X174683Y734130D01*
X174306Y733744D01*
X173920Y733367D01*
X173524Y732999D01*
X173120Y732641D01*
X172707Y732294D01*
X172285Y731956D01*
X171855Y731629D01*
X171418Y731313D01*
X170973Y731008D01*
X170520Y730713D01*
X170060Y730430D01*
X169594Y730158D01*
X169121Y729898D01*
X168641Y729649D01*
X168156Y729412D01*
X167665Y729187D01*
X167169Y728975D01*
X166668Y728774D01*
X166162Y728586D01*
X165651Y728410D01*
X165136Y728247D01*
X164618Y728097D01*
X164096Y727959D01*
X163570Y727835D01*
X163042Y727723D01*
X162511Y727624D01*
X161978Y727538D01*
X161443Y727465D01*
X160906Y727406D01*
X160368Y727360D01*
X159829Y727326D01*
X159290Y727307D01*
X158750Y727300D01*
X158210Y727307D01*
X157671Y727326D01*
X157132Y727360D01*
X156594Y727406D01*
X156057Y727465D01*
X155522Y727538D01*
X154989Y727624D01*
X154458Y727723D01*
X153930Y727835D01*
X153404Y727959D01*
X152882Y728097D01*
X152364Y728247D01*
X151849Y728410D01*
X151338Y728586D01*
X150832Y728774D01*
X150331Y728975D01*
X149835Y729187D01*
X149344Y729412D01*
X148859Y729649D01*
X148379Y729898D01*
X147906Y730158D01*
X147440Y730430D01*
X146980Y730713D01*
X146527Y731008D01*
X146082Y731313D01*
X145645Y731629D01*
X145215Y731956D01*
X144793Y732294D01*
X144380Y732641D01*
X143976Y732999D01*
X143580Y733367D01*
X143194Y733744D01*
X142817Y734130D01*
X142449Y734526D01*
X142091Y734930D01*
X141744Y735343D01*
X141406Y735765D01*
X141079Y736195D01*
X140763Y736632D01*
X140458Y737077D01*
X140163Y737530D01*
X139880Y737990D01*
X139608Y738456D01*
X139348Y738929D01*
X139099Y739409D01*
X138862Y739894D01*
X138637Y740385D01*
X138425Y740881D01*
X138224Y741382D01*
X138036Y741888D01*
X137860Y742399D01*
X137697Y742914D01*
X137547Y743432D01*
X137409Y743954D01*
X137285Y744480D01*
X137173Y745008D01*
X137074Y745539D01*
X136988Y746072D01*
X136915Y746607D01*
X136856Y747144D01*
X136810Y747682D01*
X136776Y748221D01*
X136757Y748760D01*
X136750Y749300D01*
X136750Y177800D02*
X136757Y178340D01*
X136776Y178879D01*
X136810Y179418D01*
X136856Y179956D01*
X136915Y180493D01*
X136988Y181028D01*
X137074Y181561D01*
X137173Y182092D01*
X137285Y182620D01*
X137409Y183146D01*
X137547Y183668D01*
X137697Y184186D01*
X137860Y184701D01*
X138036Y185212D01*
X138224Y185718D01*
X138425Y186219D01*
X138637Y186715D01*
X138862Y187206D01*
X139099Y187691D01*
X139348Y188171D01*
X139608Y188644D01*
X139880Y189110D01*
X140163Y189570D01*
X140458Y190023D01*
X140763Y190468D01*
X141079Y190905D01*
X141406Y191335D01*
X141744Y191757D01*
X142091Y192170D01*
X142449Y192574D01*
X142817Y192970D01*
X143194Y193356D01*
X143580Y193733D01*
X143976Y194101D01*
X144380Y194459D01*
X144793Y194806D01*
X145215Y195144D01*
X145645Y195471D01*
X146082Y195787D01*
X146527Y196092D01*
X146980Y196387D01*
X147440Y196670D01*
X147906Y196942D01*
X148379Y197202D01*
X148859Y197451D01*
X149344Y197688D01*
X149835Y197913D01*
X150331Y198125D01*
X150832Y198326D01*
X151338Y198514D01*
X151849Y198690D01*
X152364Y198853D01*
X152882Y199003D01*
X153404Y199141D01*
X153930Y199265D01*
X154458Y199377D01*
X154989Y199476D01*
X155522Y199562D01*
X156057Y199635D01*
X156594Y199694D01*
X157132Y199740D01*
X157671Y199774D01*
X158210Y199793D01*
X158750Y199800D01*
X159290Y199793D01*
X159829Y199774D01*
X160368Y199740D01*
X160906Y199694D01*
X161443Y199635D01*
X161978Y199562D01*
X162511Y199476D01*
X163042Y199377D01*
X163570Y199265D01*
X164096Y199141D01*
X164618Y199003D01*
X165136Y198853D01*
X165651Y198690D01*
X166162Y198514D01*
X166668Y198326D01*
X167169Y198125D01*
X167665Y197913D01*
X168156Y197688D01*
X168641Y197451D01*
X169121Y197202D01*
X169594Y196942D01*
X170060Y196670D01*
X170520Y196387D01*
X170973Y196092D01*
X171418Y195787D01*
X171855Y195471D01*
X172285Y195144D01*
X172707Y194806D01*
X173120Y194459D01*
X173524Y194101D01*
X173920Y193733D01*
X174306Y193356D01*
X174683Y192970D01*
X175051Y192574D01*
X175409Y192170D01*
X175756Y191757D01*
X176094Y191335D01*
X176421Y190905D01*
X176737Y190468D01*
X177042Y190023D01*
X177337Y189570D01*
X177620Y189110D01*
X177892Y188644D01*
X178152Y188171D01*
X178401Y187691D01*
X178638Y187206D01*
X178863Y186715D01*
X179075Y186219D01*
X179276Y185718D01*
X179464Y185212D01*
X179640Y184701D01*
X179803Y184186D01*
X179953Y183668D01*
X180091Y183146D01*
X180215Y182620D01*
X180327Y182092D01*
X180426Y181561D01*
X180512Y181028D01*
X180585Y180493D01*
X180644Y179956D01*
X180690Y179418D01*
X180724Y178879D01*
X180743Y178340D01*
X180750Y177800D01*
X180743Y177260D01*
X180724Y176721D01*
X180690Y176182D01*
X180644Y175644D01*
X180585Y175107D01*
X180512Y174572D01*
X180426Y174039D01*
X180327Y173508D01*
X180215Y172980D01*
X180091Y172454D01*
X179953Y171932D01*
X179803Y171414D01*
X179640Y170899D01*
X179464Y170388D01*
X179276Y169882D01*
X179075Y169381D01*
X178863Y168885D01*
X178638Y168394D01*
X178401Y167909D01*
X178152Y167429D01*
X177892Y166956D01*
X177620Y166490D01*
X177337Y166030D01*
X177042Y165577D01*
X176737Y165132D01*
X176421Y164695D01*
X176094Y164265D01*
X175756Y163843D01*
X175409Y163430D01*
X175051Y163026D01*
X174683Y162630D01*
X174306Y162244D01*
X173920Y161867D01*
X173524Y161499D01*
X173120Y161141D01*
X172707Y160794D01*
X172285Y160456D01*
X171855Y160129D01*
X171418Y159813D01*
X170973Y159508D01*
X170520Y159213D01*
X170060Y158930D01*
X169594Y158658D01*
X169121Y158398D01*
X168641Y158149D01*
X168156Y157912D01*
X167665Y157687D01*
X167169Y157475D01*
X166668Y157274D01*
X166162Y157086D01*
X165651Y156910D01*
X165136Y156747D01*
X164618Y156597D01*
X164096Y156459D01*
X163570Y156335D01*
X163042Y156223D01*
X162511Y156124D01*
X161978Y156038D01*
X161443Y155965D01*
X160906Y155906D01*
X160368Y155860D01*
X159829Y155826D01*
X159290Y155807D01*
X158750Y155800D01*
X158210Y155807D01*
X157671Y155826D01*
X157132Y155860D01*
X156594Y155906D01*
X156057Y155965D01*
X155522Y156038D01*
X154989Y156124D01*
X154458Y156223D01*
X153930Y156335D01*
X153404Y156459D01*
X152882Y156597D01*
X152364Y156747D01*
X151849Y156910D01*
X151338Y157086D01*
X150832Y157274D01*
X150331Y157475D01*
X149835Y157687D01*
X149344Y157912D01*
X148859Y158149D01*
X148379Y158398D01*
X147906Y158658D01*
X147440Y158930D01*
X146980Y159213D01*
X146527Y159508D01*
X146082Y159813D01*
X145645Y160129D01*
X145215Y160456D01*
X144793Y160794D01*
X144380Y161141D01*
X143976Y161499D01*
X143580Y161867D01*
X143194Y162244D01*
X142817Y162630D01*
X142449Y163026D01*
X142091Y163430D01*
X141744Y163843D01*
X141406Y164265D01*
X141079Y164695D01*
X140763Y165132D01*
X140458Y165577D01*
X140163Y166030D01*
X139880Y166490D01*
X139608Y166956D01*
X139348Y167429D01*
X139099Y167909D01*
X138862Y168394D01*
X138637Y168885D01*
X138425Y169381D01*
X138224Y169882D01*
X138036Y170388D01*
X137860Y170899D01*
X137697Y171414D01*
X137547Y171932D01*
X137409Y172454D01*
X137285Y172980D01*
X137173Y173508D01*
X137074Y174039D01*
X136988Y174572D01*
X136915Y175107D01*
X136856Y175644D01*
X136810Y176182D01*
X136776Y176721D01*
X136757Y177260D01*
X136750Y177800D01*
X898750Y749300D02*
X898757Y749840D01*
X898776Y750379D01*
X898810Y750918D01*
X898856Y751456D01*
X898915Y751993D01*
X898988Y752528D01*
X899074Y753061D01*
X899173Y753592D01*
X899285Y754120D01*
X899409Y754646D01*
X899547Y755168D01*
X899697Y755686D01*
X899860Y756201D01*
X900036Y756712D01*
X900224Y757218D01*
X900425Y757719D01*
X900637Y758215D01*
X900862Y758706D01*
X901099Y759191D01*
X901348Y759671D01*
X901608Y760144D01*
X901880Y760610D01*
X902163Y761070D01*
X902458Y761523D01*
X902763Y761968D01*
X903079Y762405D01*
X903406Y762835D01*
X903744Y763257D01*
X904091Y763670D01*
X904449Y764074D01*
X904817Y764470D01*
X905194Y764856D01*
X905580Y765233D01*
X905976Y765601D01*
X906380Y765959D01*
X906793Y766306D01*
X907215Y766644D01*
X907645Y766971D01*
X908082Y767287D01*
X908527Y767592D01*
X908980Y767887D01*
X909440Y768170D01*
X909906Y768442D01*
X910379Y768702D01*
X910859Y768951D01*
X911344Y769188D01*
X911835Y769413D01*
X912331Y769625D01*
X912832Y769826D01*
X913338Y770014D01*
X913849Y770190D01*
X914364Y770353D01*
X914882Y770503D01*
X915404Y770641D01*
X915930Y770765D01*
X916458Y770877D01*
X916989Y770976D01*
X917522Y771062D01*
X918057Y771135D01*
X918594Y771194D01*
X919132Y771240D01*
X919671Y771274D01*
X920210Y771293D01*
X920750Y771300D01*
X921290Y771293D01*
X921829Y771274D01*
X922368Y771240D01*
X922906Y771194D01*
X923443Y771135D01*
X923978Y771062D01*
X924511Y770976D01*
X925042Y770877D01*
X925570Y770765D01*
X926096Y770641D01*
X926618Y770503D01*
X927136Y770353D01*
X927651Y770190D01*
X928162Y770014D01*
X928668Y769826D01*
X929169Y769625D01*
X929665Y769413D01*
X930156Y769188D01*
X930641Y768951D01*
X931121Y768702D01*
X931594Y768442D01*
X932060Y768170D01*
X932520Y767887D01*
X932973Y767592D01*
X933418Y767287D01*
X933855Y766971D01*
X934285Y766644D01*
X934707Y766306D01*
X935120Y765959D01*
X935524Y765601D01*
X935920Y765233D01*
X936306Y764856D01*
X936683Y764470D01*
X937051Y764074D01*
X937409Y763670D01*
X937756Y763257D01*
X938094Y762835D01*
X938421Y762405D01*
X938737Y761968D01*
X939042Y761523D01*
X939337Y761070D01*
X939620Y760610D01*
X939892Y760144D01*
X940152Y759671D01*
X940401Y759191D01*
X940638Y758706D01*
X940863Y758215D01*
X941075Y757719D01*
X941276Y757218D01*
X941464Y756712D01*
X941640Y756201D01*
X941803Y755686D01*
X941953Y755168D01*
X942091Y754646D01*
X942215Y754120D01*
X942327Y753592D01*
X942426Y753061D01*
X942512Y752528D01*
X942585Y751993D01*
X942644Y751456D01*
X942690Y750918D01*
X942724Y750379D01*
X942743Y749840D01*
X942750Y749300D01*
X942743Y748760D01*
X942724Y748221D01*
X942690Y747682D01*
X942644Y747144D01*
X942585Y746607D01*
X942512Y746072D01*
X942426Y745539D01*
X942327Y745008D01*
X942215Y744480D01*
X942091Y743954D01*
X941953Y743432D01*
X941803Y742914D01*
X941640Y742399D01*
X941464Y741888D01*
X941276Y741382D01*
X941075Y740881D01*
X940863Y740385D01*
X940638Y739894D01*
X940401Y739409D01*
X940152Y738929D01*
X939892Y738456D01*
X939620Y737990D01*
X939337Y737530D01*
X939042Y737077D01*
X938737Y736632D01*
X938421Y736195D01*
X938094Y735765D01*
X937756Y735343D01*
X937409Y734930D01*
X937051Y734526D01*
X936683Y734130D01*
X936306Y733744D01*
X935920Y733367D01*
X935524Y732999D01*
X935120Y732641D01*
X934707Y732294D01*
X934285Y731956D01*
X933855Y731629D01*
X933418Y731313D01*
X932973Y731008D01*
X932520Y730713D01*
X932060Y730430D01*
X931594Y730158D01*
X931121Y729898D01*
X930641Y729649D01*
X930156Y729412D01*
X929665Y729187D01*
X929169Y728975D01*
X928668Y728774D01*
X928162Y728586D01*
X927651Y728410D01*
X927136Y728247D01*
X926618Y728097D01*
X926096Y727959D01*
X925570Y727835D01*
X925042Y727723D01*
X924511Y727624D01*
X923978Y727538D01*
X923443Y727465D01*
X922906Y727406D01*
X922368Y727360D01*
X921829Y727326D01*
X921290Y727307D01*
X920750Y727300D01*
X920210Y727307D01*
X919671Y727326D01*
X919132Y727360D01*
X918594Y727406D01*
X918057Y727465D01*
X917522Y727538D01*
X916989Y727624D01*
X916458Y727723D01*
X915930Y727835D01*
X915404Y727959D01*
X914882Y728097D01*
X914364Y728247D01*
X913849Y728410D01*
X913338Y728586D01*
X912832Y728774D01*
X912331Y728975D01*
X911835Y729187D01*
X911344Y729412D01*
X910859Y729649D01*
X910379Y729898D01*
X909906Y730158D01*
X909440Y730430D01*
X908980Y730713D01*
X908527Y731008D01*
X908082Y731313D01*
X907645Y731629D01*
X907215Y731956D01*
X906793Y732294D01*
X906380Y732641D01*
X905976Y732999D01*
X905580Y733367D01*
X905194Y733744D01*
X904817Y734130D01*
X904449Y734526D01*
X904091Y734930D01*
X903744Y735343D01*
X903406Y735765D01*
X903079Y736195D01*
X902763Y736632D01*
X902458Y737077D01*
X902163Y737530D01*
X901880Y737990D01*
X901608Y738456D01*
X901348Y738929D01*
X901099Y739409D01*
X900862Y739894D01*
X900637Y740385D01*
X900425Y740881D01*
X900224Y741382D01*
X900036Y741888D01*
X899860Y742399D01*
X899697Y742914D01*
X899547Y743432D01*
X899409Y743954D01*
X899285Y744480D01*
X899173Y745008D01*
X899074Y745539D01*
X898988Y746072D01*
X898915Y746607D01*
X898856Y747144D01*
X898810Y747682D01*
X898776Y748221D01*
X898757Y748760D01*
X898750Y749300D01*
X898750Y177800D02*
X898757Y178340D01*
X898776Y178879D01*
X898810Y179418D01*
X898856Y179956D01*
X898915Y180493D01*
X898988Y181028D01*
X899074Y181561D01*
X899173Y182092D01*
X899285Y182620D01*
X899409Y183146D01*
X899547Y183668D01*
X899697Y184186D01*
X899860Y184701D01*
X900036Y185212D01*
X900224Y185718D01*
X900425Y186219D01*
X900637Y186715D01*
X900862Y187206D01*
X901099Y187691D01*
X901348Y188171D01*
X901608Y188644D01*
X901880Y189110D01*
X902163Y189570D01*
X902458Y190023D01*
X902763Y190468D01*
X903079Y190905D01*
X903406Y191335D01*
X903744Y191757D01*
X904091Y192170D01*
X904449Y192574D01*
X904817Y192970D01*
X905194Y193356D01*
X905580Y193733D01*
X905976Y194101D01*
X906380Y194459D01*
X906793Y194806D01*
X907215Y195144D01*
X907645Y195471D01*
X908082Y195787D01*
X908527Y196092D01*
X908980Y196387D01*
X909440Y196670D01*
X909906Y196942D01*
X910379Y197202D01*
X910859Y197451D01*
X911344Y197688D01*
X911835Y197913D01*
X912331Y198125D01*
X912832Y198326D01*
X913338Y198514D01*
X913849Y198690D01*
X914364Y198853D01*
X914882Y199003D01*
X915404Y199141D01*
X915930Y199265D01*
X916458Y199377D01*
X916989Y199476D01*
X917522Y199562D01*
X918057Y199635D01*
X918594Y199694D01*
X919132Y199740D01*
X919671Y199774D01*
X920210Y199793D01*
X920750Y199800D01*
X921290Y199793D01*
X921829Y199774D01*
X922368Y199740D01*
X922906Y199694D01*
X923443Y199635D01*
X923978Y199562D01*
X924511Y199476D01*
X925042Y199377D01*
X925570Y199265D01*
X926096Y199141D01*
X926618Y199003D01*
X927136Y198853D01*
X927651Y198690D01*
X928162Y198514D01*
X928668Y198326D01*
X929169Y198125D01*
X929665Y197913D01*
X930156Y197688D01*
X930641Y197451D01*
X931121Y197202D01*
X931594Y196942D01*
X932060Y196670D01*
X932520Y196387D01*
X932973Y196092D01*
X933418Y195787D01*
X933855Y195471D01*
X934285Y195144D01*
X934707Y194806D01*
X935120Y194459D01*
X935524Y194101D01*
X935920Y193733D01*
X936306Y193356D01*
X936683Y192970D01*
X937051Y192574D01*
X937409Y192170D01*
X937756Y191757D01*
X938094Y191335D01*
X938421Y190905D01*
X938737Y190468D01*
X939042Y190023D01*
X939337Y189570D01*
X939620Y189110D01*
X939892Y188644D01*
X940152Y188171D01*
X940401Y187691D01*
X940638Y187206D01*
X940863Y186715D01*
X941075Y186219D01*
X941276Y185718D01*
X941464Y185212D01*
X941640Y184701D01*
X941803Y184186D01*
X941953Y183668D01*
X942091Y183146D01*
X942215Y182620D01*
X942327Y182092D01*
X942426Y181561D01*
X942512Y181028D01*
X942585Y180493D01*
X942644Y179956D01*
X942690Y179418D01*
X942724Y178879D01*
X942743Y178340D01*
X942750Y177800D01*
X942743Y177260D01*
X942724Y176721D01*
X942690Y176182D01*
X942644Y175644D01*
X942585Y175107D01*
X942512Y174572D01*
X942426Y174039D01*
X942327Y173508D01*
X942215Y172980D01*
X942091Y172454D01*
X941953Y171932D01*
X941803Y171414D01*
X941640Y170899D01*
X941464Y170388D01*
X941276Y169882D01*
X941075Y169381D01*
X940863Y168885D01*
X940638Y168394D01*
X940401Y167909D01*
X940152Y167429D01*
X939892Y166956D01*
X939620Y166490D01*
X939337Y166030D01*
X939042Y165577D01*
X938737Y165132D01*
X938421Y164695D01*
X938094Y164265D01*
X937756Y163843D01*
X937409Y163430D01*
X937051Y163026D01*
X936683Y162630D01*
X936306Y162244D01*
X935920Y161867D01*
X935524Y161499D01*
X935120Y161141D01*
X934707Y160794D01*
X934285Y160456D01*
X933855Y160129D01*
X933418Y159813D01*
X932973Y159508D01*
X932520Y159213D01*
X932060Y158930D01*
X931594Y158658D01*
X931121Y158398D01*
X930641Y158149D01*
X930156Y157912D01*
X929665Y157687D01*
X929169Y157475D01*
X928668Y157274D01*
X928162Y157086D01*
X927651Y156910D01*
X927136Y156747D01*
X926618Y156597D01*
X926096Y156459D01*
X925570Y156335D01*
X925042Y156223D01*
X924511Y156124D01*
X923978Y156038D01*
X923443Y155965D01*
X922906Y155906D01*
X922368Y155860D01*
X921829Y155826D01*
X921290Y155807D01*
X920750Y155800D01*
X920210Y155807D01*
X919671Y155826D01*
X919132Y155860D01*
X918594Y155906D01*
X918057Y155965D01*
X917522Y156038D01*
X916989Y156124D01*
X916458Y156223D01*
X915930Y156335D01*
X915404Y156459D01*
X914882Y156597D01*
X914364Y156747D01*
X913849Y156910D01*
X913338Y157086D01*
X912832Y157274D01*
X912331Y157475D01*
X911835Y157687D01*
X911344Y157912D01*
X910859Y158149D01*
X910379Y158398D01*
X909906Y158658D01*
X909440Y158930D01*
X908980Y159213D01*
X908527Y159508D01*
X908082Y159813D01*
X907645Y160129D01*
X907215Y160456D01*
X906793Y160794D01*
X906380Y161141D01*
X905976Y161499D01*
X905580Y161867D01*
X905194Y162244D01*
X904817Y162630D01*
X904449Y163026D01*
X904091Y163430D01*
X903744Y163843D01*
X903406Y164265D01*
X903079Y164695D01*
X902763Y165132D01*
X902458Y165577D01*
X902163Y166030D01*
X901880Y166490D01*
X901608Y166956D01*
X901348Y167429D01*
X901099Y167909D01*
X900862Y168394D01*
X900637Y168885D01*
X900425Y169381D01*
X900224Y169882D01*
X900036Y170388D01*
X899860Y170899D01*
X899697Y171414D01*
X899547Y171932D01*
X899409Y172454D01*
X899285Y172980D01*
X899173Y173508D01*
X899074Y174039D01*
X898988Y174572D01*
X898915Y175107D01*
X898856Y175644D01*
X898810Y176182D01*
X898776Y176721D01*
X898757Y177260D01*
X898750Y177800D01*
D14*
X158750Y775970D02*
X158136Y775963D01*
X157523Y775940D01*
X156910Y775903D01*
X156299Y775851D01*
X155688Y775785D01*
X155080Y775703D01*
X154474Y775607D01*
X153870Y775497D01*
X153269Y775372D01*
X152671Y775232D01*
X152077Y775078D01*
X151487Y774909D01*
X150901Y774727D01*
X150320Y774530D01*
X149743Y774319D01*
X149172Y774095D01*
X148606Y773857D01*
X148046Y773605D01*
X147493Y773339D01*
X146946Y773061D01*
X146406Y772769D01*
X145873Y772464D01*
X145348Y772146D01*
X144830Y771816D01*
X144321Y771474D01*
X143820Y771119D01*
X143328Y770752D01*
X142845Y770374D01*
X142371Y769984D01*
X141907Y769582D01*
X141452Y769170D01*
X141008Y768746D01*
X140574Y768312D01*
X140150Y767868D01*
X139738Y767413D01*
X139336Y766949D01*
X138946Y766475D01*
X138568Y765992D01*
X138201Y765500D01*
X137846Y764999D01*
X137504Y764490D01*
X137174Y763972D01*
X136856Y763447D01*
X136551Y762914D01*
X136259Y762374D01*
X135981Y761827D01*
X135715Y761274D01*
X135463Y760714D01*
X135225Y760148D01*
X135001Y759577D01*
X134790Y759000D01*
X134593Y758419D01*
X134411Y757833D01*
X134242Y757243D01*
X134088Y756649D01*
X133948Y756051D01*
X133823Y755450D01*
X133713Y754846D01*
X133617Y754240D01*
X133535Y753632D01*
X133469Y753021D01*
X133417Y752410D01*
X133380Y751797D01*
X133357Y751184D01*
X133350Y750570D01*
X133350Y176530D01*
X133357Y175916D01*
X133380Y175303D01*
X133417Y174690D01*
X133469Y174079D01*
X133535Y173468D01*
X133617Y172860D01*
X133713Y172254D01*
X133823Y171650D01*
X133948Y171049D01*
X134088Y170451D01*
X134242Y169857D01*
X134411Y169267D01*
X134593Y168681D01*
X134790Y168100D01*
X135001Y167523D01*
X135225Y166952D01*
X135463Y166386D01*
X135715Y165826D01*
X135981Y165273D01*
X136259Y164726D01*
X136551Y164186D01*
X136856Y163653D01*
X137174Y163128D01*
X137504Y162610D01*
X137846Y162101D01*
X138201Y161600D01*
X138568Y161108D01*
X138946Y160625D01*
X139336Y160151D01*
X139738Y159687D01*
X140150Y159232D01*
X140574Y158788D01*
X141008Y158354D01*
X141452Y157930D01*
X141907Y157518D01*
X142371Y157116D01*
X142845Y156726D01*
X143328Y156348D01*
X143820Y155981D01*
X144321Y155626D01*
X144830Y155284D01*
X145348Y154954D01*
X145873Y154636D01*
X146406Y154331D01*
X146946Y154039D01*
X147493Y153761D01*
X148046Y153495D01*
X148606Y153243D01*
X149172Y153005D01*
X149743Y152781D01*
X150320Y152570D01*
X150901Y152373D01*
X151487Y152191D01*
X152077Y152022D01*
X152671Y151868D01*
X153269Y151728D01*
X153870Y151603D01*
X154474Y151493D01*
X155080Y151397D01*
X155688Y151315D01*
X156299Y151249D01*
X156910Y151197D01*
X157523Y151160D01*
X158136Y151137D01*
X158750Y151130D01*
X159364Y151137D01*
X159977Y151160D01*
X160590Y151197D01*
X161201Y151249D01*
X161812Y151315D01*
X162420Y151397D01*
X163026Y151493D01*
X163630Y151603D01*
X164231Y151728D01*
X164829Y151868D01*
X165423Y152022D01*
X166013Y152191D01*
X166599Y152373D01*
X167180Y152570D01*
X167757Y152781D01*
X168328Y153005D01*
X168894Y153243D01*
X169454Y153495D01*
X170007Y153761D01*
X170554Y154039D01*
X171094Y154331D01*
X171627Y154636D01*
X172152Y154954D01*
X172670Y155284D01*
X173179Y155626D01*
X173680Y155981D01*
X174172Y156348D01*
X174655Y156726D01*
X175129Y157116D01*
X175593Y157518D01*
X176048Y157930D01*
X176492Y158354D01*
X176926Y158788D01*
X177350Y159232D01*
X177762Y159687D01*
X178164Y160151D01*
X178554Y160625D01*
X178932Y161108D01*
X179299Y161600D01*
X179654Y162101D01*
X179996Y162610D01*
X180326Y163128D01*
X180644Y163653D01*
X180949Y164186D01*
X181241Y164726D01*
X181519Y165273D01*
X181785Y165826D01*
X182037Y166386D01*
X182275Y166952D01*
X182499Y167523D01*
X182710Y168100D01*
X182907Y168681D01*
X183089Y169267D01*
X183258Y169857D01*
X183412Y170451D01*
X183552Y171049D01*
X183677Y171650D01*
X183787Y172254D01*
X183883Y172860D01*
X183965Y173468D01*
X184031Y174079D01*
X184083Y174690D01*
X184120Y175303D01*
X184143Y175916D01*
X184150Y176530D01*
X184150Y209550D01*
X895350Y209550D01*
X895350Y176530D01*
X895357Y175916D01*
X895380Y175303D01*
X895417Y174690D01*
X895469Y174079D01*
X895535Y173468D01*
X895617Y172860D01*
X895713Y172254D01*
X895823Y171650D01*
X895948Y171049D01*
X896088Y170451D01*
X896242Y169857D01*
X896411Y169267D01*
X896593Y168681D01*
X896790Y168100D01*
X897001Y167523D01*
X897225Y166952D01*
X897463Y166386D01*
X897715Y165826D01*
X897981Y165273D01*
X898259Y164726D01*
X898551Y164186D01*
X898856Y163653D01*
X899174Y163128D01*
X899504Y162610D01*
X899846Y162101D01*
X900201Y161600D01*
X900568Y161108D01*
X900946Y160625D01*
X901336Y160151D01*
X901738Y159687D01*
X902150Y159232D01*
X902574Y158788D01*
X903008Y158354D01*
X903452Y157930D01*
X903907Y157518D01*
X904371Y157116D01*
X904845Y156726D01*
X905328Y156348D01*
X905820Y155981D01*
X906321Y155626D01*
X906830Y155284D01*
X907348Y154954D01*
X907873Y154636D01*
X908406Y154331D01*
X908946Y154039D01*
X909493Y153761D01*
X910046Y153495D01*
X910606Y153243D01*
X911172Y153005D01*
X911743Y152781D01*
X912320Y152570D01*
X912901Y152373D01*
X913487Y152191D01*
X914077Y152022D01*
X914671Y151868D01*
X915269Y151728D01*
X915870Y151603D01*
X916474Y151493D01*
X917080Y151397D01*
X917688Y151315D01*
X918299Y151249D01*
X918910Y151197D01*
X919523Y151160D01*
X920136Y151137D01*
X920750Y151130D01*
X921364Y151137D01*
X921977Y151160D01*
X922590Y151197D01*
X923201Y151249D01*
X923812Y151315D01*
X924420Y151397D01*
X925026Y151493D01*
X925630Y151603D01*
X926231Y151728D01*
X926829Y151868D01*
X927423Y152022D01*
X928013Y152191D01*
X928599Y152373D01*
X929180Y152570D01*
X929757Y152781D01*
X930328Y153005D01*
X930894Y153243D01*
X931454Y153495D01*
X932007Y153761D01*
X932554Y154039D01*
X933094Y154331D01*
X933627Y154636D01*
X934152Y154954D01*
X934670Y155284D01*
X935179Y155626D01*
X935680Y155981D01*
X936172Y156348D01*
X936655Y156726D01*
X937129Y157116D01*
X937593Y157518D01*
X938048Y157930D01*
X938492Y158354D01*
X938926Y158788D01*
X939350Y159232D01*
X939762Y159687D01*
X940164Y160151D01*
X940554Y160625D01*
X940932Y161108D01*
X941299Y161600D01*
X941654Y162101D01*
X941996Y162610D01*
X942326Y163128D01*
X942644Y163653D01*
X942949Y164186D01*
X943241Y164726D01*
X943519Y165273D01*
X943785Y165826D01*
X944037Y166386D01*
X944275Y166952D01*
X944499Y167523D01*
X944710Y168100D01*
X944907Y168681D01*
X945089Y169267D01*
X945258Y169857D01*
X945412Y170451D01*
X945552Y171049D01*
X945677Y171650D01*
X945787Y172254D01*
X945883Y172860D01*
X945965Y173468D01*
X946031Y174079D01*
X946083Y174690D01*
X946120Y175303D01*
X946143Y175916D01*
X946150Y176530D01*
X946150Y750570D01*
X946143Y751184D01*
X946120Y751797D01*
X946083Y752410D01*
X946031Y753021D01*
X945965Y753632D01*
X945883Y754240D01*
X945787Y754846D01*
X945677Y755450D01*
X945552Y756051D01*
X945412Y756649D01*
X945258Y757243D01*
X945089Y757833D01*
X944907Y758419D01*
X944710Y759000D01*
X944499Y759577D01*
X944275Y760148D01*
X944037Y760714D01*
X943785Y761274D01*
X943519Y761827D01*
X943241Y762374D01*
X942949Y762914D01*
X942644Y763447D01*
X942326Y763972D01*
X941996Y764490D01*
X941654Y764999D01*
X941299Y765500D01*
X940932Y765992D01*
X940554Y766475D01*
X940164Y766949D01*
X939762Y767413D01*
X939350Y767868D01*
X938926Y768312D01*
X938492Y768746D01*
X938048Y769170D01*
X937593Y769582D01*
X937129Y769984D01*
X936655Y770374D01*
X936172Y770752D01*
X935680Y771119D01*
X935179Y771474D01*
X934670Y771816D01*
X934152Y772146D01*
X933627Y772464D01*
X933094Y772769D01*
X932554Y773061D01*
X932007Y773339D01*
X931454Y773605D01*
X930894Y773857D01*
X930328Y774095D01*
X929757Y774319D01*
X929180Y774530D01*
X928599Y774727D01*
X928013Y774909D01*
X927423Y775078D01*
X926829Y775232D01*
X926231Y775372D01*
X925630Y775497D01*
X925026Y775607D01*
X924420Y775703D01*
X923812Y775785D01*
X923201Y775851D01*
X922590Y775903D01*
X921977Y775940D01*
X921364Y775963D01*
X920750Y775970D01*
X920136Y775963D01*
X919523Y775940D01*
X918910Y775903D01*
X918299Y775851D01*
X917688Y775785D01*
X917080Y775703D01*
X916474Y775607D01*
X915870Y775497D01*
X915269Y775372D01*
X914671Y775232D01*
X914077Y775078D01*
X913487Y774909D01*
X912901Y774727D01*
X912320Y774530D01*
X911743Y774319D01*
X911172Y774095D01*
X910606Y773857D01*
X910046Y773605D01*
X909493Y773339D01*
X908946Y773061D01*
X908406Y772769D01*
X907873Y772464D01*
X907348Y772146D01*
X906830Y771816D01*
X906321Y771474D01*
X905820Y771119D01*
X905328Y770752D01*
X904845Y770374D01*
X904371Y769984D01*
X903907Y769582D01*
X903452Y769170D01*
X903008Y768746D01*
X902574Y768312D01*
X902150Y767868D01*
X901738Y767413D01*
X901336Y766949D01*
X900946Y766475D01*
X900568Y765992D01*
X900201Y765500D01*
X899846Y764999D01*
X899504Y764490D01*
X899174Y763972D01*
X898856Y763447D01*
X898551Y762914D01*
X898259Y762374D01*
X897981Y761827D01*
X897715Y761274D01*
X897463Y760714D01*
X897225Y760148D01*
X897001Y759577D01*
X896790Y759000D01*
X896593Y758419D01*
X896411Y757833D01*
X896242Y757243D01*
X896088Y756649D01*
X895948Y756051D01*
X895823Y755450D01*
X895713Y754846D01*
X895617Y754240D01*
X895535Y753632D01*
X895469Y753021D01*
X895417Y752410D01*
X895380Y751797D01*
X895357Y751184D01*
X895350Y750570D01*
X895350Y717550D01*
X184150Y717550D01*
X184150Y750570D01*
X184143Y751184D01*
X184120Y751797D01*
X184083Y752410D01*
X184031Y753021D01*
X183965Y753632D01*
X183883Y754240D01*
X183787Y754846D01*
X183677Y755450D01*
X183552Y756051D01*
X183412Y756649D01*
X183258Y757243D01*
X183089Y757833D01*
X182907Y758419D01*
X182710Y759000D01*
X182499Y759577D01*
X182275Y760148D01*
X182037Y760714D01*
X181785Y761274D01*
X181519Y761827D01*
X181241Y762374D01*
X180949Y762914D01*
X180644Y763447D01*
X180326Y763972D01*
X179996Y764490D01*
X179654Y764999D01*
X179299Y765500D01*
X178932Y765992D01*
X178554Y766475D01*
X178164Y766949D01*
X177762Y767413D01*
X177350Y767868D01*
X176926Y768312D01*
X176492Y768746D01*
X176048Y769170D01*
X175593Y769582D01*
X175129Y769984D01*
X174655Y770374D01*
X174172Y770752D01*
X173680Y771119D01*
X173179Y771474D01*
X172670Y771816D01*
X172152Y772146D01*
X171627Y772464D01*
X171094Y772769D01*
X170554Y773061D01*
X170007Y773339D01*
X169454Y773605D01*
X168894Y773857D01*
X168328Y774095D01*
X167757Y774319D01*
X167180Y774530D01*
X166599Y774727D01*
X166013Y774909D01*
X165423Y775078D01*
X164829Y775232D01*
X164231Y775372D01*
X163630Y775497D01*
X163026Y775607D01*
X162420Y775703D01*
X161812Y775785D01*
X161201Y775851D01*
X160590Y775903D01*
X159977Y775940D01*
X159364Y775963D01*
X158750Y775970D01*
D11*
X456505Y480568D02*
X456630Y480566D01*
X456755Y480560D01*
X456880Y480551D01*
X457004Y480537D01*
X457128Y480520D01*
X457252Y480499D01*
X457374Y480474D01*
X457496Y480445D01*
X457617Y480413D01*
X457737Y480377D01*
X457856Y480337D01*
X457973Y480294D01*
X458089Y480247D01*
X458204Y480196D01*
X458316Y480142D01*
X458428Y480084D01*
X458537Y480024D01*
X458644Y479959D01*
X458750Y479892D01*
X458853Y479821D01*
X458954Y479747D01*
X459053Y479670D01*
X459149Y479590D01*
X459243Y479507D01*
X459334Y479422D01*
X459423Y479333D01*
X459508Y479242D01*
X459591Y479148D01*
X459671Y479052D01*
X459748Y478953D01*
X459822Y478852D01*
X459893Y478749D01*
X459960Y478643D01*
X460025Y478536D01*
X460085Y478427D01*
X460143Y478315D01*
X460197Y478203D01*
X460248Y478088D01*
X460295Y477972D01*
X460338Y477855D01*
X460378Y477736D01*
X460414Y477616D01*
X460446Y477495D01*
X460475Y477373D01*
X460500Y477251D01*
X460521Y477127D01*
X460538Y477003D01*
X460552Y476879D01*
X460561Y476754D01*
X460567Y476629D01*
X460569Y476504D01*
X456505Y480568D02*
X456362Y480566D01*
X456220Y480560D01*
X456077Y480550D01*
X455935Y480537D01*
X455794Y480519D01*
X455652Y480498D01*
X455512Y480473D01*
X455372Y480444D01*
X455233Y480411D01*
X455095Y480374D01*
X454958Y480334D01*
X454823Y480290D01*
X454688Y480242D01*
X454555Y480190D01*
X454423Y480135D01*
X454293Y480076D01*
X454165Y480014D01*
X454038Y479948D01*
X453913Y479879D01*
X453790Y479807D01*
X453670Y479731D01*
X453551Y479652D01*
X453434Y479569D01*
X453320Y479484D01*
X453208Y479395D01*
X453099Y479304D01*
X452992Y479209D01*
X452887Y479112D01*
X452786Y479011D01*
X452687Y478908D01*
X452591Y478803D01*
X452498Y478694D01*
X452408Y478583D01*
X452321Y478470D01*
X452237Y478355D01*
X452157Y478237D01*
X452079Y478117D01*
X452005Y477995D01*
X451935Y477871D01*
X451867Y477745D01*
X451804Y477617D01*
X451743Y477488D01*
X451686Y477357D01*
X451633Y477225D01*
X451584Y477091D01*
X451538Y476956D01*
X459214Y473343D02*
X459308Y473435D01*
X459398Y473529D01*
X459486Y473626D01*
X459571Y473726D01*
X459653Y473828D01*
X459732Y473933D01*
X459807Y474040D01*
X459879Y474149D01*
X459948Y474260D01*
X460014Y474374D01*
X460076Y474489D01*
X460135Y474606D01*
X460190Y474725D01*
X460241Y474845D01*
X460289Y474967D01*
X460334Y475090D01*
X460374Y475214D01*
X460411Y475340D01*
X460444Y475467D01*
X460473Y475594D01*
X460499Y475723D01*
X460520Y475852D01*
X460538Y475982D01*
X460551Y476112D01*
X460561Y476242D01*
X460567Y476373D01*
X460569Y476504D01*
X459214Y473343D02*
X451538Y464312D01*
X460569Y464312D01*
X466544Y464312D02*
X466544Y465215D01*
X467447Y465215D01*
X467447Y464312D01*
X466544Y464312D01*
X473421Y468828D02*
X473423Y468961D01*
X473429Y469093D01*
X473439Y469225D01*
X473452Y469357D01*
X473470Y469489D01*
X473491Y469619D01*
X473516Y469750D01*
X473545Y469879D01*
X473578Y470007D01*
X473614Y470135D01*
X473654Y470261D01*
X473698Y470386D01*
X473746Y470510D01*
X473797Y470632D01*
X473852Y470753D01*
X473910Y470872D01*
X473972Y470990D01*
X474037Y471105D01*
X474106Y471219D01*
X474177Y471330D01*
X474253Y471439D01*
X474331Y471546D01*
X474412Y471651D01*
X474497Y471753D01*
X474584Y471853D01*
X474674Y471950D01*
X474767Y472045D01*
X474863Y472136D01*
X474961Y472225D01*
X475062Y472311D01*
X475166Y472394D01*
X475272Y472474D01*
X475380Y472550D01*
X475490Y472624D01*
X475603Y472694D01*
X475717Y472761D01*
X475834Y472824D01*
X475952Y472884D01*
X476072Y472941D01*
X476194Y472994D01*
X476317Y473043D01*
X476441Y473089D01*
X476567Y473131D01*
X476694Y473169D01*
X476822Y473204D01*
X476951Y473235D01*
X477080Y473262D01*
X477211Y473285D01*
X477342Y473305D01*
X477474Y473320D01*
X477606Y473332D01*
X477738Y473340D01*
X477871Y473344D01*
X478003Y473344D01*
X478136Y473340D01*
X478268Y473332D01*
X478400Y473320D01*
X478532Y473305D01*
X478663Y473285D01*
X478794Y473262D01*
X478923Y473235D01*
X479052Y473204D01*
X479180Y473169D01*
X479307Y473131D01*
X479433Y473089D01*
X479557Y473043D01*
X479680Y472994D01*
X479802Y472941D01*
X479922Y472884D01*
X480040Y472824D01*
X480157Y472761D01*
X480271Y472694D01*
X480384Y472624D01*
X480494Y472550D01*
X480602Y472474D01*
X480708Y472394D01*
X480812Y472311D01*
X480913Y472225D01*
X481011Y472136D01*
X481107Y472045D01*
X481200Y471950D01*
X481290Y471853D01*
X481377Y471753D01*
X481462Y471651D01*
X481543Y471546D01*
X481621Y471439D01*
X481697Y471330D01*
X481768Y471219D01*
X481837Y471105D01*
X481902Y470990D01*
X481964Y470872D01*
X482022Y470753D01*
X482077Y470632D01*
X482128Y470510D01*
X482176Y470386D01*
X482220Y470261D01*
X482260Y470135D01*
X482296Y470007D01*
X482329Y469879D01*
X482358Y469750D01*
X482383Y469619D01*
X482404Y469489D01*
X482422Y469357D01*
X482435Y469225D01*
X482445Y469093D01*
X482451Y468961D01*
X482453Y468828D01*
X482451Y468695D01*
X482445Y468563D01*
X482435Y468431D01*
X482422Y468299D01*
X482404Y468167D01*
X482383Y468037D01*
X482358Y467906D01*
X482329Y467777D01*
X482296Y467649D01*
X482260Y467521D01*
X482220Y467395D01*
X482176Y467270D01*
X482128Y467146D01*
X482077Y467024D01*
X482022Y466903D01*
X481964Y466784D01*
X481902Y466666D01*
X481837Y466551D01*
X481768Y466437D01*
X481697Y466326D01*
X481621Y466217D01*
X481543Y466110D01*
X481462Y466005D01*
X481377Y465903D01*
X481290Y465803D01*
X481200Y465706D01*
X481107Y465611D01*
X481011Y465520D01*
X480913Y465431D01*
X480812Y465345D01*
X480708Y465262D01*
X480602Y465182D01*
X480494Y465106D01*
X480384Y465032D01*
X480271Y464962D01*
X480157Y464895D01*
X480040Y464832D01*
X479922Y464772D01*
X479802Y464715D01*
X479680Y464662D01*
X479557Y464613D01*
X479433Y464567D01*
X479307Y464525D01*
X479180Y464487D01*
X479052Y464452D01*
X478923Y464421D01*
X478794Y464394D01*
X478663Y464371D01*
X478532Y464351D01*
X478400Y464336D01*
X478268Y464324D01*
X478136Y464316D01*
X478003Y464312D01*
X477871Y464312D01*
X477738Y464316D01*
X477606Y464324D01*
X477474Y464336D01*
X477342Y464351D01*
X477211Y464371D01*
X477080Y464394D01*
X476951Y464421D01*
X476822Y464452D01*
X476694Y464487D01*
X476567Y464525D01*
X476441Y464567D01*
X476317Y464613D01*
X476194Y464662D01*
X476072Y464715D01*
X475952Y464772D01*
X475834Y464832D01*
X475717Y464895D01*
X475603Y464962D01*
X475490Y465032D01*
X475380Y465106D01*
X475272Y465182D01*
X475166Y465262D01*
X475062Y465345D01*
X474961Y465431D01*
X474863Y465520D01*
X474767Y465611D01*
X474674Y465706D01*
X474584Y465803D01*
X474497Y465903D01*
X474412Y466005D01*
X474331Y466110D01*
X474253Y466217D01*
X474177Y466326D01*
X474106Y466437D01*
X474037Y466551D01*
X473972Y466666D01*
X473910Y466784D01*
X473852Y466903D01*
X473797Y467024D01*
X473746Y467146D01*
X473698Y467270D01*
X473654Y467395D01*
X473614Y467521D01*
X473578Y467649D01*
X473545Y467777D01*
X473516Y467906D01*
X473491Y468037D01*
X473470Y468167D01*
X473452Y468299D01*
X473439Y468431D01*
X473429Y468563D01*
X473423Y468695D01*
X473421Y468828D01*
X474325Y476956D02*
X474327Y477075D01*
X474333Y477195D01*
X474343Y477314D01*
X474357Y477432D01*
X474374Y477551D01*
X474396Y477668D01*
X474421Y477785D01*
X474451Y477900D01*
X474484Y478015D01*
X474521Y478129D01*
X474561Y478241D01*
X474606Y478352D01*
X474654Y478461D01*
X474705Y478569D01*
X474760Y478675D01*
X474819Y478779D01*
X474881Y478881D01*
X474946Y478981D01*
X475015Y479079D01*
X475087Y479175D01*
X475162Y479268D01*
X475239Y479358D01*
X475320Y479446D01*
X475404Y479531D01*
X475491Y479613D01*
X475580Y479693D01*
X475672Y479769D01*
X475766Y479843D01*
X475863Y479913D01*
X475961Y479980D01*
X476062Y480044D01*
X476166Y480104D01*
X476271Y480161D01*
X476378Y480214D01*
X476486Y480264D01*
X476596Y480310D01*
X476708Y480352D01*
X476821Y480391D01*
X476935Y480426D01*
X477050Y480457D01*
X477167Y480485D01*
X477284Y480508D01*
X477401Y480528D01*
X477520Y480544D01*
X477639Y480556D01*
X477758Y480564D01*
X477877Y480568D01*
X477997Y480568D01*
X478116Y480564D01*
X478235Y480556D01*
X478354Y480544D01*
X478473Y480528D01*
X478590Y480508D01*
X478707Y480485D01*
X478824Y480457D01*
X478939Y480426D01*
X479053Y480391D01*
X479166Y480352D01*
X479278Y480310D01*
X479388Y480264D01*
X479496Y480214D01*
X479603Y480161D01*
X479708Y480104D01*
X479812Y480044D01*
X479913Y479980D01*
X480011Y479913D01*
X480108Y479843D01*
X480202Y479769D01*
X480294Y479693D01*
X480383Y479613D01*
X480470Y479531D01*
X480554Y479446D01*
X480635Y479358D01*
X480712Y479268D01*
X480787Y479175D01*
X480859Y479079D01*
X480928Y478981D01*
X480993Y478881D01*
X481055Y478779D01*
X481114Y478675D01*
X481169Y478569D01*
X481220Y478461D01*
X481268Y478352D01*
X481313Y478241D01*
X481353Y478129D01*
X481390Y478015D01*
X481423Y477900D01*
X481453Y477785D01*
X481478Y477668D01*
X481500Y477551D01*
X481517Y477432D01*
X481531Y477314D01*
X481541Y477195D01*
X481547Y477075D01*
X481549Y476956D01*
X481547Y476837D01*
X481541Y476717D01*
X481531Y476598D01*
X481517Y476480D01*
X481500Y476361D01*
X481478Y476244D01*
X481453Y476127D01*
X481423Y476012D01*
X481390Y475897D01*
X481353Y475783D01*
X481313Y475671D01*
X481268Y475560D01*
X481220Y475451D01*
X481169Y475343D01*
X481114Y475237D01*
X481055Y475133D01*
X480993Y475031D01*
X480928Y474931D01*
X480859Y474833D01*
X480787Y474737D01*
X480712Y474644D01*
X480635Y474554D01*
X480554Y474466D01*
X480470Y474381D01*
X480383Y474299D01*
X480294Y474219D01*
X480202Y474143D01*
X480108Y474069D01*
X480011Y473999D01*
X479913Y473932D01*
X479812Y473868D01*
X479708Y473808D01*
X479603Y473751D01*
X479496Y473698D01*
X479388Y473648D01*
X479278Y473602D01*
X479166Y473560D01*
X479053Y473521D01*
X478939Y473486D01*
X478824Y473455D01*
X478707Y473427D01*
X478590Y473404D01*
X478473Y473384D01*
X478354Y473368D01*
X478235Y473356D01*
X478116Y473348D01*
X477997Y473344D01*
X477877Y473344D01*
X477758Y473348D01*
X477639Y473356D01*
X477520Y473368D01*
X477401Y473384D01*
X477284Y473404D01*
X477167Y473427D01*
X477050Y473455D01*
X476935Y473486D01*
X476821Y473521D01*
X476708Y473560D01*
X476596Y473602D01*
X476486Y473648D01*
X476378Y473698D01*
X476271Y473751D01*
X476166Y473808D01*
X476062Y473868D01*
X475961Y473932D01*
X475863Y473999D01*
X475766Y474069D01*
X475672Y474143D01*
X475580Y474219D01*
X475491Y474299D01*
X475404Y474381D01*
X475320Y474466D01*
X475239Y474554D01*
X475162Y474644D01*
X475087Y474737D01*
X475015Y474833D01*
X474946Y474931D01*
X474881Y475031D01*
X474819Y475133D01*
X474760Y475237D01*
X474705Y475343D01*
X474654Y475451D01*
X474606Y475560D01*
X474561Y475671D01*
X474521Y475783D01*
X474484Y475897D01*
X474451Y476012D01*
X474421Y476127D01*
X474396Y476244D01*
X474374Y476361D01*
X474357Y476480D01*
X474343Y476598D01*
X474333Y476717D01*
X474327Y476837D01*
X474325Y476956D01*
X488184Y480568D02*
X488184Y484180D01*
X492700Y484180D02*
X492700Y480568D01*
X510242Y480568D02*
X510242Y464312D01*
X505726Y480568D02*
X514757Y480568D01*
X520866Y480568D02*
X520866Y464312D01*
X520866Y480568D02*
X528091Y480568D01*
X528091Y473343D02*
X520866Y473343D01*
X537336Y480568D02*
X537336Y464312D01*
X532820Y480568D02*
X541851Y480568D01*
X560644Y464312D02*
X560762Y464314D01*
X560880Y464320D01*
X560998Y464329D01*
X561115Y464343D01*
X561232Y464360D01*
X561349Y464381D01*
X561464Y464406D01*
X561579Y464435D01*
X561693Y464468D01*
X561805Y464504D01*
X561916Y464544D01*
X562026Y464587D01*
X562135Y464634D01*
X562242Y464684D01*
X562347Y464739D01*
X562450Y464796D01*
X562551Y464857D01*
X562651Y464921D01*
X562748Y464988D01*
X562843Y465058D01*
X562935Y465132D01*
X563026Y465208D01*
X563113Y465288D01*
X563198Y465370D01*
X563280Y465455D01*
X563360Y465542D01*
X563436Y465633D01*
X563510Y465725D01*
X563580Y465820D01*
X563647Y465917D01*
X563711Y466017D01*
X563772Y466118D01*
X563829Y466221D01*
X563884Y466326D01*
X563934Y466433D01*
X563981Y466542D01*
X564024Y466652D01*
X564064Y466763D01*
X564100Y466875D01*
X564133Y466989D01*
X564162Y467104D01*
X564187Y467219D01*
X564208Y467336D01*
X564225Y467453D01*
X564239Y467570D01*
X564248Y467688D01*
X564254Y467806D01*
X564256Y467924D01*
X560644Y464312D02*
X560461Y464314D01*
X560279Y464321D01*
X560097Y464332D01*
X559915Y464347D01*
X559733Y464367D01*
X559552Y464390D01*
X559372Y464419D01*
X559192Y464451D01*
X559013Y464488D01*
X558836Y464529D01*
X558659Y464575D01*
X558483Y464624D01*
X558309Y464678D01*
X558135Y464736D01*
X557964Y464798D01*
X557794Y464864D01*
X557625Y464935D01*
X557458Y465009D01*
X557293Y465087D01*
X557130Y465169D01*
X556969Y465255D01*
X556810Y465345D01*
X556653Y465439D01*
X556499Y465536D01*
X556347Y465637D01*
X556197Y465742D01*
X556050Y465850D01*
X555906Y465961D01*
X555764Y466076D01*
X555625Y466195D01*
X555489Y466317D01*
X555356Y466442D01*
X555226Y466570D01*
X555677Y476956D02*
X555679Y477074D01*
X555685Y477192D01*
X555694Y477310D01*
X555708Y477427D01*
X555725Y477544D01*
X555746Y477661D01*
X555771Y477776D01*
X555800Y477891D01*
X555833Y478005D01*
X555869Y478117D01*
X555909Y478228D01*
X555952Y478338D01*
X555999Y478447D01*
X556049Y478554D01*
X556104Y478659D01*
X556161Y478762D01*
X556222Y478863D01*
X556286Y478963D01*
X556353Y479060D01*
X556423Y479155D01*
X556497Y479247D01*
X556573Y479338D01*
X556653Y479425D01*
X556735Y479510D01*
X556820Y479592D01*
X556907Y479672D01*
X556998Y479748D01*
X557090Y479822D01*
X557185Y479892D01*
X557282Y479959D01*
X557382Y480023D01*
X557483Y480084D01*
X557586Y480142D01*
X557691Y480196D01*
X557798Y480246D01*
X557907Y480293D01*
X558017Y480337D01*
X558128Y480376D01*
X558241Y480412D01*
X558354Y480445D01*
X558469Y480474D01*
X558584Y480499D01*
X558701Y480520D01*
X558818Y480537D01*
X558935Y480551D01*
X559053Y480560D01*
X559171Y480566D01*
X559289Y480568D01*
X559450Y480566D01*
X559612Y480560D01*
X559773Y480551D01*
X559934Y480537D01*
X560094Y480520D01*
X560254Y480499D01*
X560414Y480474D01*
X560573Y480445D01*
X560731Y480413D01*
X560888Y480377D01*
X561044Y480337D01*
X561200Y480293D01*
X561354Y480245D01*
X561507Y480194D01*
X561659Y480140D01*
X561810Y480081D01*
X561959Y480020D01*
X562106Y479954D01*
X562252Y479885D01*
X562397Y479813D01*
X562539Y479737D01*
X562680Y479658D01*
X562819Y479576D01*
X562955Y479490D01*
X563090Y479401D01*
X563223Y479309D01*
X563353Y479213D01*
X557482Y473795D02*
X557381Y473857D01*
X557281Y473922D01*
X557184Y473991D01*
X557089Y474063D01*
X556996Y474137D01*
X556906Y474215D01*
X556818Y474296D01*
X556733Y474379D01*
X556651Y474465D01*
X556572Y474554D01*
X556495Y474645D01*
X556422Y474739D01*
X556351Y474835D01*
X556284Y474933D01*
X556220Y475033D01*
X556159Y475136D01*
X556102Y475240D01*
X556048Y475346D01*
X555998Y475454D01*
X555951Y475563D01*
X555907Y475674D01*
X555867Y475786D01*
X555831Y475900D01*
X555799Y476014D01*
X555770Y476130D01*
X555745Y476246D01*
X555724Y476363D01*
X555707Y476481D01*
X555693Y476599D01*
X555684Y476718D01*
X555678Y476837D01*
X555676Y476956D01*
X562450Y471085D02*
X562551Y471023D01*
X562651Y470958D01*
X562748Y470889D01*
X562843Y470817D01*
X562936Y470743D01*
X563026Y470665D01*
X563114Y470584D01*
X563199Y470501D01*
X563281Y470415D01*
X563360Y470326D01*
X563437Y470235D01*
X563510Y470141D01*
X563581Y470045D01*
X563648Y469947D01*
X563712Y469847D01*
X563773Y469744D01*
X563830Y469640D01*
X563884Y469534D01*
X563934Y469426D01*
X563981Y469317D01*
X564025Y469206D01*
X564065Y469094D01*
X564101Y468980D01*
X564133Y468866D01*
X564162Y468750D01*
X564187Y468634D01*
X564208Y468517D01*
X564225Y468399D01*
X564239Y468281D01*
X564248Y468162D01*
X564254Y468043D01*
X564256Y467924D01*
X562450Y471085D02*
X557483Y473795D01*
X572923Y464312D02*
X576536Y464312D01*
X572923Y464312D02*
X572822Y464314D01*
X572721Y464320D01*
X572620Y464329D01*
X572519Y464342D01*
X572419Y464359D01*
X572320Y464380D01*
X572222Y464404D01*
X572125Y464432D01*
X572028Y464464D01*
X571933Y464499D01*
X571840Y464538D01*
X571748Y464580D01*
X571657Y464626D01*
X571569Y464675D01*
X571482Y464727D01*
X571397Y464783D01*
X571314Y464841D01*
X571234Y464903D01*
X571156Y464968D01*
X571080Y465035D01*
X571007Y465105D01*
X570937Y465178D01*
X570870Y465254D01*
X570805Y465332D01*
X570743Y465412D01*
X570685Y465495D01*
X570629Y465580D01*
X570577Y465667D01*
X570528Y465755D01*
X570482Y465846D01*
X570440Y465938D01*
X570401Y466031D01*
X570366Y466126D01*
X570334Y466223D01*
X570306Y466320D01*
X570282Y466418D01*
X570261Y466517D01*
X570244Y466617D01*
X570231Y466718D01*
X570222Y466819D01*
X570216Y466920D01*
X570214Y467021D01*
X570214Y472440D01*
X570216Y472541D01*
X570222Y472642D01*
X570231Y472743D01*
X570244Y472844D01*
X570261Y472944D01*
X570282Y473043D01*
X570306Y473141D01*
X570334Y473238D01*
X570366Y473335D01*
X570401Y473430D01*
X570440Y473523D01*
X570482Y473615D01*
X570528Y473706D01*
X570577Y473795D01*
X570629Y473881D01*
X570685Y473966D01*
X570743Y474049D01*
X570805Y474129D01*
X570870Y474207D01*
X570937Y474283D01*
X571007Y474356D01*
X571080Y474426D01*
X571156Y474493D01*
X571234Y474558D01*
X571314Y474620D01*
X571397Y474678D01*
X571482Y474734D01*
X571569Y474786D01*
X571657Y474835D01*
X571748Y474881D01*
X571840Y474923D01*
X571933Y474962D01*
X572028Y474997D01*
X572125Y475029D01*
X572222Y475057D01*
X572320Y475081D01*
X572419Y475102D01*
X572519Y475119D01*
X572620Y475132D01*
X572721Y475141D01*
X572822Y475147D01*
X572923Y475149D01*
X576536Y475149D01*
X582786Y475149D02*
X582786Y464312D01*
X582786Y475149D02*
X588205Y475149D01*
X588205Y473343D01*
X595831Y464312D02*
X600347Y464312D01*
X595831Y464312D02*
X595730Y464314D01*
X595629Y464320D01*
X595528Y464329D01*
X595427Y464342D01*
X595327Y464359D01*
X595228Y464380D01*
X595130Y464404D01*
X595033Y464432D01*
X594936Y464464D01*
X594841Y464499D01*
X594748Y464538D01*
X594656Y464580D01*
X594565Y464626D01*
X594477Y464675D01*
X594390Y464727D01*
X594305Y464783D01*
X594222Y464841D01*
X594142Y464903D01*
X594064Y464968D01*
X593988Y465035D01*
X593915Y465105D01*
X593845Y465178D01*
X593778Y465254D01*
X593713Y465332D01*
X593651Y465412D01*
X593593Y465495D01*
X593537Y465580D01*
X593485Y465667D01*
X593436Y465755D01*
X593390Y465846D01*
X593348Y465938D01*
X593309Y466031D01*
X593274Y466126D01*
X593242Y466223D01*
X593214Y466320D01*
X593190Y466418D01*
X593169Y466517D01*
X593152Y466617D01*
X593139Y466718D01*
X593130Y466819D01*
X593124Y466920D01*
X593122Y467021D01*
X593122Y471537D01*
X593123Y471537D02*
X593125Y471656D01*
X593131Y471776D01*
X593141Y471895D01*
X593155Y472013D01*
X593172Y472132D01*
X593194Y472249D01*
X593219Y472366D01*
X593249Y472481D01*
X593282Y472596D01*
X593319Y472710D01*
X593359Y472822D01*
X593404Y472933D01*
X593452Y473042D01*
X593503Y473150D01*
X593558Y473256D01*
X593617Y473360D01*
X593679Y473462D01*
X593744Y473562D01*
X593813Y473660D01*
X593885Y473756D01*
X593960Y473849D01*
X594037Y473939D01*
X594118Y474027D01*
X594202Y474112D01*
X594289Y474194D01*
X594378Y474274D01*
X594470Y474350D01*
X594564Y474424D01*
X594661Y474494D01*
X594759Y474561D01*
X594860Y474625D01*
X594964Y474685D01*
X595069Y474742D01*
X595176Y474795D01*
X595284Y474845D01*
X595394Y474891D01*
X595506Y474933D01*
X595619Y474972D01*
X595733Y475007D01*
X595848Y475038D01*
X595965Y475066D01*
X596082Y475089D01*
X596199Y475109D01*
X596318Y475125D01*
X596437Y475137D01*
X596556Y475145D01*
X596675Y475149D01*
X596795Y475149D01*
X596914Y475145D01*
X597033Y475137D01*
X597152Y475125D01*
X597271Y475109D01*
X597388Y475089D01*
X597505Y475066D01*
X597622Y475038D01*
X597737Y475007D01*
X597851Y474972D01*
X597964Y474933D01*
X598076Y474891D01*
X598186Y474845D01*
X598294Y474795D01*
X598401Y474742D01*
X598506Y474685D01*
X598610Y474625D01*
X598711Y474561D01*
X598809Y474494D01*
X598906Y474424D01*
X599000Y474350D01*
X599092Y474274D01*
X599181Y474194D01*
X599268Y474112D01*
X599352Y474027D01*
X599433Y473939D01*
X599510Y473849D01*
X599585Y473756D01*
X599657Y473660D01*
X599726Y473562D01*
X599791Y473462D01*
X599853Y473360D01*
X599912Y473256D01*
X599967Y473150D01*
X600018Y473042D01*
X600066Y472933D01*
X600111Y472822D01*
X600151Y472710D01*
X600188Y472596D01*
X600221Y472481D01*
X600251Y472366D01*
X600276Y472249D01*
X600298Y472132D01*
X600315Y472013D01*
X600329Y471895D01*
X600339Y471776D01*
X600345Y471656D01*
X600347Y471537D01*
X600347Y469731D01*
X593122Y469731D01*
X609378Y464312D02*
X613894Y464312D01*
X609378Y464312D02*
X609277Y464314D01*
X609176Y464320D01*
X609075Y464329D01*
X608974Y464342D01*
X608874Y464359D01*
X608775Y464380D01*
X608677Y464404D01*
X608580Y464432D01*
X608483Y464464D01*
X608388Y464499D01*
X608295Y464538D01*
X608203Y464580D01*
X608112Y464626D01*
X608024Y464675D01*
X607937Y464727D01*
X607852Y464783D01*
X607769Y464841D01*
X607689Y464903D01*
X607611Y464968D01*
X607535Y465035D01*
X607462Y465105D01*
X607392Y465178D01*
X607325Y465254D01*
X607260Y465332D01*
X607198Y465412D01*
X607140Y465495D01*
X607084Y465580D01*
X607032Y465667D01*
X606983Y465755D01*
X606937Y465846D01*
X606895Y465938D01*
X606856Y466031D01*
X606821Y466126D01*
X606789Y466223D01*
X606761Y466320D01*
X606737Y466418D01*
X606716Y466517D01*
X606699Y466617D01*
X606686Y466718D01*
X606677Y466819D01*
X606671Y466920D01*
X606669Y467021D01*
X606669Y471537D01*
X606670Y471537D02*
X606672Y471656D01*
X606678Y471776D01*
X606688Y471895D01*
X606702Y472013D01*
X606719Y472132D01*
X606741Y472249D01*
X606766Y472366D01*
X606796Y472481D01*
X606829Y472596D01*
X606866Y472710D01*
X606906Y472822D01*
X606951Y472933D01*
X606999Y473042D01*
X607050Y473150D01*
X607105Y473256D01*
X607164Y473360D01*
X607226Y473462D01*
X607291Y473562D01*
X607360Y473660D01*
X607432Y473756D01*
X607507Y473849D01*
X607584Y473939D01*
X607665Y474027D01*
X607749Y474112D01*
X607836Y474194D01*
X607925Y474274D01*
X608017Y474350D01*
X608111Y474424D01*
X608208Y474494D01*
X608306Y474561D01*
X608407Y474625D01*
X608511Y474685D01*
X608616Y474742D01*
X608723Y474795D01*
X608831Y474845D01*
X608941Y474891D01*
X609053Y474933D01*
X609166Y474972D01*
X609280Y475007D01*
X609395Y475038D01*
X609512Y475066D01*
X609629Y475089D01*
X609746Y475109D01*
X609865Y475125D01*
X609984Y475137D01*
X610103Y475145D01*
X610222Y475149D01*
X610342Y475149D01*
X610461Y475145D01*
X610580Y475137D01*
X610699Y475125D01*
X610818Y475109D01*
X610935Y475089D01*
X611052Y475066D01*
X611169Y475038D01*
X611284Y475007D01*
X611398Y474972D01*
X611511Y474933D01*
X611623Y474891D01*
X611733Y474845D01*
X611841Y474795D01*
X611948Y474742D01*
X612053Y474685D01*
X612157Y474625D01*
X612258Y474561D01*
X612356Y474494D01*
X612453Y474424D01*
X612547Y474350D01*
X612639Y474274D01*
X612728Y474194D01*
X612815Y474112D01*
X612899Y474027D01*
X612980Y473939D01*
X613057Y473849D01*
X613132Y473756D01*
X613204Y473660D01*
X613273Y473562D01*
X613338Y473462D01*
X613400Y473360D01*
X613459Y473256D01*
X613514Y473150D01*
X613565Y473042D01*
X613613Y472933D01*
X613658Y472822D01*
X613698Y472710D01*
X613735Y472596D01*
X613768Y472481D01*
X613798Y472366D01*
X613823Y472249D01*
X613845Y472132D01*
X613862Y472013D01*
X613876Y471895D01*
X613886Y471776D01*
X613892Y471656D01*
X613894Y471537D01*
X613894Y469731D01*
X606669Y469731D01*
X620737Y464312D02*
X620737Y475149D01*
X625253Y475149D01*
X625357Y475147D01*
X625460Y475141D01*
X625564Y475131D01*
X625667Y475117D01*
X625769Y475099D01*
X625870Y475078D01*
X625971Y475052D01*
X626070Y475023D01*
X626169Y474990D01*
X626266Y474953D01*
X626361Y474912D01*
X626455Y474868D01*
X626547Y474820D01*
X626637Y474769D01*
X626726Y474714D01*
X626812Y474656D01*
X626895Y474594D01*
X626977Y474530D01*
X627055Y474462D01*
X627131Y474392D01*
X627205Y474319D01*
X627275Y474242D01*
X627343Y474164D01*
X627407Y474082D01*
X627469Y473999D01*
X627527Y473913D01*
X627582Y473824D01*
X627633Y473734D01*
X627681Y473642D01*
X627725Y473548D01*
X627766Y473453D01*
X627803Y473356D01*
X627836Y473257D01*
X627865Y473158D01*
X627891Y473057D01*
X627912Y472956D01*
X627930Y472854D01*
X627944Y472751D01*
X627954Y472647D01*
X627960Y472544D01*
X627962Y472440D01*
X627962Y464312D01*
M02*
